<svg width="30" height="30" viewBox="0 0 30 30" fill="none" xmlns="http://www.w3.org/2000/svg">
<path d="M4.28569 12.5678C4.35534 12.6374 4.42498 12.6964 4.49998 12.7499C4.56426 12.7982 4.62855 12.8464 4.69819 12.8892L4.82676 12.9642C4.88569 13.0017 4.94998 13.0338 5.01426 13.066C5.07319 13.0928 5.13747 13.1249 5.20176 13.1517C5.2714 13.1785 5.33569 13.2053 5.40533 13.2267C5.50176 13.2589 5.59819 13.2856 5.69461 13.3124C5.76426 13.3285 5.83926 13.3392 5.9089 13.3499C5.99461 13.366 6.08027 13.3767 6.16604 13.3821C6.25176 13.3874 6.34283 13.3928 6.42854 13.3928H23.5713C23.657 13.3928 23.7481 13.3874 23.8338 13.3821C23.9142 13.3767 23.9945 13.366 24.0695 13.3553C24.1124 13.3499 24.1552 13.3392 24.2035 13.3285C24.2624 13.3178 24.3267 13.3017 24.3856 13.291C24.5249 13.2535 24.6642 13.2053 24.8034 13.1464C24.8677 13.1196 24.9267 13.0928 24.9909 13.0606C25.0552 13.0339 25.1142 12.9964 25.1731 12.9642L25.2963 12.8946C25.3659 12.8464 25.4356 12.7982 25.4999 12.7499C25.5749 12.6964 25.6445 12.6374 25.7142 12.5678C26.3892 11.9678 26.7856 11.0946 26.7856 10.1785V4.8214C26.7856 3.93748 26.0624 3.21427 25.1784 3.21427H19.1463C18.9642 2.47499 18.5838 1.80535 18.0321 1.25357C17.2231 0.444641 16.1463 0 14.9999 0C13.0392 0 11.3303 1.34999 10.8535 3.21427H4.8214C3.93748 3.21427 3.21427 3.93748 3.21427 4.8214V10.1785C3.21427 11.0946 3.6107 11.9678 4.28569 12.5678ZM14.9999 1.07142C15.8571 1.07142 16.666 1.40356 17.2713 2.01428C17.6196 2.35713 17.8767 2.76427 18.0321 3.21427H11.9732C12.4178 1.9607 13.6231 1.07142 14.9999 1.07142Z" fill="white"/>
<path d="M20.357 14.4642H18.7499V20.357H20.357V14.4642Z" fill="white"/>
<path d="M17.6785 14.4642H12.3214V20.357H17.6785V14.4642Z" fill="white"/>
<path d="M11.2499 14.4642H9.64281V20.357H11.2499V14.4642Z" fill="white"/>
<path d="M7.49996 25.7142C7.49996 26.3034 7.9821 26.7856 8.57139 26.7856H21.4285C22.0177 26.7856 22.4999 26.3034 22.4999 25.7142V21.4285H7.49996V25.7142Z" fill="white"/>
<path d="M3.21427 26.7856V19.8213H0.535712C0.24107 19.8213 0 20.0624 0 20.357V27.857C0 29.0409 0.958924 29.9999 2.14285 29.9999H4.67141C4.32319 29.6945 4.02319 29.3302 3.79284 28.9284C3.4232 28.2963 3.21427 27.5624 3.21427 26.7856Z" fill="white"/>
<path d="M29.4643 19.8213H26.7857V26.7856C26.7857 27.5624 26.5768 28.2963 26.2072 28.9284C25.9768 29.3302 25.6768 29.6945 25.3286 29.9999H27.8572C29.0411 29.9999 30 29.0409 30 27.857V20.357C30 20.0624 29.7589 19.8213 29.4643 19.8213Z" fill="white"/>
<path d="M25.5588 27.7713C25.5641 27.7552 25.5695 27.7338 25.5749 27.7124C25.5856 27.691 25.5909 27.6695 25.5963 27.6427C25.607 27.6106 25.6177 27.5731 25.6231 27.5356C25.6392 27.4874 25.6445 27.4392 25.6552 27.391C25.6927 27.1927 25.7142 26.9892 25.7142 26.7856V13.891C25.0713 14.266 24.3374 14.4642 23.5713 14.4642H21.4285V20.3571H23.0356C23.3302 20.3571 23.5713 20.5981 23.5713 20.8928V25.7142C23.5713 26.8981 22.6124 27.857 21.4285 27.857H8.57139C7.38746 27.857 6.42854 26.8981 6.42854 25.7142V20.8928C6.42854 20.5981 6.66961 20.3571 6.96425 20.3571H8.57139V14.4642H6.42854C5.66247 14.4642 4.9339 14.266 4.28569 13.8857V26.7856C4.28569 26.9892 4.30712 27.1927 4.34462 27.391C4.35534 27.4499 4.36605 27.5088 4.38748 27.5677C4.39284 27.616 4.40891 27.6642 4.42498 27.7124C4.44641 27.7981 4.47855 27.8838 4.51069 27.9642C4.54283 28.0499 4.58033 28.1355 4.62319 28.216C4.66069 28.2963 4.69819 28.3713 4.74641 28.441C4.78391 28.5052 4.82676 28.5695 4.87498 28.6338C4.90176 28.682 4.93926 28.7249 4.97146 28.7677C5.0036 28.8106 5.03574 28.8535 5.07319 28.891C5.0839 28.9017 5.09462 28.9177 5.10539 28.9285C5.69467 29.5874 6.55181 29.9999 7.50002 29.9999H22.4999C23.4482 29.9999 24.3053 29.5874 24.8946 28.9285C24.9428 28.8749 24.9911 28.8213 25.0339 28.7624C25.066 28.7195 25.0981 28.6767 25.1249 28.6338C25.2803 28.4195 25.4089 28.1785 25.5053 27.9267C25.5213 27.8785 25.5427 27.8249 25.5588 27.7713Z" fill="white"/>
</svg>
