<svg width="20" height="30" viewBox="0 0 20 30" fill="none" xmlns="http://www.w3.org/2000/svg">
<path d="M17.3378 18.7224L11.566 24.531V1.57759C11.566 0.736211 10.8352 0 10 0C9.16479 0 8.43398 0.736211 8.43398 1.57759V24.6362L2.66223 18.8276C2.03582 18.1966 1.09621 18.1966 0.469805 18.8276C-0.156602 19.4586 -0.156602 20.4052 0.469805 21.0362L8.95599 29.5793C9.06039 29.6845 9.2692 29.8948 9.478 29.8948C9.6868 30 9.8956 30 10 30C10.1044 30 10.4176 30 10.522 29.8948C10.7308 29.7897 10.8352 29.6845 11.044 29.5793L19.5302 21.0362C20.1566 20.4052 20.1566 19.4586 19.5302 18.8276C18.9038 18.1966 17.9642 18.1966 17.3378 18.7224Z" fill="white"/>
</svg>
