<svg width="1087" height="375" viewBox="0 0 1087 375" fill="none" xmlns="http://www.w3.org/2000/svg">
<g opacity="0.9">
<path opacity="0.9" d="M58.3951 54.4375C76.0494 70.7687 96.4198 88.4608 135.802 88.4608C175.185 88.4608 195.556 70.7687 213.21 54.4375C229.506 39.4672 243.086 27.2187 271.605 27.2187C300.123 27.2187 313.704 39.4672 330 54.4375C347.654 70.7687 368.025 88.4608 407.407 88.4608C446.79 88.4608 467.161 70.7687 484.815 54.4375C501.111 39.4672 514.691 27.2187 543.21 27.2187C571.728 27.2187 585.309 39.4672 601.605 54.4375C619.259 70.7687 639.63 88.4608 679.012 88.4608C718.395 88.4608 738.766 70.7687 756.42 54.4375C772.716 39.4672 786.296 27.2187 814.815 27.2187C843.333 27.2187 856.914 39.4672 873.21 54.4375C890.864 70.7687 911.235 88.4608 950.617 88.4608C990 88.4608 1010.37 70.7687 1028.02 54.4375C1044.32 39.4672 1057.9 27.2187 1086.42 27.2187V0C1047.04 0 1026.67 17.6922 1009.01 34.0234C992.716 48.9937 979.136 61.2421 950.617 61.2421C922.099 61.2421 908.519 48.9937 892.222 34.0234C874.568 17.6922 854.198 0 814.815 0C775.432 0 755.062 17.6922 737.407 34.0234C721.111 48.9937 707.531 61.2421 679.012 61.2421C650.494 61.2421 636.914 48.9937 620.617 34.0234C602.963 17.6922 582.593 0 543.21 0C503.827 0 483.457 17.6922 465.802 34.0234C449.506 48.9937 435.926 61.2421 407.407 61.2421C378.889 61.2421 365.309 48.9937 349.012 34.0234C331.358 17.6922 310.988 0 271.605 0C232.222 0 211.852 17.6922 194.198 34.0234C177.901 48.9937 164.321 61.2421 135.802 61.2421C107.284 61.2421 93.7037 48.9937 77.4074 34.0234C59.7531 17.6922 39.3828 0 0 0L8.39829e-05 27.2187C28.5186 27.2187 42.0988 39.4672 58.3951 54.4375Z" fill="#0066FF"/>
<path opacity="0.9" d="M1009.01 177.293C992.716 192.263 979.136 204.512 950.617 204.512C922.099 204.512 908.519 192.263 892.222 177.293C874.568 160.962 854.198 143.27 814.815 143.27C775.432 143.27 755.062 160.962 737.407 177.293C721.111 192.263 707.531 204.512 679.012 204.512C650.494 204.512 636.914 192.263 620.617 177.293C602.963 160.962 582.593 143.27 543.21 143.27C503.827 143.27 483.457 160.962 465.802 177.293C449.506 192.263 435.926 204.512 407.407 204.512C378.889 204.512 365.309 192.263 349.012 177.293C331.358 160.962 310.988 143.27 271.605 143.27C232.222 143.27 211.852 160.962 194.198 177.293C177.901 192.263 164.321 204.512 135.802 204.512C107.284 204.512 93.7037 192.263 77.4074 177.293C59.7531 160.962 39.3828 143.27 0 143.27L8.39829e-05 170.488C28.5186 170.488 42.0988 182.737 58.3951 197.707C76.0494 214.038 96.4198 231.731 135.802 231.731C175.185 231.731 195.556 214.038 213.21 197.707C229.506 182.737 243.086 170.488 271.605 170.488C300.123 170.488 313.704 182.737 330 197.707C347.654 214.038 368.025 231.731 407.407 231.731C446.79 231.731 467.161 214.038 484.815 197.707C501.111 182.737 514.691 170.488 543.21 170.488C571.728 170.488 585.309 182.737 601.605 197.707C619.259 214.038 639.63 231.731 679.012 231.731C718.395 231.731 738.766 214.038 756.42 197.707C772.716 182.737 786.296 170.488 814.815 170.488C843.333 170.488 856.914 182.737 873.21 197.707C890.864 214.038 911.235 231.731 950.617 231.731C990 231.731 1010.37 214.038 1028.02 197.707C1044.32 182.737 1057.9 170.488 1086.42 170.488V143.27C1047.04 143.27 1026.67 160.962 1009.01 177.293Z" fill="#0066FF"/>
<path opacity="0.9" d="M1009.01 320.563C992.716 335.533 979.136 347.782 950.617 347.782C922.099 347.782 908.519 335.533 892.222 320.563C874.568 304.232 854.198 286.539 814.815 286.539C775.432 286.539 755.062 304.232 737.408 320.563C721.111 335.533 707.531 347.782 679.013 347.782C650.494 347.782 636.914 335.533 620.617 320.563C602.963 304.232 582.593 286.539 543.21 286.539C503.827 286.539 483.457 304.232 465.803 320.563C449.506 335.533 435.926 347.782 407.408 347.782C378.889 347.782 365.309 335.533 349.012 320.563C331.358 304.232 310.988 286.539 271.605 286.539C232.222 286.539 211.852 304.232 194.198 320.563C177.901 335.533 164.321 347.782 135.802 347.782C107.284 347.782 93.7037 335.533 77.4074 320.563C59.7531 304.232 39.3828 286.539 0 286.539V313.758C28.5186 313.758 42.0988 326.007 58.3951 340.977C76.0494 357.308 96.4198 375 135.802 375C175.185 375 195.556 357.308 213.21 340.977C229.506 326.007 243.087 313.758 271.605 313.758C300.124 313.758 313.704 326.007 330 340.977C347.654 357.308 368.025 375 407.408 375C446.79 375 467.161 357.308 484.815 340.977C501.111 326.007 514.692 313.758 543.21 313.758C571.729 313.758 585.309 326.007 601.605 340.977C619.259 357.308 639.63 375 679.013 375C718.395 375 738.766 357.308 756.42 340.977C772.716 326.007 786.296 313.758 814.815 313.758C843.333 313.758 856.914 326.007 873.21 340.977C890.864 357.308 911.235 375 950.617 375C990 375 1010.37 357.308 1028.02 340.977C1044.32 326.007 1057.9 313.758 1086.42 313.758V286.539C1047.04 286.539 1026.67 304.232 1009.01 320.563Z" fill="#0066FF"/>
</g>
</svg>
