<svg width="1088" height="376" viewBox="0 0 1088 376" fill="none" xmlns="http://www.w3.org/2000/svg">
<g opacity="0.02">
<path d="M59.1851 54.9373C76.8394 71.2685 97.2098 88.9607 136.592 88.9607C175.975 88.9607 196.346 71.2685 214 54.9373C230.296 39.967 243.876 27.7186 272.395 27.7186C300.913 27.7186 314.494 39.967 330.79 54.9373C348.444 71.2685 368.815 88.9607 408.197 88.9607C447.58 88.9607 467.951 71.2685 485.605 54.9373C501.901 39.967 515.481 27.7186 544 27.7186C572.518 27.7186 586.099 39.967 602.395 54.9373C620.049 71.2685 640.42 88.9607 679.802 88.9607C719.185 88.9607 739.556 71.2685 757.21 54.9373C773.506 39.967 787.086 27.7186 815.605 27.7186C844.123 27.7186 857.704 39.967 874 54.9373C891.654 71.2685 912.025 88.9607 951.407 88.9607C990.79 88.9607 1011.16 71.2685 1028.81 54.9373C1045.11 39.967 1058.69 27.7186 1087.21 27.7186H1087V0.499878H1087.21C1047.83 0.499878 1027.46 18.192 1009.8 34.5233C993.506 49.4935 979.926 61.742 951.407 61.742C922.889 61.742 909.309 49.4935 893.012 34.5233C875.358 18.192 854.988 0.499878 815.605 0.499878C776.222 0.499878 755.852 18.192 738.197 34.5233C721.901 49.4935 708.321 61.742 679.802 61.742C651.284 61.742 637.704 49.4935 621.407 34.5233C603.753 18.192 583.383 0.499878 544 0.499878C504.617 0.499878 484.247 18.192 466.592 34.5233C450.296 49.4935 436.716 61.742 408.197 61.742C379.679 61.742 366.099 49.4935 349.802 34.5233C332.148 18.192 311.778 0.499878 272.395 0.499878C233.012 0.499878 212.642 18.192 194.988 34.5233C178.691 49.4935 165.111 61.742 136.592 61.742C108.074 61.742 94.4937 49.4935 78.1974 34.5233C60.5431 18.192 40.1728 0.499878 0.790039 0.499878H0.999916V27.7186H0.790039C29.3086 27.7186 42.8888 39.967 59.1851 54.9373Z" fill="#0066FF"/>
<path d="M1009.8 177.793C993.506 192.763 979.926 205.012 951.407 205.012C922.889 205.012 909.309 192.763 893.012 177.793C875.358 161.462 854.988 143.77 815.605 143.77C776.222 143.77 755.852 161.462 738.197 177.793C721.901 192.763 708.321 205.012 679.802 205.012C651.284 205.012 637.704 192.763 621.407 177.793C603.753 161.462 583.383 143.77 544 143.77C504.617 143.77 484.247 161.462 466.592 177.793C450.296 192.763 436.716 205.012 408.197 205.012C379.679 205.012 366.099 192.763 349.802 177.793C332.148 161.462 311.778 143.77 272.395 143.77C233.012 143.77 212.642 161.462 194.988 177.793C178.691 192.763 165.111 205.012 136.592 205.012C108.074 205.012 94.4937 192.763 78.1974 177.793C60.5431 161.462 40.1728 143.77 0.790039 143.77H0.999916V170.988H0.790039C29.3086 170.988 42.8888 183.237 59.1851 198.207C76.8394 214.538 97.2098 232.231 136.592 232.231C175.975 232.231 196.346 214.538 214 198.207C230.296 183.237 243.876 170.988 272.395 170.988C300.913 170.988 314.494 183.237 330.79 198.207C348.444 214.538 368.815 232.231 408.197 232.231C447.58 232.231 467.951 214.538 485.605 198.207C501.901 183.237 515.481 170.988 544 170.988C572.518 170.988 586.099 183.237 602.395 198.207C620.049 214.538 640.42 232.231 679.802 232.231C719.185 232.231 739.556 214.538 757.21 198.207C773.506 183.237 787.086 170.988 815.605 170.988C844.123 170.988 857.704 183.237 874 198.207C891.654 214.538 912.025 232.231 951.407 232.231C990.79 232.231 1011.16 214.538 1028.81 198.207C1045.11 183.237 1058.69 170.988 1087.21 170.988H1087V143.77H1087.21C1047.83 143.77 1027.46 161.462 1009.8 177.793Z" fill="#0066FF"/>
<path d="M1009.8 321.063C993.506 336.033 979.926 348.281 951.407 348.281C922.889 348.281 909.309 336.033 893.012 321.063C875.358 304.731 854.988 287.039 815.605 287.039C776.222 287.039 755.852 304.731 738.197 321.063C721.901 336.033 708.321 348.281 679.802 348.281C651.284 348.281 637.704 336.033 621.407 321.063C603.753 304.731 583.383 287.039 544 287.039C504.617 287.039 484.247 304.731 466.592 321.063C450.296 336.033 436.716 348.281 408.197 348.281C379.679 348.281 366.099 336.033 349.802 321.063C332.148 304.731 311.778 287.039 272.395 287.039C233.012 287.039 212.642 304.731 194.988 321.063C178.691 336.033 165.111 348.281 136.592 348.281C108.074 348.281 94.4937 336.033 78.1974 321.063C60.5431 304.731 40.1728 287.039 0.790039 287.039H0.999916V314.258H0.790039C29.3086 314.258 42.8888 326.506 59.1851 341.477C76.8394 357.808 97.2098 375.5 136.592 375.5C175.975 375.5 196.346 357.808 214 341.477C230.296 326.506 243.876 314.258 272.395 314.258C300.913 314.258 314.494 326.506 330.79 341.477C348.444 357.808 368.815 375.5 408.197 375.5C447.58 375.5 467.951 357.808 485.605 341.477C501.901 326.506 515.481 314.258 544 314.258C572.518 314.258 586.099 326.506 602.395 341.477C620.049 357.808 640.42 375.5 679.802 375.5C719.185 375.5 739.556 357.808 757.21 341.477C773.506 326.506 787.086 314.258 815.605 314.258C844.123 314.258 857.704 326.506 874 341.477C891.654 357.808 912.025 375.5 951.407 375.5C990.79 375.5 1011.16 357.808 1028.81 341.477C1045.11 326.506 1058.69 314.258 1087.21 314.258H1087V287.039H1087.21C1047.83 287.039 1027.46 304.731 1009.8 321.063Z" fill="#0066FF"/>
</g>
</svg>
