<svg width="26" height="26" viewBox="0 0 26 26" fill="none" xmlns="http://www.w3.org/2000/svg">
<path d="M26 6.7065V5.6532C26 4.2162 24.8355 3.0474 23.4042 3.0474H23.2482V1.7514C23.2482 0.7854 22.4659 0 21.504 0H21.374C20.4124 0 19.6298 0.7854 19.6298 1.7511V3.0471H14.8093V1.7511C14.8093 0.7854 14.0267 0 13.0648 0H12.9352C11.9733 0 11.1907 0.7854 11.1907 1.7511V3.0471H6.37016V1.7511C6.37016 0.7854 5.58786 0 4.62597 0H4.49629C3.5344 0 2.7518 0.7854 2.7518 1.7511V3.0471H2.59582C1.16449 3.0471 0 4.2162 0 5.6529V6.7062L26 6.7065Z" fill="#001535"/>
<path d="M0 7.935V23.3942C0 24.8309 1.16449 26 2.59582 26H23.4042C24.8355 26 26 24.8309 26 23.3942V7.935H0ZM3.97545 13.7865V10.5447H8.97226V13.7865H3.97545ZM3.97545 18.5643V15.3222H8.97226V18.564L3.97545 18.5643ZM3.97545 23.3418V20.0997H8.97226V23.3415L3.97545 23.3418ZM10.5019 13.7865V10.5447H15.4984V13.7865H10.5019ZM10.5019 18.5643V15.3222H15.4984V18.564L10.5019 18.5643ZM10.5019 23.3418V20.0997H15.4984V23.3415L10.5019 23.3418ZM17.028 13.7865V10.5447H22.0245V13.7865H17.028ZM17.028 18.5643V15.3222H22.0245V18.564L17.028 18.5643Z" fill="#001535"/>
</svg>
