<svg width="20" height="20" viewBox="0 0 20 20" fill="none" xmlns="http://www.w3.org/2000/svg">
<g clip-path="url(#clip0)">
<path d="M20 5.15885V4.34862C20 3.24323 19.1042 2.34415 18.0032 2.34415H17.8832V1.34723C17.8832 0.604154 17.2815 0 16.5415 0H16.4416C15.7019 0 15.0999 0.604154 15.0999 1.347V2.34392H11.3918V1.347C11.3918 0.604154 10.7898 0 10.0499 0H9.95012C9.21021 0 8.6082 0.604154 8.6082 1.347V2.34392H4.90013V1.347C4.90013 0.604154 4.29836 0 3.55844 0H3.45868C2.71877 0 2.11677 0.604154 2.11677 1.347V2.34392H1.99678C0.895759 2.34392 0 3.24323 0 4.34838V5.15862L20 5.15885Z" fill="#DADEE6"/>
<path d="M0 6.10385V17.9955C0 19.1007 0.895759 20 1.99678 20H18.0032C19.1042 20 20 19.1007 20 17.9955V6.10385H0ZM3.05804 10.605V8.11131H6.90173V10.605H3.05804ZM3.05804 14.2802V11.7863H6.90173V14.28L3.05804 14.2802ZM3.05804 17.9552V15.4613H6.90173V17.955L3.05804 17.9552ZM8.07838 10.605V8.11131H11.9218V10.605H8.07838ZM8.07838 14.2802V11.7863H11.9218V14.28L8.07838 14.2802ZM8.07838 17.9552V15.4613H11.9218V17.955L8.07838 17.9552ZM13.0985 10.605V8.11131H16.942V10.605H13.0985ZM13.0985 14.2802V11.7863H16.942V14.28L13.0985 14.2802Z" fill="#DADEE6"/>
</g>
<defs>
<clipPath id="clip0">
<rect width="20" height="20" fill="white"/>
</clipPath>
</defs>
</svg>
