<svg width="30" height="26" viewBox="0 0 30 26" fill="none" xmlns="http://www.w3.org/2000/svg">
<path d="M27.12 8.51333C26.309 6.22578 24.8691 4.21344 22.9657 2.70749C21.0623 1.20155 18.7728 0.263114 16.36 0C14.2933 0.383333 12.94 2.22667 12.5267 3.96C12.2467 5.13333 12.36 6.52 13.2467 6.96C14.2967 7.49333 15.46 7.26 15.9333 6.74C16.0933 6.56333 16.2367 6.29667 15.9333 5.81C15.7511 5.67228 15.5403 5.57739 15.3163 5.53238C15.0924 5.48736 14.8613 5.49339 14.64 5.55L14.0767 3.47C15.7667 3.02 17.2633 3.90667 17.7433 4.65333C18.1143 5.1765 18.2954 5.81072 18.2566 6.45091C18.2178 7.09109 17.9615 7.6988 17.53 8.17333C17.1381 8.57416 16.6675 8.88948 16.1477 9.09945C15.6279 9.30942 15.0703 9.40948 14.51 9.39333C13.7391 9.39268 12.979 9.21235 12.29 8.86667C10.5933 8.01 9.87333 5.88333 10.4533 3.45333C10.7386 2.28033 11.2843 1.18661 12.05 0.253333C9.95378 0.755872 8.01661 1.77491 6.41496 3.21761C4.81332 4.66032 3.59809 6.48084 2.88 8.51333C1.28667 8.74667 0 10.6033 0 12.7767C0 14.95 1.28667 16.8033 2.88 17.0367C3.76064 19.5484 5.39991 21.7246 7.57115 23.2641C9.74239 24.8037 12.3383 25.6307 15 25.6307C17.6617 25.6307 20.2576 24.8037 22.4289 23.2641C24.6001 21.7246 26.2394 19.5484 27.12 17.0367C28.7133 16.8033 30 14.9467 30 12.7767C30 10.6067 28.7133 8.74667 27.12 8.51333ZM8.12 13.8033L6.21 12.84C6.62667 12.0067 7.81667 10.5967 9.64333 10.5967C11.47 10.5967 12.6433 12.0067 13.0767 12.84L11.16 13.8033C11.16 13.8033 10.5967 12.7467 9.64333 12.7467C8.69 12.7467 8.12667 13.8033 8.12 13.8033ZM15 22.4167C14.1519 22.4167 13.3228 22.1651 12.6178 21.6938C11.9127 21.2224 11.3633 20.5526 11.039 19.7689C10.7148 18.9852 10.6303 18.123 10.7962 17.2913C10.9621 16.4595 11.3711 15.6957 11.9712 15.0965C12.5714 14.4973 13.3358 14.0895 14.1678 13.9249C14.9998 13.7602 15.8619 13.8461 16.6451 14.1716C17.4282 14.497 18.0973 15.0475 18.5675 15.7533C19.0377 16.4591 19.288 17.2886 19.2867 18.1367C19.284 19.2721 18.8313 20.3602 18.0278 21.1625C17.2243 21.9648 16.1355 22.4158 15 22.4167ZM21.8733 13.8033C21.8733 13.8033 21.31 12.7467 20.3567 12.7467C19.4033 12.7467 18.84 13.8033 18.8367 13.8033L16.9233 12.84C17.34 12.0067 18.53 10.5967 20.3567 10.5967C22.1833 10.5967 23.3733 12.0067 23.79 12.84L21.8733 13.8033Z" fill="white"/>
</svg>
