<svg width="26" height="26" viewBox="0 0 26 26" fill="none" xmlns="http://www.w3.org/2000/svg">
<path d="M24.2667 0H1.73333C0.7774 0 0 0.7774 0 1.73333V13.8667C0 14.8226 0.7774 15.6 1.73333 15.6H24.2667C25.2226 15.6 26 14.8226 26 13.8667V1.73333C26 0.7774 25.2226 0 24.2667 0ZM3.718 3.718C4.03867 3.39733 4.61933 3.39733 4.94867 3.718C5.10467 3.88267 5.2 4.108 5.2 4.33333C5.2 4.55867 5.10467 4.784 4.94867 4.94867C4.784 5.10467 4.55867 5.2 4.33333 5.2C4.09847 5.2 3.8818 5.10467 3.718 4.94867C3.56113 4.784 3.46667 4.55867 3.46667 4.33333C3.46667 4.108 3.56113 3.88267 3.718 3.718ZM21.6667 12.1333H4.33333C3.85407 12.1333 3.46667 11.7451 3.46667 11.2667C3.46667 10.7883 3.85407 10.4 4.33333 10.4H21.6667C22.1459 10.4 22.5333 10.7883 22.5333 11.2667C22.5333 11.7451 22.1459 12.1333 21.6667 12.1333ZM21.6667 8.66667H4.33333C3.85407 8.66667 3.46667 8.2784 3.46667 7.8C3.46667 7.3216 3.85407 6.93333 4.33333 6.93333H21.6667C22.1459 6.93333 22.5333 7.3216 22.5333 7.8C22.5333 8.2784 22.1459 8.66667 21.6667 8.66667Z" fill="#001535"/>
<path d="M13 20.8C12.5207 20.8 12.1333 20.4117 12.1333 19.9333V18.2C12.1333 17.7216 12.5207 17.3333 13 17.3333C13.4793 17.3333 13.8667 17.7216 13.8667 18.2V19.9333C13.8667 20.4117 13.4793 20.8 13 20.8Z" fill="#001535"/>
<path d="M13 26C12.5207 26 12.1333 25.6117 12.1333 25.1333V23.4C12.1333 22.9216 12.5207 22.5333 13 22.5333C13.4793 22.5333 13.8667 22.9216 13.8667 23.4V25.1333C13.8667 25.6117 13.4793 26 13 26Z" fill="#001535"/>
<path d="M6.06667 24.2667C5.5874 24.2667 5.2 23.8784 5.2 23.4V18.2C5.2 17.7216 5.5874 17.3333 6.06667 17.3333C6.54593 17.3333 6.93333 17.7216 6.93333 18.2V23.4C6.93333 23.8784 6.54593 24.2667 6.06667 24.2667Z" fill="#001535"/>
<path d="M4.33333 26C2.89987 26 1.73333 24.8335 1.73333 23.4C1.73333 22.9216 2.12073 22.5333 2.6 22.5333C3.07927 22.5333 3.46667 22.9216 3.46667 23.4C3.46667 23.8775 3.85493 24.2667 4.33333 24.2667C4.81173 24.2667 5.2 23.8775 5.2 23.4C5.2 22.9216 5.5874 22.5333 6.06667 22.5333C6.54593 22.5333 6.93333 22.9216 6.93333 23.4C6.93333 24.8335 5.7668 26 4.33333 26Z" fill="#001535"/>
<path d="M19.9333 24.2667C19.4541 24.2667 19.0667 23.8784 19.0667 23.4V18.2C19.0667 17.7216 19.4541 17.3333 19.9333 17.3333C20.4126 17.3333 20.8 17.7216 20.8 18.2V23.4C20.8 23.8784 20.4126 24.2667 19.9333 24.2667Z" fill="#001535"/>
<path d="M21.6667 26C20.2332 26 19.0667 24.8335 19.0667 23.4C19.0667 22.9216 19.4541 22.5333 19.9333 22.5333C20.4126 22.5333 20.8 22.9216 20.8 23.4C20.8 23.8775 21.1883 24.2667 21.6667 24.2667C22.1451 24.2667 22.5333 23.8775 22.5333 23.4C22.5333 22.9216 22.9207 22.5333 23.4 22.5333C23.8793 22.5333 24.2667 22.9216 24.2667 23.4C24.2667 24.8335 23.1001 26 21.6667 26Z" fill="#001535"/>
<path d="M9.53333 22.5333C9.05407 22.5333 8.66667 22.1451 8.66667 21.6667V18.2C8.66667 17.7216 9.05407 17.3333 9.53333 17.3333C10.0126 17.3333 10.4 17.7216 10.4 18.2V21.6667C10.4 22.1451 10.0126 22.5333 9.53333 22.5333Z" fill="#001535"/>
<path d="M16.4667 22.5333C15.9874 22.5333 15.6 22.1451 15.6 21.6667V18.2C15.6 17.7216 15.9874 17.3333 16.4667 17.3333C16.9459 17.3333 17.3333 17.7216 17.3333 18.2V21.6667C17.3333 22.1451 16.9459 22.5333 16.4667 22.5333Z" fill="#001535"/>
</svg>
