<svg width="24" height="30" viewBox="0 0 24 30" fill="none" xmlns="http://www.w3.org/2000/svg">
<path d="M7.8125 0.78125V14.0625C7.8125 14.4769 7.64788 14.8743 7.35485 15.1674C7.06183 15.4604 6.6644 15.625 6.25 15.625H1.5625C1.1481 15.625 0.750672 15.4604 0.457646 15.1674C0.16462 14.8743 0 14.4769 0 14.0625V0.78125C0 0.57405 0.0823102 0.375336 0.228823 0.228823C0.375336 0.08231 0.574049 0 0.78125 0C0.98845 0 1.18716 0.08231 1.33368 0.228823C1.48019 0.375336 1.5625 0.57405 1.5625 0.78125V7.8125H3.125V0.78125C3.125 0.57405 3.20731 0.375336 3.35382 0.228823C3.50034 0.08231 3.69905 0 3.90625 0C4.11345 0 4.31216 0.08231 4.45868 0.228823C4.60519 0.375336 4.6875 0.57405 4.6875 0.78125V7.8125H6.25V0.78125C6.25 0.57405 6.33231 0.375336 6.47882 0.228823C6.62534 0.08231 6.82405 0 7.03125 0C7.23845 0 7.43716 0.08231 7.58368 0.228823C7.73019 0.375336 7.8125 0.57405 7.8125 0.78125ZM2.34375 28.4375C2.34375 28.8519 2.50837 29.2493 2.8014 29.5424C3.09442 29.8354 3.49185 30 3.90625 30C4.32065 30 4.71808 29.8354 5.0111 29.5424C5.30413 29.2493 5.46875 28.8519 5.46875 28.4375V17.1875H2.34375V28.4375ZM16.4062 28.4375C16.4062 28.8519 16.5709 29.2493 16.8639 29.5424C17.1569 29.8354 17.5543 30 17.9688 30C18.3832 30 18.7806 29.8354 19.0736 29.5424C19.3666 29.2493 19.5312 28.8519 19.5312 28.4375V17.1875H16.4062V28.4375ZM17.9688 0C14.9453 0 12.5 3.5 12.5 7.8125C12.5 11.4141 14.2109 14.5391 16.5312 15.625H19.4062C21.75 14.5391 23.4375 11.4141 23.4375 7.8125C23.4375 3.5 20.9922 0 17.9688 0Z" fill="#001535"/>
</svg>
