<svg width="28" height="24" viewBox="0 0 28 24" fill="none" xmlns="http://www.w3.org/2000/svg">
<path d="M7.01482 15.6555C3.13076 15.6555 0.666992 16.8906 0.666992 17.7327C0.666992 18.5748 3.13076 19.8379 7.01482 19.8379C10.8989 19.8379 13.3626 18.6029 13.3626 17.7327C13.3626 16.8625 10.8989 15.6555 7.01482 15.6555Z" fill="white"/>
<path d="M0.666992 19.6134V21.466C0.666992 22.3362 3.13076 23.5713 7.01482 23.5713C10.8989 23.5713 13.3626 22.3362 13.3626 21.466V19.6134C11.9134 20.5678 9.42061 21.045 7.01482 21.045C4.60902 21.045 2.11627 20.5678 0.666992 19.6134Z" fill="white"/>
<path d="M20.9858 4.87654C24.8699 4.87654 27.3337 3.61338 27.3337 2.77128C27.3337 1.92917 24.8699 0.666016 20.9858 0.666016C17.1018 0.666016 14.638 1.9011 14.638 2.77128C14.638 3.64145 17.1018 4.87654 20.9858 4.87654Z" fill="white"/>
<path d="M14.638 15.8801V17.7327C14.638 18.6029 17.1018 19.8379 20.9858 19.8379C24.8699 19.8379 27.3337 18.6029 27.3337 17.7327V15.8801C25.8844 16.8344 23.3916 17.3116 20.9858 17.3116C18.58 17.3116 16.0873 16.8064 14.638 15.8801Z" fill="white"/>
<path d="M14.638 19.6134V21.466C14.638 22.3362 17.1018 23.5713 20.9858 23.5713C24.8699 23.5713 27.3337 22.3362 27.3337 21.466V19.6134C25.8844 20.5678 23.3916 21.045 20.9858 21.045C18.58 21.073 16.0873 20.5678 14.638 19.6134Z" fill="white"/>
<path d="M14.638 4.65198V6.50461C14.638 7.37479 17.1018 8.60988 20.9858 8.60988C24.8699 8.60988 27.3337 7.37479 27.3337 6.50461V4.65198C25.8844 5.60637 23.3916 6.08356 20.9858 6.08356C18.58 6.08356 16.0873 5.5783 14.638 4.65198Z" fill="white"/>
<path d="M14.638 12.1467V13.9993C14.638 14.8695 17.1018 16.1046 20.9858 16.1046C24.8699 16.1046 27.3337 14.8415 27.3337 13.9993V12.1467C25.8844 13.1011 23.3916 13.5783 20.9858 13.5783C18.58 13.5783 16.0873 13.073 14.638 12.1467Z" fill="white"/>
<path d="M14.638 8.38531V10.2379C14.638 11.1081 17.1018 12.3432 20.9858 12.3432C24.8699 12.3432 27.3337 11.1081 27.3337 10.2379V8.38531C25.8844 9.3397 23.3916 9.81689 20.9858 9.81689C18.58 9.81689 16.0873 9.3397 14.638 8.38531Z" fill="white"/>
<path d="M3.0438 11.8379H4.23221V13.2695C4.23221 13.4099 4.37714 13.5502 4.55105 13.5502H5.88438C6.0583 13.5502 6.17424 13.4099 6.17424 13.2695V11.8379H8.98583C9.15975 11.8379 9.27569 11.6976 9.27569 11.5292V10.2379C9.27569 10.0976 9.15975 9.95724 8.98583 9.95724H6.17424V8.69409H8.20322C10.2902 8.69409 12.0003 7.00988 11.9134 4.98882C11.8264 3.05198 10.1163 1.53619 8.11627 1.53619H4.55105C4.37714 1.53619 4.23221 1.67654 4.23221 1.81689V6.81338H3.0438C2.86989 6.81338 2.72496 6.95374 2.72496 7.12216V8.41338C2.72496 8.58181 2.86989 8.69409 3.0438 8.69409H4.23221V9.95724H3.0438C2.86989 9.95724 2.72496 10.0976 2.72496 10.2379V11.5292C2.72496 11.6976 2.86989 11.8379 3.0438 11.8379ZM6.17424 3.38882H8.20322C9.18873 3.38882 9.97134 4.14672 9.97134 5.1011C9.97134 6.02742 9.18873 6.81338 8.20322 6.81338H6.17424V3.38882Z" fill="white"/>
</svg>
