<svg width="30" height="30" viewBox="0 0 30 30" fill="none" xmlns="http://www.w3.org/2000/svg">
<path fill-rule="evenodd" clip-rule="evenodd" d="M15 30C12.0333 30 9.13319 29.1203 6.66645 27.472C4.19972 25.8238 2.27713 23.4811 1.14181 20.7403C0.00649929 17.9994 -0.290551 14.9834 0.288227 12.0736C0.867006 9.16393 2.29562 6.49119 4.3934 4.3934C6.49119 2.29562 9.16393 0.867006 12.0736 0.288227C14.9834 -0.290551 17.9994 0.00649929 20.7403 1.14181C23.4811 2.27713 25.8238 4.19972 27.472 6.66645C29.1203 9.13319 30 12.0333 30 15C30 18.9782 28.4196 22.7936 25.6066 25.6066C22.7936 28.4196 18.9782 30 15 30ZM16.36 11.376C16.36 10.748 16.414 10.411 17.518 10.411H19V8H16.633C13.798 8 13.146 9.2 13.146 11.164V12.584H11.005V14.995H13.146V21.995H16.355V14.995H18.694L19.006 12.584H16.356L16.36 11.376Z" fill="white"/>
</svg>
