<svg width="34" height="40" viewBox="0 0 34 40" fill="none" xmlns="http://www.w3.org/2000/svg">
<path d="M17.0013 18.3864C22.0026 18.3864 26.0571 14.2705 26.0571 9.19321C26.0571 4.11594 22.0026 0 17.0013 0C11.9999 0 7.94546 4.11594 7.94546 9.19321C7.94546 14.2705 11.9999 18.3864 17.0013 18.3864Z" fill="#001535"/>
<path d="M22.0074 18.9171H11.9926C5.36901 18.9171 0 24.3671 0 31.0917V35C0 35 4.90739 40 16.9537 40C29 40 34 35 34 35V31.0917C34 24.3671 28.631 18.9171 22.0074 18.9171ZM23.5646 28.827L16.9537 35.5383L10.9177 29.4102H10.9162C10.9136 29.4081 10.9101 29.4019 10.906 29.4009C10.1601 28.6575 9.69498 27.6207 9.69498 26.4771C9.69498 24.2104 11.5017 22.3789 13.7295 22.3789C15.0771 22.3789 16.2654 23.0514 16.9972 24.0779C17.7331 23.0514 18.9213 22.3789 20.2665 22.3789C22.4968 22.3789 24.3045 24.2099 24.3045 26.4771C24.305 27.352 24.0272 28.1566 23.5646 28.827Z" fill="#001535"/>
</svg>
