<svg width="120" height="106" viewBox="0 0 120 106" fill="none" xmlns="http://www.w3.org/2000/svg">
<path d="M23.9686 5.9223C22.0033 7.88766 20.922 10.4989 20.922 13.2767C20.922 16.0545 22.0033 18.6672 23.9686 20.6311C25.2969 21.9579 26.9539 22.9018 28.7571 23.3578C29.5199 23.5506 29.9802 24.3236 29.7873 25.0849C29.6236 25.7293 29.045 26.1589 28.4093 26.1589C28.2939 26.1589 28.1755 26.1443 28.0601 26.1166C25.7586 25.5335 23.6486 24.3324 21.958 22.6432C19.4563 20.143 18.0784 16.8158 18.0784 13.2781C18.0784 9.74049 19.4563 6.41327 21.958 3.9131C23.935 1.93605 26.3884 0.721764 28.9514 0.258553C30.4727 -0.0163893 31.0141 0.0486064 31.6635 0.055442C34.9405 0.0899326 38.1923 1.41731 40.6881 3.9131C42.8434 6.06842 44.1965 8.9222 44.5004 11.9499C44.5779 12.7316 44.0095 13.4286 43.2277 13.5061C42.443 13.5777 41.7504 13.0151 41.6715 12.2334C41.4348 9.85739 40.371 7.61733 38.6774 5.92376C34.624 1.86737 28.0236 1.86737 23.9686 5.9223ZM12.1005 49.6907C12.6879 49.5738 13.1672 49.1149 13.2432 48.4881C13.3367 47.7092 12.7814 47.0005 12.0011 46.907C9.67045 46.6265 7.55751 45.5992 5.89316 43.9349C3.9278 41.9695 2.84502 39.3583 2.84502 36.5819C2.84502 33.8041 3.9278 31.1914 5.89316 29.2275C7.85852 27.2622 10.4697 26.1809 13.2476 26.1809C16.0239 26.1809 18.6381 27.2622 20.602 29.2275C21.3647 29.9903 21.9989 30.8583 22.4884 31.8052C22.8479 32.5022 23.7056 32.771 24.4041 32.416C25.1026 32.055 25.3743 31.1973 25.0149 30.5003C24.3895 29.2918 23.5799 28.1871 22.6111 27.2183C20.1095 24.7167 16.7823 23.3388 13.2461 23.3388C12.8603 23.3388 12.4789 23.3621 12.099 23.3943C10.8134 23.5031 10.4376 23.5795 9.28469 23.9393C7.26672 24.5691 5.4168 25.6767 3.88104 27.214C1.37941 29.7141 0 33.0414 0 36.579C0 40.1152 1.37941 43.4424 3.88104 45.9426C5.43141 47.493 7.2901 48.605 9.33875 49.2333C10.5892 49.6168 11.2344 49.6907 12.1005 49.6907ZM83.9801 35.6146C81.1774 33.2766 77.387 33.6142 74.5464 36.4548C74.2468 36.7544 73.7777 37.276 73.5323 37.5931L76.9589 42.1799C77.4308 42.8039 77.425 43.5243 76.9457 43.8881C76.465 44.2519 75.9082 43.9217 75.4362 43.2978L71.222 37.6706C68.6415 36.015 64.7049 37.3798 62.2252 39.8595C62.0601 40.0246 61.9344 40.2029 61.7869 40.3753L67.1934 47.4433C67.6654 48.0672 67.6596 48.8738 67.1788 49.2377C66.6981 49.6015 65.9192 49.3897 65.4473 48.7657L37.1534 12.8778C34.6999 10.4243 32.4599 8.48967 28.3684 11.5305C25.4372 13.7077 25.6783 16.5805 27.8073 19.617C28.6227 20.7801 43.5112 41.7445 50.0444 50.4973C51.8388 52.901 52.2508 53.6696 51.8168 54.1708C51.2806 54.7918 47.8627 52.4203 47.8627 52.4203L20.3652 33.5937C14.627 30.1189 11.7293 32.2406 10.4376 34.1738C9.16194 36.0793 7.78692 39.8902 12.9202 44.0152C22.4928 51.5362 59.6754 77.5651 59.6754 77.5651C60.3212 78.0049 58.6715 78.8992 58.0256 78.4594L47.1336 70.1654C47.0547 72.914 47.0108 78.4755 48.9645 80.8733C50.7165 83.0257 53.9824 86.2609 56.7295 88.5667C58.6788 90.2019 71.7583 96.0994 83.3737 98.9064C84.2607 99.168 89.9507 104.987 90.5425 105.384C91.8868 106.289 93.671 106.176 95.1907 104.658L118.448 81.3935C120.384 79.4574 120.483 77.85 118.889 75.8832C118.097 74.9057 112.465 69.0403 112.166 68.5025C106.23 57.0596 86.3473 37.5902 83.9801 35.6146Z" fill="#001535"/>
</svg>
