<svg width="51" height="50" viewBox="0 0 51 50" fill="none" xmlns="http://www.w3.org/2000/svg">
<path d="M26 48C26 48.5523 25.5523 49 25 49C24.4478 49 24 48.5523 24 48L24.0001 1C24.0001 0.447716 24.4478 -4.82822e-08 25 0C25.5523 4.82822e-08 26 0.447716 26 1L26 48Z" fill="white"/>
<path d="M49.7111 24.2891C49.3206 23.8986 48.6874 23.8986 48.2969 24.2891L24.2929 48.2926C23.9024 48.6832 23.9024 49.3163 24.2929 49.7068C24.6835 50.0974 25.3166 50.0974 25.7071 49.7068L49.7111 25.7034C50.1016 25.3128 50.1016 24.6797 49.7111 24.2891Z" fill="white"/>
<path d="M0.292893 24.2892C0.683418 23.8987 1.31658 23.8987 1.70711 24.2892L25.7111 48.2927C26.1016 48.6832 26.1016 49.3164 25.7111 49.7069C25.3205 50.0975 24.6874 50.0975 24.2968 49.7069L0.292893 25.7034C-0.0976311 25.3129 -0.0976311 24.6798 0.292893 24.2892Z" fill="white"/>
</svg>
