<svg width="28" height="25" viewBox="0 0 28 25" fill="none" xmlns="http://www.w3.org/2000/svg">
<path d="M24.2274 10.3614C23.9326 9.89572 23.2842 9.83751 22.9011 10.245C22.6653 10.5069 22.6358 10.8852 22.8126 11.2054C23.0484 11.5837 23.1663 12.0203 23.1663 12.4859C23.1663 12.9516 23.0189 13.3881 22.8126 13.7665C22.6358 14.0575 22.6653 14.465 22.9011 14.7269C23.2547 15.1344 23.9326 15.0762 24.2274 14.6105C24.6105 13.9993 24.8463 13.2717 24.8463 12.4859C24.8463 11.7001 24.6105 10.9725 24.2274 10.3614Z" fill="#001535"/>
<path d="M26.2905 7.82936C25.9663 7.45101 25.3768 7.45101 25.0526 7.80026C24.7874 8.09129 24.7874 8.55695 25.0232 8.84799C25.8484 9.83751 26.3495 11.089 26.3495 12.4568C26.3495 13.8247 25.8484 15.1053 25.0232 16.0657C24.7579 16.3567 24.7874 16.8224 25.0526 17.1134C25.3768 17.4918 25.9663 17.4918 26.2905 17.0843C27.3516 15.8329 28 14.203 28 12.4277C28 10.7106 27.3516 9.10992 26.2905 7.82936Z" fill="#001535"/>
<path d="M5.09895 10.245C4.71579 9.83751 4.06737 9.89572 3.77263 10.3614C3.38947 10.9725 3.15368 11.7001 3.15368 12.4859C3.15368 13.2717 3.38947 13.9993 3.77263 14.6105C4.06737 15.0762 4.71579 15.1344 5.09895 14.7269C5.33474 14.465 5.36421 14.0866 5.18737 13.7665C4.95158 13.3881 4.83368 12.9516 4.83368 12.4859C4.83368 12.0203 4.98105 11.5837 5.18737 11.2054C5.33474 10.8852 5.33474 10.5069 5.09895 10.245Z" fill="#001535"/>
<path d="M1.65053 12.4859C1.65053 11.1181 2.15158 9.83751 2.97684 8.87709C3.24211 8.58605 3.21263 8.12039 2.94737 7.82936C2.62316 7.45101 2.03368 7.45101 1.70947 7.85846C0.648421 9.10992 0 10.7397 0 12.515C0 14.2904 0.648421 15.8911 1.70947 17.1716C2.03368 17.55 2.62316 17.55 2.94737 17.2007C3.21263 16.9097 3.21263 16.444 2.97684 16.153C2.15158 15.1344 1.65053 13.8538 1.65053 12.4859Z" fill="#001535"/>
<path d="M19.2168 0.000488281L8.78316 0.000488281C7.66316 0.000488281 6.74947 0.9027 6.74947 2.00864L6.74947 22.9923C6.74947 24.0983 7.66316 25.0005 8.78316 25.0005H19.2168C20.3368 25.0005 21.2505 24.0983 21.2505 22.9923V1.97953C21.2505 0.873596 20.3368 0.000488281 19.2168 0.000488281ZM11.8484 1.6885L16.1516 1.6885C16.3874 1.6885 16.5937 1.89222 16.5937 2.12505C16.5937 2.35788 16.3874 2.56161 16.1516 2.56161L11.8484 2.56161C11.6126 2.56161 11.4063 2.35788 11.4063 2.12505C11.4063 1.89222 11.6126 1.6885 11.8484 1.6885ZM14 23.3416C13.3811 23.3416 12.8505 22.8468 12.8505 22.2065C12.8505 21.5954 13.3516 21.0715 14 21.0715C14.6189 21.0715 15.1495 21.5663 15.1495 22.2065C15.1495 22.8468 14.6189 23.3416 14 23.3416ZM8.31158 19.6454L8.31158 4.04589H19.7179V19.6454H8.31158Z" fill="#001535"/>
</svg>
