<svg width="24" height="17" viewBox="0 0 24 17" fill="none" xmlns="http://www.w3.org/2000/svg">
<path d="M21.658 0.000488281H2.37221C1.04747 0.000488281 0 1.04618 0 2.30102V14.7C0 15.9847 1.07828 17.0005 2.37221 17.0005H21.6271C22.9519 17.0005 23.9994 15.9548 23.9994 14.7V2.30102C24.0302 1.04618 22.9519 0.000488281 21.658 0.000488281ZM21.7196 4.12351L16.9752 8.75444L20.7953 12.4592C21.0418 12.6982 21.0418 13.0567 20.7953 13.2957C20.6721 13.4153 20.5181 13.475 20.364 13.475C20.21 13.475 20.0559 13.4153 19.9327 13.2957L16.0817 9.591L13.7403 11.8616C13.2782 12.3397 12.6312 12.5488 12.0151 12.5488C11.3989 12.5488 10.752 12.3098 10.2898 11.8616L7.97925 9.53124L3.82018 13.5945C3.69695 13.6841 3.54291 13.7439 3.38887 13.7439C3.23483 13.7439 3.08079 13.6841 2.95756 13.5646C2.7111 13.3256 2.7111 12.9671 2.95756 12.7281L7.11662 8.69469L2.31059 3.85462C2.06413 3.6156 2.09494 3.2272 2.3414 3.01806C2.58786 2.77905 2.98837 2.80892 3.20402 3.04794L11.1525 11.055C11.6146 11.5031 12.3848 11.5031 12.8469 11.055L20.8569 3.28696C21.1034 3.04794 21.4731 3.04794 21.7196 3.28696C21.966 3.52597 21.966 3.8845 21.7196 4.12351Z" fill="#001535"/>
</svg>
