<svg width="30" height="30" viewBox="0 0 30 30" fill="none" xmlns="http://www.w3.org/2000/svg">
<path d="M15 17.2006C16.2144 17.2006 17.2006 16.2144 17.2006 15C17.2006 13.7856 16.2144 12.7994 15 12.7994C13.785 12.7994 12.7994 13.7856 12.7994 15C12.7994 16.2144 13.785 17.2006 15 17.2006ZM19.7513 10.7556C20.4144 10.7556 20.95 10.2188 20.95 9.5575C20.95 8.895 20.4144 8.35938 19.7513 8.35938C19.09 8.35938 18.5538 8.895 18.5538 9.5575C18.5538 10.2188 19.09 10.7556 19.7513 10.7556ZM19.4012 15C19.4012 17.4306 17.4306 19.4013 15 19.4013C12.5694 19.4013 10.5988 17.4306 10.5988 15C10.5988 14.4887 10.6906 13.9988 10.8512 13.5413H8.72375V19.5069C8.72375 20.5369 9.56688 21.38 10.5975 21.38H19.0906C20.1206 21.38 20.9637 20.5369 20.9637 19.5069V11.6663H17.8688C18.8056 12.4738 19.4012 13.6662 19.4012 15ZM15 0C6.71562 0 0 6.71562 0 15C0 23.2844 6.71562 30 15 30C23.2844 30 30 23.2844 30 15C30 6.71562 23.2844 0 15 0ZM23.0087 21.0825C23.0087 22.4569 21.8844 23.5825 20.5087 23.5825H9.17812C7.80312 23.5825 6.67812 22.4569 6.67812 21.0825V9.75062C6.67812 8.375 7.80312 7.25062 9.17812 7.25062H20.51C21.8844 7.25062 23.01 8.375 23.01 9.75062V21.0825H23.0087Z" fill="white"/>
</svg>
