<svg width="30" height="20" viewBox="0 0 30 20" fill="none" xmlns="http://www.w3.org/2000/svg">
<path d="M15 3.68215L9.98848 11.7829L2.38479 7.01549L6.35945 20H23.6406L27.6152 7.01549L20.0115 11.7829L15 3.68215Z" fill="white"/>
<path d="M15 2.71318C15.6681 2.71318 16.2097 2.10581 16.2097 1.35659C16.2097 0.607366 15.6681 0 15 0C14.3319 0 13.7903 0.607366 13.7903 1.35659C13.7903 2.10581 14.3319 2.71318 15 2.71318Z" fill="white"/>
<path d="M28.7903 6.74419C29.4584 6.74419 30 6.13683 30 5.3876C30 4.63838 29.4584 4.03101 28.7903 4.03101C28.1222 4.03101 27.5806 4.63838 27.5806 5.3876C27.5806 6.13683 28.1222 6.74419 28.7903 6.74419Z" fill="white"/>
<path d="M1.20968 6.74419C1.87776 6.74419 2.41935 6.13683 2.41935 5.3876C2.41935 4.63838 1.87776 4.03101 1.20968 4.03101C0.541591 4.03101 0 4.63838 0 5.3876C0 6.13683 0.541591 6.74419 1.20968 6.74419Z" fill="white"/>
</svg>
