<svg width="50" height="50" viewBox="0 0 50 50" fill="none" xmlns="http://www.w3.org/2000/svg">
<mask id="mask0" mask-type="alpha" maskUnits="userSpaceOnUse" x="0" y="0" width="50" height="50">
<rect width="50" height="50" fill="#C4C4C4"/>
</mask>
<g mask="url(#mask0)">
<path d="M73.8765 36.6923C72.6914 37.8769 71.7037 38.8462 69.6296 38.8462C67.5556 38.8462 66.5679 37.8769 65.3827 36.6923C64.0988 35.4 62.6173 34 59.7531 34C56.8889 34 55.4074 35.4 54.1235 36.6923C52.9383 37.8769 51.9506 38.8462 49.8765 38.8462C47.8025 38.8462 46.8148 37.8769 45.6296 36.6923C44.3457 35.4 42.8642 34 40 34C37.1358 34 35.6543 35.4 34.3704 36.6923C33.1852 37.8769 32.1975 38.8462 30.1235 38.8462C28.0494 38.8462 27.0617 37.8769 25.8765 36.6923C24.5926 35.4 23.1111 34 20.2469 34C17.3827 34 15.9012 35.4 14.6173 36.6923C13.4321 37.8769 12.4444 38.8462 10.3704 38.8462C8.2963 38.8462 7.30864 37.8769 6.12346 36.6923C4.83951 35.4 3.35803 34 0.493827 34H0V36.1538H0.493827C2.5679 36.1538 3.55556 37.1231 4.74074 38.3077C6.02469 39.6 7.50617 41 10.3704 41C13.2346 41 14.7161 39.6 16 38.3077C17.1852 37.1231 18.1728 36.1538 20.2469 36.1538C22.321 36.1538 23.3086 37.1231 24.4938 38.3077C25.7778 39.6 27.2593 41 30.1235 41C32.9877 41 34.4691 39.6 35.7531 38.3077C36.9383 37.1231 37.9259 36.1538 40 36.1538C42.0741 36.1538 43.0617 37.1231 44.2469 38.3077C45.5309 39.6 47.0123 41 49.8765 41C52.7407 41 54.2222 39.6 55.5062 38.3077C56.6914 37.1231 57.679 36.1538 59.7531 36.1538C61.8272 36.1538 62.8148 37.1231 64 38.3077C65.284 39.6 66.7654 41 69.6296 41C72.4938 41 73.9753 39.6 75.2593 38.3077C76.4445 37.1231 77.4321 36.1538 79.5062 36.1538H80V34H79.5062C76.642 34 75.1605 35.4 73.8765 36.6923Z" fill="white"/>
<path d="M73.8765 24.6923C72.6914 25.8769 71.7037 26.8462 69.6296 26.8462C67.5556 26.8462 66.5679 25.8769 65.3827 24.6923C64.0988 23.4 62.6173 22 59.7531 22C56.8889 22 55.4074 23.4 54.1235 24.6923C52.9383 25.8769 51.9506 26.8462 49.8765 26.8462C47.8025 26.8462 46.8148 25.8769 45.6296 24.6923C44.3457 23.4 42.8642 22 40 22C37.1358 22 35.6543 23.4 34.3704 24.6923C33.1852 25.8769 32.1975 26.8462 30.1235 26.8462C28.0494 26.8462 27.0617 25.8769 25.8765 24.6923C24.5926 23.4 23.1111 22 20.2469 22C17.3827 22 15.9012 23.4 14.6173 24.6923C13.4321 25.8769 12.4444 26.8462 10.3704 26.8462C8.2963 26.8462 7.30864 25.8769 6.12346 24.6923C4.83951 23.4 3.35803 22 0.493827 22H0V24.1538H0.493827C2.5679 24.1538 3.55556 25.1231 4.74074 26.3077C6.02469 27.6 7.50617 29 10.3704 29C13.2346 29 14.7161 27.6 16 26.3077C17.1852 25.1231 18.1728 24.1538 20.2469 24.1538C22.321 24.1538 23.3086 25.1231 24.4938 26.3077C25.7778 27.6 27.2593 29 30.1235 29C32.9877 29 34.4691 27.6 35.7531 26.3077C36.9383 25.1231 37.9259 24.1538 40 24.1538C42.0741 24.1538 43.0617 25.1231 44.2469 26.3077C45.5309 27.6 47.0123 29 49.8765 29C52.7407 29 54.2222 27.6 55.5062 26.3077C56.6914 25.1231 57.679 24.1538 59.7531 24.1538C61.8272 24.1538 62.8148 25.1231 64 26.3077C65.284 27.6 66.7654 29 69.6296 29C72.4938 29 73.9753 27.6 75.2593 26.3077C76.4445 25.1231 77.4321 24.1538 79.5062 24.1538H80V22H79.5062C76.642 22 75.1605 23.4 73.8765 24.6923Z" fill="white"/>
<path d="M73.8765 12.6923C72.6914 13.8769 71.7037 14.8462 69.6296 14.8462C67.5556 14.8462 66.5679 13.8769 65.3827 12.6923C64.0988 11.4 62.6173 10 59.7531 10C56.8889 10 55.4074 11.4 54.1235 12.6923C52.9383 13.8769 51.9506 14.8462 49.8765 14.8462C47.8025 14.8462 46.8148 13.8769 45.6296 12.6923C44.3457 11.4 42.8642 10 40 10C37.1358 10 35.6543 11.4 34.3704 12.6923C33.1852 13.8769 32.1975 14.8462 30.1235 14.8462C28.0494 14.8462 27.0617 13.8769 25.8765 12.6923C24.5926 11.4 23.1111 10 20.2469 10C17.3827 10 15.9012 11.4 14.6173 12.6923C13.4321 13.8769 12.4444 14.8462 10.3704 14.8462C8.2963 14.8462 7.30864 13.8769 6.12346 12.6923C4.83951 11.4 3.35803 10 0.493827 10H0V12.1538H0.493827C2.5679 12.1538 3.55556 13.1231 4.74074 14.3077C6.02469 15.6 7.50617 17 10.3704 17C13.2346 17 14.7161 15.6 16 14.3077C17.1852 13.1231 18.1728 12.1538 20.2469 12.1538C22.321 12.1538 23.3086 13.1231 24.4938 14.3077C25.7778 15.6 27.2593 17 30.1235 17C32.9877 17 34.4691 15.6 35.7531 14.3077C36.9383 13.1231 37.9259 12.1538 40 12.1538C42.0741 12.1538 43.0617 13.1231 44.2469 14.3077C45.5309 15.6 47.0123 17 49.8765 17C52.7407 17 54.2222 15.6 55.5062 14.3077C56.6914 13.1231 57.679 12.1538 59.7531 12.1538C61.8272 12.1538 62.8148 13.1231 64 14.3077C65.284 15.6 66.7654 17 69.6296 17C72.4938 17 73.9753 15.6 75.2593 14.3077C76.4445 13.1231 77.4321 12.1538 79.5062 12.1538H80V10H79.5062C76.642 10 75.1605 11.4 73.8765 12.6923Z" fill="white"/>
</g>
</svg>
