<svg width="80" height="31" viewBox="0 0 80 31" fill="none" xmlns="http://www.w3.org/2000/svg">
<g clip-path="url(#clip0)">
<path d="M74.3096 26.69C73.1047 27.88 72.1023 28.85 70.0063 28.85C67.9104 28.85 66.908 27.85 65.7031 26.69C65.0159 25.8506 64.1473 25.1736 63.161 24.7085C62.1747 24.2434 61.0955 24.002 60.0025 24.002C58.9095 24.002 57.8304 24.2434 56.8441 24.7085C55.8577 25.1736 54.9892 25.8506 54.302 26.69C53.1072 27.88 52.1048 28.85 50.0089 28.85C47.9129 28.85 46.9105 27.85 45.7056 26.69C45.0184 25.8506 44.1499 25.1736 43.1635 24.7085C42.1772 24.2434 41.098 24.002 40.0051 24.002C38.9121 24.002 37.8329 24.2434 36.8466 24.7085C35.8603 25.1736 34.9917 25.8506 34.3045 26.69C33.1097 27.88 32.1073 28.85 30.0013 28.85C27.8952 28.85 26.9029 27.85 25.7081 26.69C25.0209 25.8506 24.1524 25.1736 23.1661 24.7085C22.1797 24.2434 21.1006 24.002 20.0076 24.002C18.9146 24.002 17.8355 24.2434 16.8491 24.7085C15.8628 25.1736 14.9942 25.8506 14.3071 26.69C13.1021 27.88 12.0997 28.85 10.0038 28.85C7.90786 28.85 6.90546 27.85 5.70054 26.69C5.01115 25.8529 4.14221 25.1774 3.15641 24.7122C2.17061 24.247 1.09254 24.0038 0 24V24V26.15C2.10606 26.15 3.10847 27.15 4.30325 28.31C4.99044 29.1494 5.85899 29.8264 6.84533 30.2915C7.83166 30.7566 8.91081 30.998 10.0038 30.998C11.0968 30.998 12.1759 30.7566 13.1623 30.2915C14.1486 29.8264 15.0172 29.1494 15.7043 28.31C16.9093 27.12 17.9015 26.15 20.0076 26.15C22.1137 26.15 23.1059 27.15 24.3007 28.31C24.9879 29.1494 25.8565 29.8264 26.8428 30.2915C27.8291 30.7566 28.9083 30.998 30.0013 30.998C31.0943 30.998 32.1734 30.7566 33.1597 30.2915C34.1461 29.8264 35.0146 29.1494 35.7018 28.31C36.9067 27.12 37.9091 26.15 40.0051 26.15C42.101 26.15 43.1034 27.15 44.3083 28.31C44.9955 29.1494 45.8641 29.8264 46.8504 30.2915C47.8367 30.7566 48.9159 30.998 50.0089 30.998C51.1018 30.998 52.181 30.7566 53.1673 30.2915C54.1537 29.8264 55.0222 29.1494 55.7094 28.31C56.9042 27.12 57.9066 26.15 60.0025 26.15C62.0985 26.15 63.111 27.15 64.3058 28.31C64.993 29.1494 65.8615 29.8264 66.8479 30.2915C67.8342 30.7566 68.9133 30.998 70.0063 30.998C71.0993 30.998 72.1785 30.7566 73.1648 30.2915C74.1511 29.8264 75.0197 29.1494 75.7069 28.31C76.9017 27.12 77.9041 26.15 80.0101 26.15V24C78.9176 24.0038 77.8395 24.247 76.8537 24.7122C75.8679 25.1774 74.999 25.8529 74.3096 26.69V26.69Z" fill="white"/>
<path d="M74.3096 14.69C73.1047 15.88 72.1023 16.85 70.0063 16.85C67.9104 16.85 66.908 15.85 65.7031 14.69C65.0159 13.8506 64.1473 13.1736 63.161 12.7085C62.1747 12.2434 61.0955 12.002 60.0025 12.002C58.9095 12.002 57.8304 12.2434 56.8441 12.7085C55.8577 13.1736 54.9892 13.8506 54.302 14.69C53.1072 15.88 52.1048 16.85 50.0089 16.85C47.9129 16.85 46.9105 15.85 45.7056 14.69C45.0184 13.8506 44.1499 13.1736 43.1635 12.7085C42.1772 12.2434 41.098 12.002 40.0051 12.002C38.9121 12.002 37.8329 12.2434 36.8466 12.7085C35.8603 13.1736 34.9917 13.8506 34.3045 14.69C33.1097 15.88 32.1073 16.85 30.0013 16.85C27.8952 16.85 26.9029 15.85 25.7081 14.69C25.0209 13.8506 24.1524 13.1736 23.1661 12.7085C22.1797 12.2434 21.1006 12.002 20.0076 12.002C18.9146 12.002 17.8355 12.2434 16.8491 12.7085C15.8628 13.1736 14.9942 13.8506 14.3071 14.69C13.1021 15.88 12.0997 16.85 10.0038 16.85C7.90786 16.85 6.90546 15.85 5.70054 14.69C5.01115 13.8529 4.14221 13.1774 3.15641 12.7122C2.17061 12.247 1.09254 12.0038 0 12V14.15C2.10606 14.15 3.10847 15.15 4.30325 16.31C4.99044 17.1494 5.85899 17.8264 6.84533 18.2915C7.83166 18.7566 8.91081 18.998 10.0038 18.998C11.0968 18.998 12.1759 18.7566 13.1623 18.2915C14.1486 17.8264 15.0172 17.1494 15.7043 16.31C16.9093 15.12 17.9015 14.15 20.0076 14.15C22.1137 14.15 23.1059 15.15 24.3007 16.31C24.9879 17.1494 25.8565 17.8264 26.8428 18.2915C27.8291 18.7566 28.9083 18.998 30.0013 18.998C31.0943 18.998 32.1734 18.7566 33.1597 18.2915C34.1461 17.8264 35.0146 17.1494 35.7018 16.31C36.9067 15.12 37.9091 14.15 40.0051 14.15C42.101 14.15 43.1034 15.15 44.3083 16.31C44.9955 17.1494 45.8641 17.8264 46.8504 18.2915C47.8367 18.7566 48.9159 18.998 50.0089 18.998C51.1018 18.998 52.181 18.7566 53.1673 18.2915C54.1537 17.8264 55.0222 17.1494 55.7094 16.31C56.9042 15.12 57.9066 14.15 60.0025 14.15C62.0985 14.15 63.111 15.15 64.3058 16.31C64.993 17.1494 65.8615 17.8264 66.8479 18.2915C67.8342 18.7566 68.9133 18.998 70.0063 18.998C71.0993 18.998 72.1785 18.7566 73.1648 18.2915C74.1511 17.8264 75.0197 17.1494 75.7069 16.31C76.9017 15.12 77.9041 14.15 80.0101 14.15V12C78.9176 12.0038 77.8395 12.247 76.8537 12.7122C75.8679 13.1774 74.999 13.8529 74.3096 14.69V14.69Z" fill="white"/>
<path d="M74.3096 2.69C73.1047 3.88 72.1023 4.85 70.0063 4.85C67.9104 4.85 66.908 3.85 65.7031 2.69C65.0159 1.85059 64.1473 1.17356 63.161 0.708468C62.1747 0.243378 61.0955 0.00199956 60.0025 0.00199956C58.9095 0.00199956 57.8304 0.243378 56.8441 0.708468C55.8577 1.17356 54.9892 1.85059 54.302 2.69C53.1072 3.88 52.1554 4.85 50.0089 4.85C47.8623 4.85 46.9105 3.85 45.7056 2.69C45.0184 1.85059 44.1499 1.17356 43.1635 0.708468C42.1772 0.243378 41.098 0.00199956 40.0051 0.00199956C38.9121 0.00199956 37.8329 0.243378 36.8466 0.708468C35.8603 1.17356 34.9917 1.85059 34.3045 2.69C33.1097 3.88 32.1073 4.85 30.0013 4.85C27.8952 4.85 26.9029 3.85 25.7081 2.69C25.0209 1.85059 24.1524 1.17356 23.1661 0.708468C22.1797 0.243378 21.1006 0.00199956 20.0076 0.00199956C18.9146 0.00199956 17.8355 0.243378 16.8491 0.708468C15.8628 1.17356 14.9942 1.85059 14.3071 2.69C13.1021 3.88 12.0997 4.85 10.0038 4.85C7.90786 4.85 6.90546 3.85 5.70054 2.69C5.01115 1.85291 4.14221 1.1774 3.15641 0.712211C2.17061 0.247027 1.09254 0.00377214 0 0V0V2.15C2.10606 2.15 3.10847 3.15 4.30325 4.31C4.99453 5.14497 5.86386 5.81899 6.84924 6.28397C7.83461 6.74895 8.91174 6.99344 10.0038 7C11.0961 6.99483 12.1737 6.75096 13.1593 6.28587C14.1449 5.82079 15.014 5.14603 15.7043 4.31C16.9093 3.12 17.9015 2.15 20.0076 2.15C22.1137 2.15 23.1059 3.15 24.3007 4.31C24.992 5.14497 25.8613 5.81899 26.8467 6.28397C27.8321 6.74895 28.9092 6.99344 30.0013 7C31.0938 6.99623 32.1719 6.75297 33.1577 6.28779C34.1435 5.8226 35.0124 5.14709 35.7018 4.31C36.9067 3.12 37.9091 2.15 40.0051 2.15C42.101 2.15 43.1034 3.15 44.3083 4.31C44.9977 5.14709 45.8667 5.8226 46.8525 6.28779C47.8383 6.75297 48.9163 6.99623 50.0089 7C51.1009 6.99344 52.178 6.74895 53.1634 6.28397C54.1488 5.81899 55.0181 5.14497 55.7094 4.31C56.9042 3.12 57.9066 2.15 60.0025 2.15C62.0985 2.15 63.111 3.15 64.3058 4.31C64.9961 5.14603 65.8653 5.82079 66.8509 6.28587C67.8364 6.75096 68.914 6.99483 70.0063 7C71.0986 6.99483 72.1762 6.75096 73.1618 6.28587C74.1474 5.82079 75.0165 5.14603 75.7069 4.31C76.9017 3.12 77.9041 2.15 80.0101 2.15V0C78.9176 0.00377214 77.8395 0.247027 76.8537 0.712211C75.8679 1.1774 74.999 1.85291 74.3096 2.69V2.69Z" fill="white"/>
</g>
<defs>
<clipPath id="clip0">
<rect width="80" height="31" fill="white"/>
</clipPath>
</defs>
</svg>
