<svg width="20" height="20" viewBox="0 0 20 20" fill="none" xmlns="http://www.w3.org/2000/svg">
<path fill-rule="evenodd" clip-rule="evenodd" d="M15.5557 1.6853C13.9112 0.586489 11.9778 0 10 0C7.34784 0 4.80429 1.05356 2.92892 2.92892C1.05356 4.80429 0 7.34784 0 10C0 11.9778 0.586489 13.9112 1.6853 15.5557C2.78412 17.2002 4.3459 18.4819 6.17316 19.2388C8.00042 19.9957 10.0111 20.1937 11.9509 19.8079C13.8907 19.422 15.6726 18.4696 17.0711 17.0711C18.4696 15.6726 19.422 13.8907 19.8079 11.9509C20.1937 10.0111 19.9957 8.00042 19.2388 6.17316C18.4819 4.3459 17.2002 2.78412 15.5557 1.6853ZM12.522 5.98801L14.011 7.478L11.4895 9.9995L14.011 12.521L12.522 14.011L10 11.489L7.478 14.011L5.98901 12.521L8.51051 9.9995L5.98901 7.478L7.478 5.98801L10 8.51001L12.522 5.98801Z" fill="white"/>
</svg>
