<svg width="90" height="91" viewBox="0 0 90 91" fill="none" xmlns="http://www.w3.org/2000/svg">
<circle cx="45" cy="45.998" r="45" fill="white"/>
<path fill-rule="evenodd" clip-rule="evenodd" d="M42.4631 41.2378L60.6342 47.0258C62.0501 47.4983 62.2861 49.5064 61.1062 50.2151L55.7965 53.5226L64.292 62.1455C65.236 63.0905 65.236 64.508 64.292 65.3348C63.4661 66.1617 62.0501 66.2798 61.1062 65.3348L52.6106 56.7119L49.3068 62.0274C48.4808 63.3267 46.5929 63.0905 46.1209 61.673L40.2212 43.4821C39.8673 42.0647 41.1652 40.7653 42.4631 41.2378Z" fill="#001535"/>
<path d="M30.8997 34.2686C30.1917 33.5598 30.1917 32.4967 30.8997 31.9061C31.6077 31.1974 32.6696 31.1974 33.2596 31.9061L37.6254 36.1585C38.2153 36.8673 38.2153 37.9304 37.6254 38.521C36.9174 39.2297 35.8555 39.2297 35.2655 38.521L30.8997 34.2686Z" fill="#001535"/>
<path d="M43.4071 27.6537C43.4071 26.7087 44.115 26 45.059 26C46.003 26 46.7109 26.7087 46.7109 27.6537V33.7961C46.7109 34.7411 46.003 35.4498 45.059 35.4498C44.115 35.4498 43.4071 34.7411 43.4071 33.7961V27.6537Z" fill="#001535"/>
<path d="M26.7699 47.7346C25.826 47.7346 25 47.0258 25 46.0808C25 45.1359 25.826 44.309 26.7699 44.309H32.7876C33.7316 44.309 34.5575 45.1359 34.5575 46.0808C34.5575 46.9077 33.7316 47.7346 32.7876 47.7346H26.7699Z" fill="#001535"/>
</svg>
