<svg width="90" height="91" viewBox="0 0 90 91" fill="none" xmlns="http://www.w3.org/2000/svg">
<circle cx="45" cy="45.998" r="45" fill="white"/>
<path d="M38.7641 61H32.1625V39.9844L25.6781 41.8789V36.8789L38.1586 32.5625H38.7641V61ZM63.8844 49.3789C63.8844 53.2201 63.0185 56.1823 61.2867 58.2656C59.568 60.349 57.1396 61.3906 54.0016 61.3906C50.8375 61.3906 48.3896 60.3424 46.6578 58.2461C44.926 56.1497 44.0602 53.194 44.0602 49.3789V44.1836C44.0602 40.3424 44.9195 37.3802 46.6383 35.2969C48.3701 33.2135 50.8115 32.1719 53.9625 32.1719C57.1135 32.1719 59.5549 33.2201 61.2867 35.3164C63.0185 37.4128 63.8844 40.375 63.8844 44.2031V49.3789ZM57.3023 43.3438C57.3023 41.2995 57.0354 39.776 56.5016 38.7734C55.9677 37.7578 55.1214 37.25 53.9625 37.25C52.8297 37.25 52.0029 37.7188 51.482 38.6562C50.9742 39.5938 50.7008 41.013 50.6617 42.9141V50.1797C50.6617 52.3021 50.9286 53.8581 51.4625 54.8477C51.9964 55.8242 52.8427 56.3125 54.0016 56.3125C55.1214 56.3125 55.9482 55.8372 56.482 54.8867C57.0159 53.9232 57.2893 52.4193 57.3023 50.375V43.3438Z" fill="#001535"/>
</svg>
