<svg width="90" height="91" viewBox="0 0 90 91" fill="none" xmlns="http://www.w3.org/2000/svg">
<circle cx="45" cy="45.998" r="45" fill="white"/>
<path d="M34.5217 51.4842C28.6957 51.4842 25 53.3368 25 54.6C25 55.8632 28.6957 57.7579 34.5217 57.7579C40.3478 57.7579 44.0435 55.9053 44.0435 54.6C44.0435 53.2947 40.3478 51.4842 34.5217 51.4842Z" fill="#001535"/>
<path d="M25 57.4211V60.2C25 61.5053 28.6957 63.3579 34.5217 63.3579C40.3478 63.3579 44.0435 61.5053 44.0435 60.2V57.4211C41.8696 58.8526 38.1304 59.5684 34.5217 59.5684C30.913 59.5684 27.1739 58.8526 25 57.4211Z" fill="#001535"/>
<path d="M55.4783 35.3158C61.3043 35.3158 65 33.4211 65 32.1579C65 30.8947 61.3043 29 55.4783 29C49.6522 29 45.9565 30.8526 45.9565 32.1579C45.9565 33.4632 49.6522 35.3158 55.4783 35.3158Z" fill="#001535"/>
<path d="M45.9565 51.8211V54.6C45.9565 55.9053 49.6522 57.7579 55.4783 57.7579C61.3043 57.7579 65 55.9053 65 54.6V51.8211C62.8261 53.2526 59.087 53.9684 55.4783 53.9684C51.8696 53.9684 48.1304 53.2105 45.9565 51.8211Z" fill="#001535"/>
<path d="M45.9565 57.4211V60.2C45.9565 61.5053 49.6522 63.3579 55.4783 63.3579C61.3043 63.3579 65 61.5053 65 60.2V57.4211C62.8261 58.8526 59.087 59.5684 55.4783 59.5684C51.8696 59.6105 48.1304 58.8526 45.9565 57.4211Z" fill="#001535"/>
<path d="M45.9565 34.9789V37.7579C45.9565 39.0632 49.6522 40.9158 55.4783 40.9158C61.3043 40.9158 65 39.0632 65 37.7579V34.9789C62.8261 36.4105 59.087 37.1263 55.4783 37.1263C51.8696 37.1263 48.1304 36.3684 45.9565 34.9789Z" fill="#001535"/>
<path d="M45.9565 46.2211V49C45.9565 50.3053 49.6522 52.1579 55.4783 52.1579C61.3043 52.1579 65 50.2632 65 49V46.2211C62.8261 47.6526 59.087 48.3684 55.4783 48.3684C51.8696 48.3684 48.1304 47.6105 45.9565 46.2211Z" fill="#001535"/>
<path d="M45.9565 40.5789V43.3579C45.9565 44.6632 49.6522 46.5158 55.4783 46.5158C61.3043 46.5158 65 44.6632 65 43.3579V40.5789C62.8261 42.0105 59.087 42.7263 55.4783 42.7263C51.8696 42.7263 48.1304 42.0105 45.9565 40.5789Z" fill="#001535"/>
<path d="M28.5652 45.7579H30.3478V47.9053C30.3478 48.1158 30.5652 48.3263 30.8261 48.3263H32.8261C33.087 48.3263 33.2609 48.1158 33.2609 47.9053V45.7579H37.4783C37.7391 45.7579 37.913 45.5474 37.913 45.2947V43.3579C37.913 43.1474 37.7391 42.9368 37.4783 42.9368H33.2609V41.0421H36.3043C39.4348 41.0421 42 38.5158 41.8696 35.4842C41.7391 32.5789 39.1739 30.3053 36.1739 30.3053H30.8261C30.5652 30.3053 30.3478 30.5158 30.3478 30.7263V38.2211H28.5652C28.3043 38.2211 28.087 38.4316 28.087 38.6842V40.6211C28.087 40.8737 28.3043 41.0421 28.5652 41.0421H30.3478V42.9368H28.5652C28.3043 42.9368 28.087 43.1474 28.087 43.3579V45.2947C28.087 45.5474 28.3043 45.7579 28.5652 45.7579ZM33.2609 33.0842H36.3043C37.7826 33.0842 38.9565 34.2211 38.9565 35.6526C38.9565 37.0421 37.7826 38.2211 36.3043 38.2211H33.2609V33.0842Z" fill="#001535"/>
</svg>
