<svg width="90" height="91" viewBox="0 0 90 91" fill="none" xmlns="http://www.w3.org/2000/svg">
<circle cx="45" cy="45.998" r="45" fill="white"/>
<path d="M45.0013 44.3864C50.0026 44.3864 54.0571 40.2705 54.0571 35.1932C54.0571 30.1159 50.0026 26 45.0013 26C39.9999 26 35.9455 30.1159 35.9455 35.1932C35.9455 40.2705 39.9999 44.3864 45.0013 44.3864Z" fill="#001535"/>
<path d="M50.0074 44.9171H39.9926C33.369 44.9171 28 50.3671 28 57.0917V61C28 61 32.9074 66 44.9537 66C57 66 62 61 62 61V57.0917C62 50.3671 56.631 44.9171 50.0074 44.9171ZM51.5646 54.827L44.9537 61.5383L38.9177 55.4102H38.9162C38.9136 55.4081 38.9101 55.4019 38.906 55.4009C38.1601 54.6575 37.695 53.6207 37.695 52.4771C37.695 50.2104 39.5017 48.3789 41.7295 48.3789C43.0771 48.3789 44.2654 49.0514 44.9972 50.0779C45.7331 49.0514 46.9213 48.3789 48.2665 48.3789C50.4968 48.3789 52.3045 50.2099 52.3045 52.4771C52.305 53.352 52.0272 54.1566 51.5646 54.827Z" fill="#001535"/>
</svg>
