<svg width="90" height="91" viewBox="0 0 90 91" fill="none" xmlns="http://www.w3.org/2000/svg">
<circle cx="45" cy="45.998" r="45" fill="white"/>
<path d="M63.0873 41.2295H51.5836C51.5836 41.2295 51.5836 41.2295 52.0784 39.0728C52.5732 36.9162 52.8206 32.911 52.2639 30.1382C51.7073 27.3653 49.1097 26.7492 48.1201 26.133C47.1305 25.5168 45.6462 27.2421 45.6462 27.2421C45.6462 27.2421 45.5843 27.8583 45.7699 32.2332C45.9554 36.6081 36.6164 45.4195 36.6164 45.4195L36.369 45.6044C36.369 45.6044 36.0598 61.317 36.369 62.3645C36.7401 63.4737 39.6469 64.2131 39.6469 64.2131H59.8094C59.8094 64.2131 61.8504 63.412 62.9018 61.9948C64.015 60.5776 63.3347 58.7907 63.3347 58.7907C63.3347 58.7907 64.5098 58.0513 65.0665 56.8805C65.6231 55.7098 65.0665 53.3066 65.0665 53.3066C65.0665 53.3066 66.1797 52.444 66.489 51.3349C66.7982 50.2257 65.9942 48.3156 65.9942 48.3156C65.9942 48.3156 66.6745 47.5145 66.9837 45.1114C67.293 42.7083 63.0873 41.2295 63.0873 41.2295Z" fill="#001535"/>
<path d="M30.6788 44.1255H25.1028C23.9277 44.1255 23 45.0498 23 46.2821V63.8434C23 65.0141 23.9277 66 25.1028 66H30.6788C31.8539 66 32.7817 65.0141 32.7817 63.8434V46.2205C32.7817 45.0498 31.8539 44.1255 30.6788 44.1255ZM29.3182 61.7483C28.3905 61.7483 27.6483 61.0089 27.6483 60.0846C27.6483 59.1604 28.3905 58.4209 29.3182 58.4209C30.2459 58.4209 30.9881 59.1604 30.9881 60.0846C30.9881 61.0089 30.2459 61.7483 29.3182 61.7483Z" fill="#001535"/>
</svg>
