<svg width="121" height="121" viewBox="0 0 121 121" fill="none" xmlns="http://www.w3.org/2000/svg">
<g opacity="0.1">
<path d="M111.77 100.036C109.985 101.659 108.497 102.987 105.373 102.987C102.249 102.987 100.762 101.659 98.9766 100.036C97.0427 98.2654 94.8113 96.3473 90.4972 96.3473C86.1832 96.3473 83.9518 98.2654 82.0179 100.036C80.2328 101.659 78.7452 102.987 75.6212 102.987C72.4972 102.987 71.0096 101.659 69.2245 100.036C67.2906 98.2654 65.0592 96.3473 60.7451 96.3473C56.4311 96.3473 54.1997 98.2654 52.2658 100.036C50.4806 101.659 48.993 102.987 45.8691 102.987C42.7451 102.987 41.2575 101.659 39.4724 100.036C37.5385 98.2654 35.3071 96.3473 30.993 96.3473C26.6789 96.3473 24.4475 98.2654 22.5136 100.036C20.7285 101.659 19.2409 102.987 16.1169 102.987C12.993 102.987 11.5054 101.659 9.72022 100.036C7.78634 98.2654 5.55493 96.3473 1.24087 96.3473H0.497065V99.2982H1.24087C4.36484 99.2982 5.85245 100.626 7.63758 102.249C9.57146 104.02 11.8029 105.938 16.1169 105.938C20.431 105.938 22.6624 104.02 24.5963 102.249C26.3814 100.626 27.869 99.2982 30.993 99.2982C34.117 99.2982 35.6046 100.626 37.3897 102.249C39.3236 104.02 41.555 105.938 45.8691 105.938C50.1831 105.938 52.4145 104.02 54.3484 102.249C56.1335 100.626 57.6211 99.2982 60.7451 99.2982C63.8691 99.2982 65.3567 100.626 67.1418 102.249C69.0757 104.02 71.3071 105.938 75.6212 105.938C79.9352 105.938 82.1667 104.02 84.1005 102.249C85.8857 100.626 87.3733 99.2982 90.4972 99.2982C93.6212 99.2982 95.1088 100.626 96.894 102.249C98.8278 104.02 101.059 105.938 105.373 105.938C109.687 105.938 111.919 104.02 113.853 102.249C115.638 100.626 117.125 99.2982 120.249 99.2982H120.993V96.3473H120.249C115.935 96.3473 113.704 98.2654 111.77 100.036Z" fill="#0066FF"/>
<path d="M111.769 114.102C109.984 115.725 108.497 117.053 105.373 117.053C102.249 117.053 100.761 115.725 98.976 114.102C97.0421 112.331 94.8107 110.413 90.4966 110.413C86.1826 110.413 83.9512 112.331 82.0173 114.102C80.2322 115.725 78.7446 117.053 75.6206 117.053C72.4966 117.053 71.009 115.725 69.2239 114.102C67.29 112.331 65.0586 110.413 60.7445 110.413C56.4305 110.413 54.1991 112.331 52.2652 114.102C50.48 115.725 48.9924 117.053 45.8685 117.053C42.7445 117.053 41.2569 115.725 39.4718 114.102C37.5379 112.331 35.3065 110.413 30.9924 110.413C26.6783 110.413 24.4469 112.331 22.513 114.102C20.7279 115.725 19.2403 117.053 16.1163 117.053C12.9924 117.053 11.5048 115.725 9.71963 114.102C7.78574 112.331 5.55433 110.413 1.24027 110.413H0.496467V113.364H1.24027C4.36424 113.364 5.85185 114.692 7.63698 116.315C9.57087 118.086 11.8023 120.004 16.1163 120.004C20.4304 120.004 22.6618 118.086 24.5957 116.315C26.3808 114.692 27.8684 113.364 30.9924 113.364C34.1164 113.364 35.604 114.692 37.3891 116.315C39.323 118.086 41.5544 120.004 45.8685 120.004C50.1825 120.004 52.4139 118.086 54.3478 116.315C56.1329 114.692 57.6205 113.364 60.7445 113.364C63.8685 113.364 65.3561 114.692 67.1412 116.315C69.0751 118.086 71.3065 120.004 75.6206 120.004C79.9346 120.004 82.166 118.086 84.0999 116.315C85.8851 114.692 87.3727 113.364 90.4966 113.364C93.6206 113.364 95.1082 114.692 96.8934 116.315C98.8272 118.086 101.059 120.004 105.373 120.004C109.687 120.004 111.918 118.086 113.852 116.315C115.637 114.692 117.125 113.364 120.249 113.364H120.993V110.413H120.249C115.935 110.413 113.703 112.331 111.769 114.102Z" fill="#0066FF"/>
<path d="M104.926 75.9695C104.926 80.0892 101.587 83.4288 97.4671 83.4288C93.3475 83.4288 90.0078 80.0892 90.0078 75.9695C90.0078 71.8499 93.3475 68.5103 97.4671 68.5103C101.587 68.5103 104.926 71.8499 104.926 75.9695Z" fill="#0066FF"/>
<path d="M15.5084 33.5986C15.5084 37.5608 15.8547 41.2629 17.6202 44.7848C18.9444 47.4263 19.9713 48.0763 21.382 51.3678C20.0578 54.0093 20.2281 55.743 17.1384 57.9443C14.0487 60.1455 12.3297 62.3978 10.9589 66.1768C9.82137 69.3129 9.63477 72.7416 10.0762 74.6736C10.4494 76.3073 14.469 75.8621 15.5084 76.9016C16.697 78.0902 16.5063 80.4673 14.7596 80.4673H9.41102C8.22079 80.2535 7.47531 79.5649 7.03392 78.6845C6.60193 76.9402 6.43963 75.6693 6.43963 72.1473C6.43963 69.3187 5.84534 65.0159 6.54504 60.0133C7.24474 55.0108 8.81673 51.4096 8.81673 45.9987C8.81673 41.2444 9.41102 37.6787 10.0053 35.3016C8.22245 37.6787 7.66694 39.3965 6.2945 42.8437C4.91508 46.3085 4.08438 50.5568 3.43325 64.4158C3.34632 66.2661 3.46816 66.2044 3.46816 67.393C3.46816 68.5816 2.38521 68.5816 2.38521 68.5816C2.38521 68.5816 0.37363 68.8703 0.49663 67.393C0.603855 66.1052 1.30441 64.7963 1.66769 63.095C2.05737 61.2702 1.87504 62.2486 2.38503 58.3709C3.29141 51.4793 2.87387 50.9441 4.65677 40.6501C6.43967 30.3562 12.2279 22.6616 14.7596 20.4444C17.7934 17.7875 20.2252 15.75 24.2682 14.5015C30.2614 12.6509 36.4944 13.1808 40.9082 14.5015C46.2049 16.2625 51.3508 17.0031 58.1426 16.2844C62.9753 15.773 68.9717 14.6854 70.0283 13.7875C74.7825 9.74725 75.3768 11.5301 77.1597 9.15296C79.3883 6.18153 82.5082 7.3701 84.8854 4.99296C86.1461 3.73228 89.6397 2.34114 89.6397 1.90089C90.5225 1.46064 92.34 1.0204 94.9883 1.90089C95.7653 0.238666 97.4151 -0.355626 101.525 0.238666C101.967 0.678912 104.228 -0.740585 104.669 0.580152C105.11 1.0204 105.552 1.46064 105.552 1.90089C106.927 1.40328 109.399 3.55617 108.522 3.66236C110.74 3.67695 111.446 4.0613 113.529 10.2932C113.529 10.7334 115.704 12.4668 115.704 12.907C116.145 13.3473 116.145 13.3473 116.145 13.7875C116.145 14.2278 116.587 15.1083 117.028 15.9888C119.676 19.0705 121 22.5648 121 22.5648C121 23.8855 120.559 24.766 119.676 25.2063C119.676 26.527 118.793 27.4075 117.911 28.7282C115.664 29.9777 115.177 29.6364 114.473 29.6364C113.769 29.6364 113.586 31.3806 112.223 31.7358C109.852 32.3533 107.759 29.8123 107.759 29.8123L106.874 32.3301C106.874 32.3301 106.415 31.5599 105.091 29.3587C106.203 31.5761 105.072 34.5171 105.091 37.0844C105.11 39.6517 104.191 35.1256 103.308 32.9244C102.867 31.6037 103.11 34.113 102.714 35.3016C101.525 38.8673 101.525 43.9342 101.525 42.4035C99.2612 41.2743 99.7902 32.368 99.1483 37.0844C99.1483 40.4827 98.554 42.6128 98.554 45.9987C97.4847 44.9321 97.2139 43.4378 96.1769 42.4035C95.5826 44.8101 96.1769 46.3657 94.9883 50.753C94.5767 47.1873 94.926 43.9426 93.4923 41.0827C92.654 44.4274 92.2978 47.2814 92.0169 52.5359L89.6397 41.0827C89.6397 41.0827 90.669 49.9011 90.5382 54.3187C86.509 48.7125 86.033 49.7555 84.2647 43.8387C84.2647 48.3698 85.2848 51.7974 87.8632 55.6549C88.7459 56.9756 90.5934 59.3709 92.0169 60.2206C93.1424 61.0703 95.1279 61.1859 96.8934 61.6261C99.7426 62.3366 101.236 62.7337 101.525 64.3806C101.814 66.0275 100.592 66.474 99.1886 66.2165C97.1027 65.8338 95.5839 66.3118 93.4923 66.3118C92.6096 66.3118 91.2694 65.5692 90.5382 64.1106C90.0968 63.2301 88.6625 61.617 86.033 60.7206C80.6844 58.8975 80.1311 57.8844 75.3768 55.6549C75.3768 55.6549 74.2132 59.5731 73.3304 61.7743C72.0675 64.9234 70.6914 67.2638 70.6821 71.0195C70.6782 72.5764 70.6821 74.1012 71.1235 74.9817C72.0062 76.3024 73.3304 76.3024 73.3304 76.3024C73.3304 76.3024 76.4049 76.3024 77.1597 77.6232C77.8379 78.8099 77.0929 80.4673 75.8431 80.4673H69.4339C68.2735 80.4673 67.0568 78.0902 67.0568 78.0902C67.0568 78.0902 66.7103 75.2451 66.4625 73.3359C65.3037 64.4072 64.6797 55.6549 64.6797 49.7555C62.8968 47.7815 48.0397 39.4616 40.9082 42.8437C39.7197 41.8387 37.9368 41.523 37.9368 42.8437C38.8196 46.8059 38.8023 49.9163 36.1539 54.3187C33.5056 58.7212 31.5526 62.6548 31.9939 66.617C32.383 70.1092 32.1432 69.9252 34.3711 72.1473C35.9705 73.7425 36.2244 73.9668 37.3425 74.5245C38.2253 74.9647 39.366 75.8501 40.314 75.713C43.2854 75.8622 44.474 76.9016 44.474 78.0902C44.9154 79.8512 43.4929 80.4778 42.6911 80.4673C40.7814 80.4423 41.2824 80.4673 39.1253 80.4673C37.8012 80.4673 36.6951 80.2646 36.2537 79.8244C34.0468 77.6232 32.7171 76.5984 31.3997 75.1187C27.088 70.276 22.4737 69.805 23.6739 66.2045C24.4406 63.9044 24.8625 62.0444 24.3362 59.5731C23.4534 53.8499 22.1293 49.8877 19.9223 47.2462C17.7154 44.6047 15.9498 40.2023 15.5084 33.5986Z" fill="#0066FF"/>
</g>
</svg>
