<svg width="28" height="30" viewBox="0 0 28 30" fill="none" xmlns="http://www.w3.org/2000/svg">
<path fill-rule="evenodd" clip-rule="evenodd" d="M13.8058 0C15.6447 0 17.1355 1.51479 17.1355 3.38283C17.1355 5.25129 15.6447 6.76608 13.8058 6.76608C11.9669 6.76608 10.4761 5.25129 10.4761 3.38283C10.4761 1.51479 11.9669 0 13.8058 0V0ZM22.8025 0C24.6414 0 26.1318 1.51479 26.1318 3.38283C26.1318 5.25129 24.6414 6.76608 22.8025 6.76608C20.9636 6.76608 19.4727 5.25129 19.4727 3.38283C19.4727 1.51479 20.9636 0 22.8025 0V0ZM25.8391 19.8507V28.2792C25.8391 29.2256 25.077 30 24.1455 30H21.8478C20.9163 30 20.1542 29.2256 20.1542 28.2792V19.8507C19.6763 19.8507 19.2859 19.6505 18.9744 19.3344C19.5114 18.4935 19.7532 17.3506 19.7532 16.472V9.2484C19.7532 8.62503 19.5248 8.05377 19.1491 7.61696C19.318 7.55905 19.4988 7.52761 19.6865 7.52761H26.3064C27.2379 7.52761 28 8.30196 28 9.2484V16.472C28 17.818 27.3613 19.8507 25.8391 19.8507ZM4.80956 0C6.64806 0 8.13888 1.51479 8.13888 3.38283C8.13888 5.25129 6.64806 6.76608 4.80956 6.76608C2.97066 6.76608 1.47983 5.25129 1.47983 3.38283C1.47983 1.51479 2.97066 0 4.80956 0V0ZM7.84577 19.8507V28.2792C7.84577 29.2256 7.08407 30 6.15261 30H3.85449C2.92303 30 2.16133 29.2256 2.16133 28.2792V19.8507C0.638751 19.8507 0 17.818 0 16.472V9.2484C0 8.30196 0.762104 7.52761 1.69357 7.52761H8.31353C8.50121 7.52761 8.68196 7.55905 8.85091 7.61696C8.47515 8.05377 8.24677 8.62503 8.24677 9.2484V16.472C8.24677 17.3506 8.48899 18.4935 9.02556 19.3344C8.71412 19.6505 8.32371 19.8507 7.84577 19.8507ZM16.8428 19.8507V28.2792C16.8428 29.2256 16.0807 30 15.1493 30H12.8516C11.9201 30 11.158 29.2256 11.158 28.2792V19.8507C9.63541 19.8507 8.99666 17.818 8.99666 16.472V9.2484C8.99666 8.30196 9.75876 7.52761 10.6902 7.52761H17.3102C18.2416 7.52761 19.0038 8.30196 19.0038 9.2484V16.472C19.0038 17.818 18.3654 19.8507 16.8428 19.8507Z" fill="#001535"/>
</svg>
