<svg width="22" height="30" viewBox="0 0 22 30" fill="none" xmlns="http://www.w3.org/2000/svg">
<path fill-rule="evenodd" clip-rule="evenodd" d="M11.0521 0C15.0142 0 18.2464 3.3574 18.2464 7.47292C18.2464 11.6968 15.0142 15.0542 11.0521 15.0542C6.98578 15.0542 3.75355 11.6968 3.75355 7.47292C3.75355 3.3574 6.98578 0 11.0521 0ZM10.3223 16.3538H11.6777C12.1991 16.3538 12.7204 17.0036 12.7204 17.7617C12.7204 18.9531 12.5118 19.1697 11.6777 19.7112L12.3033 25.9928L13.4502 22.9603L15.5355 17.4368C19.1848 18.6282 22 21.5523 22 25.9928V27C22 27 19.0312 30 11 30C2.96875 30 0 27 0 27V25.9928C0 21.5523 2.81517 18.6282 6.46445 17.4368L8.54976 22.9603L9.69668 25.9928L10.3223 19.7112C9.48815 19.1697 9.27962 18.9531 9.27962 17.7617C9.27962 17.0036 9.80095 16.3538 10.3223 16.3538Z" fill="white"/>
</svg>
