<svg width="120" height="30" viewBox="0 0 120 30" fill="none" xmlns="http://www.w3.org/2000/svg">
<path d="M41.4875 29.7162C41.1275 29.6559 40.7675 29.5814 40.4075 29.4974C40.3024 28.9352 40.245 28.3653 40.236 27.7937C40.2429 27.24 40.3002 26.6881 40.4075 26.1445C40.8705 26.291 41.3422 26.4095 41.8199 26.4994C42.7129 26.668 43.6202 26.7528 44.5294 26.7526C45.7089 26.8664 46.8873 26.5274 47.8197 25.8062C48.1698 25.433 48.4384 24.9927 48.6085 24.5127C48.7786 24.0328 48.8468 23.5235 48.8086 23.0165V22.7361H48.7894C48.3069 22.8981 47.8127 23.0238 47.311 23.1123C46.7573 23.2174 46.1948 23.2701 45.631 23.2696C44.4963 23.3047 43.3659 23.1181 42.3047 22.7207C41.4774 22.3942 40.7484 21.8648 40.1868 21.1826C39.6375 20.4858 39.2514 19.6778 39.0564 18.8165C38.8212 17.8078 38.7063 16.7755 38.7143 15.7405V6.51242C39.3539 6.40803 40.0006 6.35147 40.6488 6.34323C41.2922 6.35034 41.9341 6.40691 42.5687 6.51242V15.1489C42.5569 15.9018 42.6144 16.6542 42.7403 17.3968C42.8245 17.9324 43.0188 18.4453 43.3115 18.9041C43.5724 19.2856 43.9449 19.5798 44.3795 19.7476C44.9086 19.9401 45.4704 20.0304 46.0342 20.0138C46.5582 20.0121 47.0806 19.9594 47.5941 19.8564C47.9916 19.7845 48.3847 19.6905 48.7714 19.5749V6.51834C49.4153 6.41391 50.0662 6.35735 50.7188 6.34915C51.3575 6.35644 51.9946 6.41301 52.6244 6.51834V20.526V22.4403C52.6244 25.0431 51.9596 26.9443 50.6132 28.1546C48.8564 29.4958 46.6557 30.1433 44.4407 29.9706C43.4507 29.9696 42.4626 29.8845 41.4875 29.7162ZM82.0667 23.4116C80.7644 23.4398 79.4686 23.2216 78.2496 22.7692C77.2335 22.3817 76.3213 21.7693 75.5833 20.9792C74.8733 20.1997 74.3413 19.279 74.0233 18.2794C73.6725 17.1787 73.4992 16.0305 73.5098 14.8768C73.4826 13.5827 73.7032 12.295 74.1601 11.0815C74.5463 10.0707 75.1361 9.14745 75.894 8.36749C76.5967 7.65928 77.442 7.10395 78.3755 6.73721C79.2855 6.37518 80.2575 6.1884 81.2388 6.18704C82.2326 6.13208 83.2265 6.29162 84.1512 6.65453C85.076 7.01744 85.9093 7.57497 86.5929 8.28821C88.0006 10.0707 88.685 12.3059 88.5128 14.5585C88.5128 14.768 88.5129 15.0022 88.4973 15.2684C88.4817 15.5346 88.4696 15.7641 88.4492 15.9783H77.4744C77.4914 16.5554 77.6255 17.1234 77.8687 17.6486C78.1119 18.1739 78.4593 18.6458 78.8904 19.0366C79.9303 19.8223 81.2253 20.2068 82.5323 20.1179C83.395 20.1266 84.2559 20.0429 85.1001 19.8683C85.7236 19.7469 86.335 19.5707 86.9266 19.3418C87.0316 19.8936 87.089 20.4533 87.0981 21.0147C87.0907 21.5605 87.0334 22.1046 86.9266 22.6403C86.9266 22.6403 86.0866 22.9218 85.2887 23.091C84.7813 23.2051 84.2664 23.2842 83.7478 23.3276C83.1933 23.3906 82.6357 23.4222 82.0775 23.4222L82.0667 23.4116ZM79.7136 9.68778C79.2818 9.89683 78.8976 10.1903 78.5844 10.5503C78.2716 10.9119 78.0277 11.3263 77.8645 11.7736C77.6969 12.227 77.5798 12.6972 77.5153 13.1756H84.673C84.6749 12.6705 84.6002 12.1681 84.4511 11.6849C84.3158 11.2399 84.0944 10.8249 83.7994 10.4627C83.5135 10.1184 83.1547 9.8398 82.7483 9.6464C82.285 9.43724 81.7793 9.33568 81.27 9.34947H81.2123C80.6937 9.3479 80.1816 9.46154 79.7136 9.68193V9.68778ZM110.61 23.3761C109.597 23.402 108.589 23.2415 107.635 22.9029C106.891 22.6259 106.236 22.1544 105.742 21.5388C105.256 20.8978 104.919 20.159 104.756 19.3749C104.552 18.4212 104.455 17.4485 104.465 16.474V2.67331C105.115 2.5697 105.771 2.51315 106.428 2.50413C107.059 2.51078 107.689 2.56736 108.311 2.67331V6.59048H111.978C112.085 7.04665 112.142 7.51257 112.15 7.98059C112.141 8.45831 112.084 8.93397 111.978 9.40031H108.311V16.4527C108.228 17.4356 108.45 18.42 108.948 19.2755C109.213 19.5767 109.548 19.8106 109.924 19.9574C110.3 20.1042 110.706 20.1596 111.108 20.1191C111.736 20.1292 112.362 20.0556 112.969 19.9002C113.405 19.7846 113.833 19.646 114.253 19.4849C114.359 20.0196 114.416 20.5624 114.425 21.107C114.418 21.6372 114.36 22.1655 114.253 22.6852C113.895 22.8467 113.522 22.9777 113.141 23.0768C112.366 23.2738 111.568 23.3737 110.767 23.3738L110.61 23.3761ZM27.2763 23.0662C26.5159 22.9074 25.7962 22.5978 25.1609 22.1563C24.5739 21.7338 24.1033 21.1734 23.7917 20.526C23.4403 19.7474 23.2717 18.9005 23.2985 18.0487C23.2729 17.2219 23.4647 16.4027 23.8553 15.6706C24.2208 15.029 24.7399 14.4852 25.3672 14.0865C26.0437 13.6629 26.7933 13.3654 27.5788 13.2087C28.44 13.019 29.3208 12.9297 30.2031 12.9425C31.5675 12.9117 33.0339 12.9425 33.0339 12.9425C33.0148 12.425 32.9614 11.9092 32.8742 11.3986C32.7734 10.9983 32.5741 10.6287 32.2941 10.3223C32.0141 10.0159 31.6619 9.78216 31.2686 9.64171C30.7427 9.46054 30.1876 9.37586 29.6307 9.392C28.8094 9.38686 27.9893 9.45141 27.1792 9.58488C26.4076 9.69462 25.6428 9.8467 24.8884 10.0404C24.7834 9.52919 24.7261 9.00963 24.7169 8.48815C24.7253 7.97133 24.7826 7.45642 24.8884 6.95016C25.5859 6.73097 26.2985 6.56177 27.0207 6.44382C28.0073 6.27126 29.0079 6.1869 30.0099 6.19181C31.1012 6.16459 32.1889 6.32468 33.2246 6.665C34.0175 6.93036 34.7326 7.38282 35.3077 7.98297C35.8407 8.56967 36.2232 9.27407 36.4225 10.0368C36.6559 10.9012 36.7709 11.7925 36.7644 12.6869V22.9963C36.7644 22.9963 35.1505 23.1063 33.4381 23.2034C32.0942 23.2814 30.6854 23.3525 30.0146 23.3525H29.9067C29.0213 23.3499 28.1389 23.2519 27.2751 23.0602L27.2763 23.0662ZM29.9487 15.731C29.3855 15.7493 28.8312 15.8738 28.3156 16.0978C27.9768 16.2569 27.6868 16.5018 27.4755 16.8076C27.2528 17.1477 27.1418 17.5472 27.1575 17.9517C27.1166 18.31 27.1745 18.6725 27.3251 19.001C27.4757 19.3296 27.7134 19.6121 28.0131 19.8186C28.7245 20.1959 29.5271 20.3742 30.3339 20.3344C31.2382 20.3186 32.1409 20.2562 33.0385 20.1474L33.0457 15.776C33.0457 15.776 32.0499 15.7097 30.9915 15.7097H30.9027C30.5739 15.705 30.2523 15.7133 29.9475 15.731H29.9487ZM99.8142 22.9963L95.8891 17.4276C95.8891 17.4276 92.3972 22.2013 91.9292 22.9963C91.3416 23.1082 90.7445 23.1649 90.1461 23.1655C89.4292 23.1529 88.7138 23.0964 88.0041 22.9963L93.908 14.6118L88.2597 6.59171C89.0007 6.49055 89.7473 6.43405 90.4953 6.42252C91.164 6.42645 91.8312 6.48303 92.4908 6.59171L96.0163 11.6162L99.5526 6.59171C100.889 6.3667 102.255 6.3667 103.592 6.59171L98.0046 14.4497L104.004 22.9963C103.278 23.0991 102.547 23.1556 101.813 23.1655C101.143 23.1614 100.475 23.1048 99.8142 22.9963V22.9963ZM54.5755 22.9963V1.26067C55.2315 1.15628 55.8946 1.09972 56.5591 1.09149C57.2058 1.09783 57.8509 1.15441 58.4885 1.26067L67.9024 16.6302V1.26067C68.5705 1.15597 69.2454 1.09942 69.9219 1.09149C70.5785 1.09806 71.2336 1.15463 71.8813 1.26067V22.9904C71.2063 23.0947 70.5247 23.1512 69.8415 23.1596C69.1717 23.153 68.5034 23.0965 67.8423 22.9904L58.5222 7.74757V22.9952C57.8761 23.1012 57.2225 23.1578 56.5675 23.1644C55.899 23.1576 55.232 23.1014 54.572 22.9963H54.5755ZM17.7739 22.9963L17.8171 1.16723C18.4558 1.0629 19.1016 1.00634 19.749 0.998047C20.3925 1.00532 21.0344 1.06189 21.6689 1.16723L21.6437 22.9963C21.0218 23.1027 20.3922 23.1593 19.761 23.1655C19.0941 23.1577 18.4286 23.1011 17.7702 22.9963H17.7739ZM0.003662 22.9963V1.57421C1.02475 1.35296 2.06188 1.21137 3.10552 1.1507C4.23989 1.07735 5.28458 1.04065 6.23975 1.04065C8.81335 0.882061 11.3767 1.48256 13.6029 2.7656C14.4634 3.37228 15.151 4.18717 15.5995 5.13184C16.048 6.07651 16.2422 7.11909 16.1635 8.15924C16.1946 9.28987 15.9602 10.4123 15.4784 11.4388C15.0284 12.3415 14.3425 13.1097 13.4912 13.6642C12.5205 14.2801 11.4409 14.7107 10.3088 14.9336C8.89638 15.222 7.45647 15.3588 6.01417 15.3418H4.01033V22.9952C3.34207 23.0988 2.66721 23.1553 1.99081 23.1644C1.3239 23.1575 0.658388 23.1013 0 22.9963H0.003662ZM6.52539 4.46094C5.50782 4.46094 4.67025 4.49207 4.01267 4.55438V11.9558H5.95543C7.48178 12.0326 9.00534 11.7588 10.4061 11.156C10.9374 10.8569 11.3682 10.4109 11.6454 9.87307C11.9227 9.33527 12.0342 8.72922 11.9661 8.1297C11.9865 7.50975 11.8438 6.89513 11.552 6.34562C11.2843 5.87176 10.8879 5.48084 10.4073 5.21691C9.86793 4.92319 9.28147 4.7231 8.67337 4.62536C7.99496 4.51273 7.30812 4.45613 6.62016 4.45617L6.52539 4.46094ZM114.437 7.97705C114.436 7.61649 114.507 7.25931 114.647 6.92597C114.786 6.59263 114.991 6.28972 115.249 6.03446C115.508 5.77931 115.815 5.57692 116.153 5.43888C116.49 5.30083 116.853 5.22984 117.218 5.22998C117.956 5.22998 118.664 5.51887 119.185 6.03316C119.707 6.54746 120 7.24503 120 7.97236C120 8.69969 119.707 9.39718 119.185 9.91148C118.664 10.4258 117.956 10.7147 117.218 10.7147C116.481 10.7154 115.774 10.4276 115.252 9.91451C114.73 9.40146 114.435 8.7051 114.433 7.97828L114.437 7.97705ZM117.132 8.16516H117.198C117.232 8.20657 117.638 8.81942 117.678 8.88567C117.741 8.89936 117.805 8.90651 117.87 8.90697C117.939 8.90584 118.007 8.8987 118.074 8.88567C118.046 8.81587 117.612 8.14506 117.575 8.1001C117.673 8.06687 117.76 8.00808 117.827 7.92997C117.894 7.85186 117.938 7.75735 117.955 7.65644C117.972 7.55571 117.962 7.45231 117.924 7.35713C117.886 7.26196 117.823 7.17859 117.742 7.11581C117.549 7.00434 117.327 6.95201 117.104 6.96554C117.029 6.96554 116.943 6.96869 116.845 6.975C116.752 6.98101 116.66 6.99364 116.569 7.01284V8.88213C116.628 8.8957 116.687 8.90285 116.747 8.90343C116.803 8.90238 116.859 8.89523 116.914 8.88213V8.164L117.132 8.16516ZM117.064 7.88831H116.909V7.27315C116.977 7.26611 117.046 7.26332 117.115 7.26485C117.179 7.2648 117.242 7.26957 117.305 7.27907C117.357 7.28771 117.408 7.30487 117.455 7.32991C117.495 7.35314 117.528 7.38669 117.551 7.42696V7.42696C117.573 7.47384 117.584 7.52488 117.584 7.57658C117.584 7.62828 117.573 7.67939 117.551 7.72627C117.528 7.76765 117.493 7.80139 117.451 7.82325C117.399 7.8502 117.343 7.86706 117.284 7.87293C117.219 7.88165 117.153 7.88605 117.086 7.886L117.064 7.88831Z" fill="#0066FF"/>
</svg>
