<svg width="120" height="29" viewBox="0 0 120 29" fill="none" xmlns="http://www.w3.org/2000/svg">
<path d="M41.4875 28.7182C41.1275 28.6579 40.7675 28.5833 40.4075 28.4993C40.3024 27.9371 40.245 27.3673 40.236 26.7957C40.2429 26.242 40.3002 25.69 40.4075 25.1465C40.8705 25.293 41.3422 25.4115 41.8199 25.5014C42.7129 25.6699 43.6202 25.7547 44.5294 25.7546C45.7089 25.8683 46.8873 25.5293 47.8197 24.8081C48.1698 24.4349 48.4384 23.9946 48.6085 23.5147C48.7786 23.0347 48.8468 22.5254 48.8086 22.0184V21.738H48.7894C48.3069 21.9 47.8127 22.0258 47.311 22.1143C46.7573 22.2193 46.1948 22.272 45.631 22.2716C44.4963 22.3066 43.3659 22.1201 42.3047 21.7227C41.4774 21.3962 40.7484 20.8667 40.1868 20.1846C39.6375 19.4878 39.2514 18.6797 39.0564 17.8184C38.8212 16.8097 38.7063 15.7774 38.7143 14.7424V5.51437C39.3539 5.40999 40.0006 5.35342 40.6488 5.34519C41.2922 5.35229 41.9341 5.40886 42.5687 5.51437V14.1509C42.5569 14.9037 42.6144 15.6561 42.7403 16.3988C42.8245 16.9343 43.0188 17.4473 43.3115 17.906C43.5724 18.2875 43.9449 18.5818 44.3795 18.7496C44.9086 18.942 45.4704 19.0324 46.0342 19.0157C46.5582 19.014 47.0806 18.9613 47.5941 18.8584C47.9916 18.7865 48.3847 18.6925 48.7714 18.5768V5.5203C49.4153 5.41587 50.0662 5.35931 50.7188 5.35111C51.3575 5.35839 51.9946 5.41497 52.6244 5.5203V19.528V21.4423C52.6244 24.0451 51.9596 25.9462 50.6132 27.1565C48.8564 28.4977 46.6557 29.1452 44.4407 28.9726C43.4507 28.9716 42.4626 28.8865 41.4875 28.7182ZM82.0667 22.4136C80.7644 22.4417 79.4686 22.2236 78.2496 21.7711C77.2335 21.3837 76.3213 20.7712 75.5833 19.9811C74.8733 19.2017 74.3413 18.281 74.0233 17.2813C73.6725 16.1807 73.4992 15.0325 73.5098 13.8788C73.4826 12.5846 73.7032 11.297 74.1601 10.0835C74.5463 9.07264 75.1361 8.1494 75.894 7.36944C76.5967 6.66123 77.442 6.1059 78.3755 5.73916C79.2855 5.37713 80.2575 5.19035 81.2388 5.189C82.2326 5.13403 83.2265 5.29357 84.1512 5.65648C85.076 6.01939 85.9093 6.57692 86.5929 7.29016C88.0006 9.07263 88.685 11.3078 88.5128 13.5605C88.5128 13.7699 88.5129 14.0042 88.4973 14.2704C88.4817 14.5366 88.4697 14.7661 88.4492 14.9802H77.4744C77.4914 15.5574 77.6255 16.1253 77.8687 16.6506C78.1119 17.1758 78.4593 17.6477 78.8904 18.0385C79.9303 18.8243 81.2253 19.2088 82.5323 19.1199C83.395 19.1286 84.2559 19.0449 85.1001 18.8702C85.7236 18.7489 86.335 18.5727 86.9266 18.3437C87.0316 18.8956 87.089 19.4552 87.0981 20.0166C87.0907 20.5625 87.0334 21.1066 86.9266 21.6422C86.9266 21.6422 86.0866 21.9238 85.2887 22.093C84.7813 22.2071 84.2664 22.2861 83.7478 22.3296C83.1933 22.3926 82.6357 22.4241 82.0775 22.4242L82.0667 22.4136ZM79.7136 8.68973C79.2818 8.89878 78.8976 9.19222 78.5844 9.5522C78.2716 9.91387 78.0277 10.3283 77.8645 10.7755C77.6969 11.229 77.5798 11.6991 77.5153 12.1775H84.673C84.6749 11.6725 84.6002 11.17 84.4511 10.6868C84.3158 10.2419 84.0944 9.82686 83.7994 9.46468C83.5135 9.12036 83.1547 8.84176 82.7483 8.64835C82.285 8.4392 81.7793 8.33763 81.27 8.35143H81.2123C80.6937 8.34985 80.1815 8.46349 79.7136 8.68388V8.68973ZM110.61 22.378C109.597 22.4039 108.589 22.2435 107.635 21.9048C106.891 21.6279 106.236 21.1563 105.742 20.5407C105.256 19.8997 104.919 19.1609 104.756 18.3769C104.552 17.4232 104.455 16.4504 104.465 15.4759V1.67527C105.115 1.57166 105.771 1.51511 106.428 1.50608C107.059 1.51273 107.689 1.56931 108.311 1.67527V5.59243H111.978C112.085 6.0486 112.142 6.51452 112.15 6.98254C112.141 7.46026 112.084 7.93592 111.978 8.40226H108.311V15.4546C108.228 16.4375 108.45 17.422 108.948 18.2775C109.213 18.5786 109.548 18.8125 109.924 18.9593C110.3 19.1062 110.706 19.1616 111.108 19.121C111.736 19.1311 112.362 19.0575 112.969 18.9021C113.405 18.7866 113.833 18.6479 114.253 18.4869C114.359 19.0215 114.416 19.5643 114.425 20.1089C114.418 20.6391 114.36 21.1674 114.253 21.6871C113.895 21.8487 113.522 21.9797 113.141 22.0787C112.366 22.2758 111.568 22.3756 110.767 22.3757L110.61 22.378ZM27.2763 22.0681C26.5159 21.9094 25.7962 21.5998 25.1609 21.1583C24.5739 20.7357 24.1033 20.1753 23.7917 19.528C23.4403 18.7493 23.2717 17.9025 23.2985 17.0506C23.2729 16.2239 23.4647 15.4046 23.8553 14.6726C24.2208 14.031 24.7399 13.4872 25.3672 13.0885C26.0437 12.6649 26.7933 12.3673 27.5788 12.2106C28.44 12.021 29.3208 11.9317 30.2031 11.9444C31.5675 11.9137 33.0339 11.9444 33.0339 11.9444C33.0148 11.4269 32.9614 10.9112 32.8742 10.4005C32.7733 10.0003 32.5741 9.63063 32.2941 9.32424C32.0141 9.01784 31.6619 8.78411 31.2686 8.64366C30.7427 8.46249 30.1876 8.37782 29.6307 8.39396C28.8094 8.38881 27.9893 8.45336 27.1792 8.58683C26.4076 8.69657 25.6428 8.84865 24.8884 9.04233C24.7834 8.53115 24.7261 8.01158 24.7169 7.49011C24.7253 6.97328 24.7826 6.45838 24.8884 5.95211C25.5859 5.73292 26.2985 5.56372 27.0207 5.44578C28.0073 5.27321 29.0079 5.18886 30.0099 5.19376C31.1012 5.16654 32.1889 5.32663 33.2246 5.66695C34.0175 5.93231 34.7326 6.38478 35.3077 6.98493C35.8407 7.57162 36.2232 8.27602 36.4225 9.03879C36.6559 9.90316 36.7709 10.7944 36.7644 11.6889V21.9983C36.7644 21.9983 35.1505 22.1083 33.4381 22.2053C32.0942 22.2834 30.6854 22.3544 30.0146 22.3544H29.9067C29.0213 22.3518 28.1389 22.2538 27.2751 22.0622L27.2763 22.0681ZM29.9487 14.733C29.3855 14.7512 28.8312 14.8757 28.3156 15.0997C27.9768 15.2588 27.6868 15.5038 27.4755 15.8095C27.2528 16.1496 27.1418 16.5491 27.1575 16.9536C27.1166 17.3119 27.1745 17.6744 27.3251 18.003C27.4757 18.3316 27.7134 18.614 28.0131 18.8205C28.7245 19.1978 29.5271 19.3762 30.3339 19.3363C31.2382 19.3206 32.1409 19.2582 33.0385 19.1494L33.0457 14.778C33.0457 14.778 32.0499 14.7117 30.9915 14.7117H30.9027C30.5739 14.7069 30.2523 14.7152 29.9475 14.733H29.9487ZM99.8142 21.9983L95.8891 16.4295C95.8891 16.4295 92.3972 21.2033 91.9292 21.9983C91.3416 22.1102 90.7445 22.1668 90.1461 22.1675C89.4292 22.1549 88.7138 22.0984 88.0041 21.9983L93.908 13.6138L88.2597 5.59366C89.0007 5.49251 89.7473 5.436 90.4953 5.42447C91.164 5.4284 91.8312 5.48498 92.4908 5.59366L96.0163 10.6182L99.5526 5.59366C100.889 5.36865 102.255 5.36865 103.592 5.59366L98.0046 13.4517L104.004 21.9983C103.278 22.1011 102.547 22.1576 101.813 22.1675C101.143 22.1634 100.475 22.1068 99.8142 21.9983ZM54.5755 21.9983V0.262627C55.2315 0.15823 55.8946 0.101676 56.5591 0.0934395C57.2058 0.0997847 57.8509 0.15636 58.4885 0.262627L67.9024 15.6321V0.262627C68.5705 0.157923 69.2454 0.101373 69.9219 0.0934395C70.5785 0.100015 71.2336 0.156584 71.8813 0.262627V21.9924C71.2063 22.0966 70.5247 22.1532 69.8415 22.1616C69.1717 22.155 68.5034 22.0984 67.8423 21.9924L58.5222 6.74952V21.9971C57.8761 22.1032 57.2225 22.1597 56.5675 22.1663C55.899 22.1595 55.232 22.1033 54.572 21.9983H54.5755ZM17.7739 21.9983L17.8171 0.169188C18.4558 0.0648503 19.1016 0.00828891 19.749 0C20.3925 0.00726892 21.0343 0.0638393 21.6689 0.169188L21.6437 21.9983C21.0218 22.1047 20.3922 22.1613 19.761 22.1675C19.0941 22.1596 18.4286 22.1031 17.7702 21.9983H17.7739ZM0.003662 21.9983V0.576162C1.02475 0.35491 2.06188 0.213325 3.10552 0.152652C4.23989 0.0793002 5.28458 0.0426038 6.23975 0.0426038C8.81335 -0.115986 11.3767 0.484512 13.6029 1.76755C14.4634 2.37423 15.151 3.18913 15.5995 4.1338C16.048 5.07846 16.2422 6.12104 16.1635 7.16119C16.1946 8.29183 15.9602 9.41428 15.4784 10.4407C15.0284 11.3435 14.3425 12.1116 13.4912 12.6661C12.5205 13.282 11.4409 13.7127 10.3088 13.9356C8.89638 14.2239 7.45647 14.3608 6.01417 14.3438H4.01033V21.9971C3.34207 22.1007 2.66721 22.1573 1.99081 22.1663C1.3239 22.1595 0.658388 22.1033 0 21.9983H0.003662ZM6.52539 3.46289C5.50782 3.46289 4.67025 3.49402 4.01267 3.55633V10.9578H5.95543C7.48178 11.0345 9.00534 10.7607 10.4061 10.158C10.9374 9.85882 11.3682 9.41282 11.6454 8.87502C11.9227 8.33722 12.0342 7.73117 11.9661 7.13166C11.9865 6.5117 11.8438 5.89708 11.552 5.34757C11.2843 4.87371 10.8879 4.4828 10.4073 4.21886C9.86793 3.92515 9.28147 3.72505 8.67337 3.62732C7.99496 3.51468 7.30812 3.45809 6.62016 3.45813L6.52539 3.46289ZM114.437 6.97901C114.436 6.61845 114.507 6.26126 114.647 5.92792C114.786 5.59458 114.991 5.29167 115.249 5.03642C115.508 4.78126 115.815 4.57888 116.153 4.44083C116.49 4.30278 116.853 4.2318 117.218 4.23193C117.956 4.23193 118.664 4.52082 119.185 5.03512C119.707 5.54942 120 6.24698 120 6.97431C120 7.70164 119.707 8.39914 119.185 8.91343C118.664 9.42773 117.956 9.7167 117.218 9.7167C116.481 9.71733 115.774 9.42952 115.252 8.91647C114.73 8.40341 114.435 7.70705 114.433 6.98023L114.437 6.97901ZM117.132 7.16711H117.198C117.232 7.20852 117.638 7.82137 117.678 7.88762C117.741 7.90132 117.805 7.90846 117.87 7.90892C117.939 7.90779 118.007 7.90066 118.074 7.88762C118.046 7.81782 117.612 7.14701 117.575 7.10205C117.673 7.06883 117.76 7.01003 117.827 6.93193C117.894 6.85382 117.938 6.75931 117.955 6.65839C117.972 6.55766 117.962 6.45426 117.924 6.35909C117.886 6.26391 117.823 6.18054 117.742 6.11776C117.549 6.00629 117.327 5.95396 117.104 5.96749C117.029 5.96749 116.943 5.97064 116.845 5.97695C116.752 5.98296 116.66 5.99559 116.569 6.01479V7.88408C116.628 7.89766 116.687 7.9048 116.747 7.90539C116.803 7.90433 116.859 7.89718 116.914 7.88408V7.16596L117.132 7.16711ZM117.064 6.89026H116.909V6.2751C116.977 6.26806 117.046 6.26527 117.115 6.2668C117.179 6.26675 117.242 6.27152 117.305 6.28103C117.357 6.28966 117.408 6.30682 117.455 6.33186C117.495 6.35509 117.528 6.38864 117.551 6.42891C117.573 6.47579 117.584 6.52683 117.584 6.57853C117.584 6.63023 117.573 6.68134 117.551 6.72822C117.528 6.7696 117.493 6.80334 117.451 6.8252C117.399 6.85215 117.343 6.86901 117.284 6.87488C117.219 6.8836 117.153 6.888 117.086 6.88795L117.064 6.89026Z" fill="white"/>
</svg>
