<svg width="190" height="64" viewBox="0 0 190 64" fill="none" xmlns="http://www.w3.org/2000/svg">
<path d="M94.2792 26.5644C94.2792 26.7974 94.2274 26.9528 94.1238 27.0304C94.0462 27.1081 93.7484 27.1599 93.2306 27.1858C92.7387 27.1858 92.0526 27.1858 91.1722 27.1858V14.0201H84.9584V26.5644C84.9584 26.7974 84.9066 26.9528 84.803 27.0304C84.7253 27.1081 84.4276 27.1599 83.9098 27.1858C83.3919 27.1858 82.6929 27.1858 81.8126 27.1858V0.621391C81.8126 0.38837 81.8514 0.233022 81.9291 0.155348C82.0326 0.0776734 82.3433 0.0388363 82.8612 0.0388363C83.379 0.0129454 84.078 0 84.9584 0V11.0685H91.1722V0.621391C91.1722 0.38837 91.2111 0.233022 91.2888 0.155348C91.3923 0.0776734 91.6901 0.0388363 92.182 0.0388363C92.6998 0.0129454 93.3989 0 94.2792 0V26.5644Z" fill="#0066FF"/>
<path d="M104.072 24.5449C105.626 24.5449 107.101 24.1306 108.5 23.3021C108.681 23.8717 108.771 24.5837 108.771 25.4381C108.771 26.0336 108.241 26.5385 107.179 26.9528C106.143 27.367 104.888 27.5742 103.412 27.5742C102.091 27.5742 100.978 27.3282 100.072 26.8363C99.1917 26.3443 98.4926 25.4381 97.9748 24.1177C97.4569 22.7972 97.198 20.9201 97.198 18.4863C97.198 15.4571 97.5087 13.1269 98.1301 11.4957C98.7774 9.86456 99.593 8.77713 100.577 8.23341C101.561 7.6638 102.726 7.379 104.072 7.379C107.36 7.379 109.004 9.4503 109.004 13.5929C109.004 15.6642 108.862 17.3471 108.577 18.6417C107.438 18.8747 106.105 19.043 104.577 19.1466C103.075 19.2242 101.69 19.2631 100.421 19.2631C100.473 20.6612 100.629 21.7357 100.888 22.4865C101.172 23.2374 101.561 23.7681 102.053 24.0788C102.57 24.3895 103.244 24.5449 104.072 24.5449ZM103.723 10.1364C102.791 10.1364 102.04 10.6283 101.47 11.6122C100.9 12.5702 100.564 14.292 100.46 16.7775C103.024 16.7775 104.797 16.6222 105.781 16.3115C105.91 15.716 105.975 14.9392 105.975 13.9813C105.949 12.5314 105.781 11.5345 105.47 10.9908C105.16 10.4212 104.577 10.1364 103.723 10.1364Z" fill="#0066FF"/>
<path d="M111.813 8.38876C111.813 8.18163 111.891 8.02628 112.046 7.92272C112.202 7.81915 112.474 7.76737 112.862 7.76737H116.474C118.286 7.76737 119.749 8.07806 120.862 8.69945C121.976 9.32084 122.532 10.5118 122.532 12.2724C122.532 13.3081 122.338 14.1754 121.95 14.8745C121.561 15.5477 121.108 16.0526 120.591 16.3891C120.099 16.6998 119.658 16.8811 119.27 16.9329C119.762 16.9846 120.163 17.0623 120.474 17.1659C121.199 17.3989 121.859 17.7743 122.455 18.2921C123.05 18.81 123.348 19.7162 123.348 21.0107C123.348 22.849 122.765 24.3377 121.6 25.477C120.461 26.6162 118.765 27.1858 116.513 27.1858H111.813V8.38876ZM114.804 16.0396C115.192 16.0655 115.749 16.0785 116.474 16.0785C117.276 16.0785 117.95 15.8195 118.493 15.3017C119.037 14.758 119.309 13.9295 119.309 12.8162C119.309 12.0394 119.179 11.4569 118.921 11.0685C118.662 10.6801 118.325 10.4471 117.911 10.3694C117.497 10.2659 116.966 10.2141 116.318 10.2141L114.804 10.2529V16.0396ZM116.552 24.6226C117.613 24.6226 118.429 24.3119 118.998 23.6905C119.568 23.0432 119.853 22.0852 119.853 20.8165C119.853 19.8586 119.62 19.1854 119.154 18.797C118.713 18.3828 117.924 18.1756 116.785 18.1756L114.804 18.2145V24.6226H116.552Z" fill="#0066FF"/>
<path d="M131.468 27.5742C130.122 27.5742 129.035 27.3282 128.206 26.8363C127.378 26.3184 126.743 25.3605 126.303 23.9623C125.889 22.5642 125.682 20.5447 125.682 17.9038C125.682 13.7353 126.329 10.939 127.624 9.51503C128.918 8.09101 130.588 7.379 132.634 7.379C133.566 7.379 134.342 7.54729 134.964 7.88388C135.585 8.22046 135.896 8.63472 135.896 9.12666C135.896 9.72215 135.779 10.3047 135.546 10.8743C134.666 10.3824 133.747 10.1364 132.789 10.1364C131.65 10.1364 130.718 10.6672 129.993 11.7287C129.268 12.7644 128.905 14.8357 128.905 17.9426C128.905 19.7291 129.022 21.1272 129.255 22.137C129.514 23.1209 129.889 23.807 130.381 24.1953C130.899 24.5837 131.572 24.7779 132.401 24.7779C132.996 24.7779 133.566 24.7002 134.109 24.5449C134.679 24.3636 135.145 24.1436 135.508 23.8847C135.715 24.6355 135.818 25.2051 135.818 25.5935C135.818 26.1372 135.404 26.6032 134.575 26.9916C133.747 27.38 132.711 27.5742 131.468 27.5742Z" fill="#0066FF"/>
<path d="M148.536 27.2635C147.941 27.2635 147.294 27.2246 146.595 27.1469L145.585 21.7875C145.378 20.467 145.054 19.5349 144.614 18.9912C144.2 18.4475 143.552 18.1756 142.672 18.1756H141.701V26.6421C141.701 26.8492 141.649 26.9916 141.546 27.0693C141.468 27.1211 141.17 27.1599 140.652 27.1858C140.161 27.1858 139.487 27.1858 138.633 27.1858V8.31108C138.633 8.10395 138.672 7.9745 138.749 7.92272C138.853 7.84504 139.151 7.8062 139.643 7.8062C140.161 7.78031 140.847 7.76737 141.701 7.76737V15.4182H142.827C143.967 15.4182 144.717 14.758 145.08 13.4375L146.672 7.92272C147.294 7.79326 147.928 7.72853 148.575 7.72853C149.041 7.72853 149.365 7.75442 149.546 7.8062C149.727 7.85799 149.818 7.9745 149.818 8.15574L149.74 8.46643L147.915 13.9424C147.475 15.2111 146.802 16.0785 145.895 16.5445C146.646 16.907 147.268 17.5154 147.76 18.3698C148.252 19.1983 148.588 20.2081 148.769 21.3991L149.779 26.6032C149.805 26.8621 149.727 27.0434 149.546 27.1469C149.391 27.2246 149.054 27.2635 148.536 27.2635Z" fill="#0066FF"/>
<path d="M157.284 27.5742C155.627 27.5742 154.319 27.1858 153.361 26.409C152.429 25.6064 151.963 24.0271 151.963 21.671C151.963 19.2113 152.429 17.5413 153.361 16.661C154.319 15.7548 155.588 15.3017 157.167 15.3017C158.384 15.3017 159.329 15.47 160.002 15.8066V12.7385C160.002 11.8582 159.808 11.2497 159.42 10.9132C159.031 10.5766 158.423 10.4083 157.594 10.4083C156.662 10.4083 155.717 10.4989 154.759 10.6801C153.801 10.8355 153.025 11.0426 152.429 11.3015C152.144 10.7578 152.002 10.1494 152.002 9.47619C152.002 8.95836 152.144 8.60883 152.429 8.42759C152.818 8.16868 153.568 7.93566 154.682 7.72853C155.795 7.49551 157.025 7.379 158.371 7.379C160.054 7.379 161.271 7.74148 162.022 8.46643C162.773 9.19139 163.148 10.4083 163.148 12.1171V14.1754C163.148 19.8715 163.07 23.8976 162.915 26.2537C162.294 26.6421 161.504 26.9528 160.546 27.1858C159.588 27.4447 158.501 27.5742 157.284 27.5742ZM157.827 24.9332C158.242 24.9332 158.643 24.8685 159.031 24.7391C159.42 24.6096 159.705 24.4672 159.886 24.3119C159.964 23.4316 160.002 21.3344 160.002 18.0203C159.51 17.7614 158.902 17.6319 158.177 17.6319C157.245 17.6319 156.52 17.9038 156.002 18.4475C155.484 18.9912 155.225 20.0398 155.225 21.5933C155.225 22.9137 155.433 23.807 155.847 24.273C156.287 24.7132 156.947 24.9332 157.827 24.9332Z" fill="#0066FF"/>
<path d="M167.557 27.3411C166.935 27.3411 166.275 27.3023 165.576 27.2246L166.663 22.2923C166.871 21.412 167.168 20.7 167.557 20.1563C167.971 19.6126 168.554 19.1466 169.304 18.7582C168.372 18.4216 167.583 17.8002 166.935 16.894C166.288 15.9878 165.964 14.7968 165.964 13.321C165.964 9.61859 168.256 7.76737 172.839 7.76737H176.606C176.839 7.76737 176.994 7.84504 177.072 8.00039C177.149 8.12984 177.188 8.23341 177.188 8.31108V27.1858C176.334 27.1858 175.648 27.1728 175.13 27.1469C174.638 27.1211 174.34 27.0693 174.237 26.9916C174.133 26.9139 174.081 26.7586 174.081 26.5256V19.3407H172.411C171.738 19.3407 171.194 19.6255 170.78 20.1952C170.366 20.7389 170.042 21.5415 169.809 22.603L168.916 26.6809C168.864 26.9657 168.761 27.1469 168.605 27.2246C168.476 27.3023 168.126 27.3411 167.557 27.3411ZM172.062 16.7775C172.476 16.7775 173.149 16.7516 174.081 16.6998V10.4471C173.201 10.3953 172.541 10.3694 172.101 10.3694C171.169 10.3694 170.469 10.6154 170.003 11.1073C169.563 11.5734 169.343 12.376 169.343 13.5152C169.343 14.7062 169.589 15.5477 170.081 16.0396C170.599 16.5315 171.259 16.7775 172.062 16.7775Z" fill="#0066FF"/>
<path d="M92.7644 63.673C92.1171 63.673 91.4181 63.6342 90.6672 63.5565L89.5021 55.9833C89.1137 52.6175 88.0263 50.9346 86.2398 50.9346H84.997V62.974C84.997 63.207 84.9452 63.3623 84.8417 63.44C84.764 63.5177 84.4663 63.5695 83.9484 63.5954C83.4306 63.5954 82.7186 63.5954 81.8124 63.5954V37.031C81.8124 36.798 81.8512 36.6426 81.9289 36.5649C82.0325 36.4873 82.3432 36.4484 82.861 36.4484C83.3788 36.4225 84.0908 36.4096 84.997 36.4096V47.9441H86.434C86.9777 47.9441 87.4696 47.6852 87.9098 47.1674C88.3758 46.6496 88.7124 45.9117 88.9195 44.9537L90.8226 36.6038C91.5475 36.4484 92.2077 36.3707 92.8032 36.3707C93.2952 36.3707 93.6318 36.4096 93.813 36.4873C93.9942 36.5649 94.0848 36.7203 94.0848 36.9533C94.0848 37.1086 94.0719 37.2252 94.046 37.3028L91.9877 45.4586C91.7546 46.3389 91.431 47.0897 91.0167 47.7111C90.6025 48.3325 90.1364 48.7985 89.6186 49.1092C90.473 49.6012 91.1721 50.4038 91.7158 51.5171C92.2854 52.6045 92.6738 53.925 92.8809 55.4785L94.0848 62.8963C94.1107 63.207 94.0331 63.4141 93.8518 63.5177C93.6965 63.6213 93.334 63.673 92.7644 63.673Z" fill="#0066FF"/>
<path d="M97.0968 63.7507C95.9576 63.7507 95.388 63.1682 95.388 62.0031C95.388 61.8736 95.4139 61.6276 95.4657 61.2652C96.4237 61.2652 97.1357 60.7603 97.6017 59.7505C98.0936 58.7408 98.4561 57.1873 98.6891 55.0901C98.9222 52.9929 99.1811 49.6529 99.4659 45.0702C99.4918 44.7854 99.5435 44.5912 99.6212 44.4876C99.7248 44.3582 99.9449 44.2805 100.281 44.2546C100.644 44.2028 101.265 44.1769 102.146 44.1769H108.864V62.974C108.864 63.207 108.826 63.3623 108.748 63.44C108.67 63.5177 108.372 63.5695 107.855 63.5954C107.337 63.5954 106.612 63.5954 105.68 63.5954V46.8179H102.417C102.184 50.9346 101.861 54.2098 101.447 56.6436C101.058 59.0515 100.514 60.838 99.8154 62.0031C99.1422 63.1682 98.236 63.7507 97.0968 63.7507Z" fill="#0066FF"/>
<path d="M117.309 63.9837C115.652 63.9837 114.344 63.5954 113.386 62.8186C112.454 62.016 111.988 60.4366 111.988 58.0805C111.988 55.6209 112.454 53.9509 113.386 53.0706C114.344 52.1644 115.613 51.7113 117.192 51.7113C118.409 51.7113 119.354 51.8796 120.028 52.2162V49.1481C120.028 48.2678 119.833 47.6593 119.445 47.3227C119.057 46.9861 118.448 46.8179 117.62 46.8179C116.688 46.8179 115.743 46.9085 114.785 47.0897C113.827 47.2451 113.05 47.4522 112.454 47.7111C112.17 47.1674 112.027 46.5589 112.027 45.8858C112.027 45.3679 112.17 45.0184 112.454 44.8372C112.843 44.5783 113.594 44.3452 114.707 44.1381C115.82 43.9051 117.05 43.7886 118.396 43.7886C120.079 43.7886 121.296 44.1511 122.047 44.876C122.798 45.601 123.173 46.8179 123.173 48.5267V50.585C123.173 56.2811 123.096 60.3072 122.94 62.6633C122.319 63.0517 121.529 63.3623 120.571 63.5954C119.613 63.8543 118.526 63.9837 117.309 63.9837ZM117.853 61.3428C118.267 61.3428 118.668 61.2781 119.057 61.1486C119.445 61.0192 119.73 60.8768 119.911 60.7214C119.989 59.8411 120.028 57.7439 120.028 54.4299C119.536 54.171 118.927 54.0415 118.202 54.0415C117.27 54.0415 116.545 54.3134 116.027 54.8571C115.51 55.4008 115.251 56.4494 115.251 58.0029C115.251 59.3233 115.458 60.2166 115.872 60.6826C116.312 61.1228 116.972 61.3428 117.853 61.3428Z" fill="#0066FF"/>
<path d="M131.582 63.9837C130.236 63.9837 129.148 63.7378 128.32 63.2458C127.491 62.728 126.857 61.77 126.417 60.3719C126.003 58.9738 125.795 56.9543 125.795 54.3134C125.795 50.1449 126.443 47.3486 127.737 45.9246C129.032 44.5006 130.702 43.7886 132.747 43.7886C133.679 43.7886 134.456 43.9569 135.077 44.2935C135.699 44.63 136.01 45.0443 136.01 45.5362C136.01 46.1317 135.893 46.7143 135.66 47.2839C134.78 46.792 133.861 46.546 132.903 46.546C131.763 46.546 130.831 47.0768 130.106 48.1383C129.381 49.174 129.019 51.2453 129.019 54.3522C129.019 56.1387 129.135 57.5368 129.368 58.5466C129.627 59.5304 130.003 60.2166 130.495 60.6049C131.013 60.9933 131.686 61.1875 132.514 61.1875C133.11 61.1875 133.679 61.1098 134.223 60.9545C134.793 60.7732 135.259 60.5531 135.621 60.2942C135.828 61.0451 135.932 61.6147 135.932 62.0031C135.932 62.5468 135.518 63.0128 134.689 63.4012C133.861 63.7896 132.825 63.9837 131.582 63.9837Z" fill="#0066FF"/>
<path d="M143.226 63.9837C141.879 63.9837 140.792 63.7378 139.963 63.2458C139.135 62.728 138.5 61.77 138.06 60.3719C137.646 58.9738 137.439 56.9543 137.439 54.3134C137.439 50.1449 138.086 47.3486 139.381 45.9246C140.675 44.5006 142.345 43.7886 144.391 43.7886C145.323 43.7886 146.1 43.9569 146.721 44.2935C147.342 44.63 147.653 45.0443 147.653 45.5362C147.653 46.1317 147.536 46.7143 147.303 47.2839C146.423 46.792 145.504 46.546 144.546 46.546C143.407 46.546 142.475 47.0768 141.75 48.1383C141.025 49.174 140.662 51.2453 140.662 54.3522C140.662 56.1387 140.779 57.5368 141.012 58.5466C141.271 59.5304 141.646 60.2166 142.138 60.6049C142.656 60.9933 143.329 61.1875 144.158 61.1875C144.753 61.1875 145.323 61.1098 145.866 60.9545C146.436 60.7732 146.902 60.5531 147.265 60.2942C147.472 61.0451 147.575 61.6147 147.575 62.0031C147.575 62.5468 147.161 63.0128 146.333 63.4012C145.504 63.7896 144.468 63.9837 143.226 63.9837Z" fill="#0066FF"/>
<path d="M155.944 63.9837C154.416 63.9837 153.238 63.7507 152.41 63.2847C151.581 62.8186 150.999 62.1325 150.662 61.2263C150.325 60.2942 150.157 59.0644 150.157 57.5368V44.7983C150.157 44.5653 150.196 44.41 150.274 44.3323C150.377 44.2546 150.688 44.2158 151.206 44.2158C151.749 44.1899 152.474 44.1769 153.38 44.1769V57.8087C153.38 59.1291 153.549 60.0353 153.885 60.5273C154.248 61.0192 154.96 61.2652 156.021 61.2652C157.057 61.2652 157.924 61.0192 158.623 60.5273V44.7983C158.623 44.5653 158.675 44.41 158.779 44.3323C158.882 44.2546 159.18 44.2158 159.672 44.2158C160.19 44.1899 160.889 44.1769 161.769 44.1769V62.5856C160.993 62.9999 160.086 63.3365 159.051 63.5954C158.015 63.8543 156.979 63.9837 155.944 63.9837Z" fill="#0066FF"/>
<path d="M175.388 63.673C174.793 63.673 174.145 63.6342 173.446 63.5565L172.437 58.197C172.23 56.8766 171.906 55.9445 171.466 55.4008C171.051 54.8571 170.404 54.5852 169.524 54.5852H168.553V63.0517C168.553 63.2588 168.501 63.4012 168.398 63.4789C168.32 63.5306 168.022 63.5695 167.504 63.5954C167.012 63.5954 166.339 63.5954 165.485 63.5954V44.7207C165.485 44.5135 165.524 44.3841 165.601 44.3323C165.705 44.2546 166.003 44.2158 166.495 44.2158C167.012 44.1899 167.699 44.1769 168.553 44.1769V51.8278H169.679C170.818 51.8278 171.569 51.1676 171.932 49.8471L173.524 44.3323C174.145 44.2028 174.78 44.1381 175.427 44.1381C175.893 44.1381 176.217 44.164 176.398 44.2158C176.579 44.2676 176.67 44.3841 176.67 44.5653L176.592 44.876L174.767 50.352C174.327 51.6207 173.654 52.488 172.747 52.9541C173.498 53.3166 174.12 53.925 174.612 54.7794C175.103 55.6079 175.44 56.6177 175.621 57.8087L176.631 63.0128C176.657 63.2717 176.579 63.453 176.398 63.5565C176.243 63.6342 175.906 63.673 175.388 63.673Z" fill="#0066FF"/>
<path d="M184.136 63.9837C182.479 63.9837 181.171 63.5954 180.213 62.8186C179.281 62.016 178.815 60.4366 178.815 58.0805C178.815 55.6209 179.281 53.9509 180.213 53.0706C181.171 52.1644 182.44 51.7113 184.019 51.7113C185.236 51.7113 186.181 51.8796 186.854 52.2162V49.1481C186.854 48.2678 186.66 47.6593 186.272 47.3227C185.883 46.9861 185.275 46.8179 184.446 46.8179C183.514 46.8179 182.569 46.9085 181.611 47.0897C180.653 47.2451 179.877 47.4522 179.281 47.7111C178.996 47.1674 178.854 46.5589 178.854 45.8858C178.854 45.3679 178.996 45.0184 179.281 44.8372C179.669 44.5783 180.42 44.3452 181.534 44.1381C182.647 43.9051 183.877 43.7886 185.223 43.7886C186.906 43.7886 188.123 44.1511 188.874 44.876C189.625 45.601 190 46.8179 190 48.5267V50.585C190 56.2811 189.922 60.3072 189.767 62.6633C189.146 63.0517 188.356 63.3623 187.398 63.5954C186.44 63.8543 185.353 63.9837 184.136 63.9837ZM184.679 61.3428C185.094 61.3428 185.495 61.2781 185.883 61.1486C186.272 61.0192 186.556 60.8768 186.738 60.7214C186.815 59.8411 186.854 57.7439 186.854 54.4299C186.362 54.171 185.754 54.0415 185.029 54.0415C184.097 54.0415 183.372 54.3134 182.854 54.8571C182.336 55.4008 182.077 56.4494 182.077 58.0029C182.077 59.3233 182.284 60.2166 182.699 60.6826C183.139 61.1228 183.799 61.3428 184.679 61.3428Z" fill="#0066FF"/>
<path d="M58.8427 52.9585C57.8988 53.8167 57.1121 54.5189 55.4602 54.5189C53.8083 54.5189 53.0217 53.8167 52.0777 52.9585C51.0551 52.0223 49.8752 51.008 47.5939 51.008C45.3127 51.008 44.1328 52.0223 43.1102 52.9585C42.1662 53.8167 41.3796 54.5189 39.7277 54.5189C38.0758 54.5189 37.2892 53.8167 36.3452 52.9585C35.3226 52.0223 34.1427 51.008 31.8614 51.008C29.5802 51.008 28.4003 52.0223 27.3777 52.9585C26.4337 53.8167 25.6471 54.5189 23.9952 54.5189C22.3433 54.5189 21.5566 53.8167 20.6127 52.9585C19.5901 52.0223 18.4101 51.008 16.1289 51.008C13.8477 51.008 12.6678 52.0223 11.6452 52.9585C10.7012 53.8167 9.91458 54.5189 8.26267 54.5189C6.61075 54.5189 5.82413 53.8167 4.88017 52.9585C3.85756 52.0223 2.67762 51.008 0.396409 51.008H0.00309568V52.5684H0.396409C2.04832 52.5684 2.83495 53.2706 3.7789 54.1288C4.80151 55.0651 5.98145 56.0793 8.26267 56.0793C10.5439 56.0793 11.7238 55.0651 12.7464 54.1288C13.6904 53.2706 14.477 52.5684 16.1289 52.5684C17.7808 52.5684 18.5675 53.2706 19.5114 54.1288C20.534 55.0651 21.714 56.0793 23.9952 56.0793C26.2764 56.0793 27.4563 55.0651 28.4789 54.1288C29.4229 53.2706 30.2095 52.5684 31.8614 52.5684C33.5133 52.5684 34.3 53.2706 35.2439 54.1288C36.2665 55.0651 37.4465 56.0793 39.7277 56.0793C42.0089 56.0793 43.1888 55.0651 44.2115 54.1288C45.1554 53.2706 45.942 52.5684 47.5939 52.5684C49.2459 52.5684 50.0325 53.2706 50.9764 54.1288C51.9991 55.0651 53.179 56.0793 55.4602 56.0793C57.7414 56.0793 58.9214 55.0651 59.944 54.1288C60.8879 53.2706 61.6745 52.5684 63.3265 52.5684H63.7198V51.008H63.3265C61.0452 51.008 59.8653 52.0223 58.8427 52.9585Z" fill="#0066FF"/>
<path d="M58.8424 60.3965C57.8984 61.2547 57.1118 61.9569 55.4599 61.9569C53.808 61.9569 53.0213 61.2547 52.0774 60.3965C51.0548 59.4602 49.8748 58.4459 47.5936 58.4459C45.3124 58.4459 44.1325 59.4602 43.1099 60.3965C42.1659 61.2547 41.3793 61.9569 39.7274 61.9569C38.0755 61.9569 37.2888 61.2547 36.3449 60.3965C35.3223 59.4602 34.1423 58.4459 31.8611 58.4459C29.5799 58.4459 28.4 59.4602 27.3774 60.3965C26.4334 61.2547 25.6468 61.9569 23.9949 61.9569C22.3429 61.9569 21.5563 61.2547 20.6124 60.3965C19.5898 59.4602 18.4098 58.4459 16.1286 58.4459C13.8474 58.4459 12.6675 59.4602 11.6448 60.3965C10.7009 61.2547 9.91426 61.9569 8.26235 61.9569C6.61044 61.9569 5.82381 61.2547 4.87986 60.3965C3.85724 59.4602 2.67731 58.4459 0.396092 58.4459H0.00277945V60.0063H0.396092C2.04801 60.0063 2.83463 60.7085 3.77858 61.5668C4.8012 62.503 5.98113 63.5173 8.26235 63.5173C10.5436 63.5173 11.7235 62.503 12.7461 61.5668C13.6901 60.7085 14.4767 60.0063 16.1286 60.0063C17.7805 60.0063 18.5671 60.7085 19.5111 61.5668C20.5337 62.503 21.7136 63.5173 23.9949 63.5173C26.2761 63.5173 27.456 62.503 28.4786 61.5668C29.4226 60.7085 30.2092 60.0063 31.8611 60.0063C33.513 60.0063 34.2997 60.7085 35.2436 61.5668C36.2662 62.503 37.4462 63.5173 39.7274 63.5173C42.0086 63.5173 43.1885 62.503 44.2111 61.5668C45.1551 60.7085 45.9417 60.0063 47.5936 60.0063C49.2455 60.0063 50.0322 60.7085 50.9761 61.5668C51.9987 62.503 53.1787 63.5173 55.4599 63.5173C57.7411 63.5173 58.921 62.503 59.9437 61.5668C60.8876 60.7085 61.6742 60.0063 63.3261 60.0063H63.7195V58.4459H63.3261C61.0449 58.4459 59.865 59.4602 58.8424 60.3965Z" fill="#0066FF"/>
<path d="M55.2239 40.2325C55.2239 42.4109 53.4579 44.1769 51.2795 44.1769C49.1011 44.1769 47.3352 42.4109 47.3352 40.2325C47.3352 38.0541 49.1011 36.2881 51.2795 36.2881C53.4579 36.2881 55.2239 38.0541 55.2239 40.2325Z" fill="#0066FF"/>
<path d="M7.94089 17.8273C7.94089 19.9225 8.124 21.8801 9.0576 23.7425C9.7578 25.1392 10.3008 25.483 11.0467 27.2235C10.3465 28.6202 10.4366 29.537 8.80279 30.701C7.16899 31.865 6.26002 33.0559 5.53519 35.0542C4.93366 36.7126 4.83499 38.5256 5.06839 39.5472C5.26575 40.4111 7.39126 40.1757 7.94089 40.7254C8.5694 41.3539 8.46856 42.6109 7.54495 42.6109H4.71667C4.0873 42.4978 3.69309 42.1337 3.45969 41.6681C3.23127 40.7458 3.14544 40.0737 3.14544 38.2114C3.14544 36.7156 2.83119 34.4404 3.20118 31.7951C3.57117 29.1498 4.40242 27.2456 4.40242 24.3843C4.40242 21.8703 4.71667 19.9848 5.03092 18.7278C4.08817 19.9848 3.79443 20.8932 3.0687 22.716C2.33928 24.5481 1.90002 26.7946 1.55571 34.123C1.50974 35.1015 1.57417 35.0689 1.57417 35.6974C1.57417 36.3259 1.00152 36.3259 1.00152 36.3259C1.00152 36.3259 -0.0621754 36.4785 0.00286566 35.6974C0.0595647 35.0164 0.430006 34.3243 0.622107 33.4246C0.828163 32.4597 0.731749 32.9771 1.00142 30.9266C1.48071 27.2824 1.25992 26.9994 2.20269 21.5561C3.14547 16.1128 6.20621 12.044 7.54493 10.8716C9.14915 9.46663 10.435 8.38924 12.5729 7.72907C15.7421 6.75045 19.038 7.03068 21.372 7.72907C24.1728 8.66025 26.8938 9.05185 30.4852 8.67182C33.0407 8.40141 36.2116 7.8263 36.7702 7.35151C39.2842 5.21507 39.5985 6.15782 40.5412 4.90082C41.7197 3.32956 43.3695 3.95806 44.6265 2.70106C45.2931 2.03444 47.1405 1.29882 47.1405 1.06602C47.6073 0.833225 48.5684 0.600429 49.9688 1.06602C50.3796 0.187059 51.252 -0.127194 53.4255 0.18706C53.6589 0.419855 54.8544 -0.330755 55.0878 0.367633C55.3212 0.600429 55.5546 0.833225 55.5546 1.06602C56.2818 0.802891 57.5888 1.94131 57.1252 1.99746C58.2982 2.00518 58.6715 2.20841 59.7728 5.50376C59.7728 5.73656 60.9228 6.65312 60.9228 6.88592C61.1562 7.11871 61.1562 7.11871 61.1562 7.35151C61.1562 7.5843 61.3896 8.0499 61.623 8.51549C63.0234 10.1451 63.7236 11.9928 63.7236 11.9928C63.7236 12.6912 63.4902 13.1568 63.0234 13.3896C63.0234 14.088 62.5566 14.5536 62.0898 15.2519C60.902 15.9127 60.6442 15.7322 60.2719 15.7322C59.8995 15.7322 59.803 16.6545 59.082 16.8423C57.8286 17.1688 56.7216 15.8252 56.7216 15.8252L56.2537 17.1566C56.2537 17.1566 56.0112 16.7493 55.311 15.5853C55.8988 16.7579 55.3008 18.313 55.311 19.6706C55.3212 21.0281 54.8351 18.6348 54.3683 17.4708C54.1349 16.7724 54.2635 18.0993 54.054 18.7278C53.4255 20.6133 53.4255 23.2927 53.4255 22.4832C52.2282 21.8861 52.508 17.1766 52.1685 19.6706C52.1685 21.4676 51.8543 22.5939 51.8543 24.3843C51.2888 23.8203 51.1456 23.0302 50.5973 22.4832C50.283 23.7558 50.5973 24.5784 49.9688 26.8983C49.7511 25.0128 49.9358 23.2971 49.1777 21.7848C48.7344 23.5534 48.546 25.0626 48.3975 27.8411L47.1405 21.7848C47.1405 21.7848 47.6848 26.4479 47.6156 28.7838C45.485 25.8194 45.2333 26.3709 44.2983 23.2421C44.2983 25.6382 44.8377 27.4506 46.2011 29.4904C46.6679 30.1888 47.6448 31.4554 48.3975 31.9047C48.9927 32.354 50.0426 32.4151 50.9762 32.6479C52.4828 33.0236 53.2727 33.2336 53.4255 34.1044C53.5784 34.9753 52.9321 35.2114 52.1898 35.0752C51.0868 34.8729 50.2837 35.1256 49.1777 35.1256C48.7109 35.1256 48.0023 34.7329 47.6156 33.9616C47.3822 33.496 46.6238 32.6431 45.2333 32.1691C42.405 31.205 42.1125 30.6693 39.5985 29.4904C39.5985 29.4904 38.9832 31.5623 38.5164 32.7263C37.8486 34.3914 37.1209 35.629 37.116 37.615C37.1139 38.4382 37.116 39.2445 37.3494 39.7101C37.8162 40.4085 38.5164 40.4085 38.5164 40.4085C38.5164 40.4085 40.1421 40.4085 40.5412 41.1069C40.8999 41.7345 40.5059 42.6109 39.8451 42.6109H36.456C35.8424 42.6109 35.199 41.3539 35.199 41.3539C35.199 41.3539 35.0157 39.8494 34.8847 38.8399C34.2719 34.1185 33.942 29.4904 33.942 26.3709C32.9992 25.3271 25.143 20.9276 21.372 22.716C20.7435 22.1846 19.8007 22.0176 19.8007 22.716C20.2675 24.8112 20.2584 26.4559 18.858 28.7838C17.4576 31.1118 16.4248 33.1918 16.6582 35.287C16.8639 37.1337 16.7371 37.0363 17.9152 38.2114C18.7609 39.0549 18.8952 39.1735 19.4865 39.4684C19.9533 39.7012 20.5565 40.1693 21.0577 40.0969C22.629 40.1757 23.2575 40.7254 23.2575 41.3539C23.4909 42.285 22.7387 42.6164 22.3147 42.6109C21.3049 42.5976 21.5698 42.6109 20.4292 42.6109C19.729 42.6109 19.1441 42.5037 18.9107 42.2709C17.7437 41.1069 17.0406 40.5651 16.344 39.7826C14.064 37.2219 11.6241 36.9728 12.2587 35.0689C12.6641 33.8526 12.8872 32.8691 12.6089 31.5623C12.1421 28.5359 11.4419 26.4408 10.2749 25.044C9.10789 23.6472 8.1743 21.3193 7.94089 17.8273Z" fill="#0066FF"/>
</svg>
