<svg width="40" height="40" viewBox="0 0 40 40" fill="none" xmlns="http://www.w3.org/2000/svg">
<circle cx="20" cy="20" r="20" fill="#E5EAF5"/>
<path d="M27.4602 10.2965C27.1518 10.0228 26.7277 9.9386 26.3422 10.0439L17.841 12.4015C17.2627 12.5699 16.8578 13.1383 16.8578 13.7909V24.8847C16.3759 24.6531 15.8361 24.5268 15.2386 24.5268C13.4265 24.5268 12 25.7267 12 27.2634C12 28.8001 13.4265 30 15.2386 30C17.0506 30 18.4771 28.8001 18.4771 27.2634V16.9064L26.3614 14.7382V22.2533C25.8795 22.0218 25.3398 21.8954 24.7422 21.8954C22.9301 21.8954 21.5229 23.0953 21.5229 24.632C21.5229 26.1688 22.9494 27.3687 24.7614 27.3687C26.5735 27.3687 28 26.1688 28 24.632V11.4332C27.9807 10.9911 27.788 10.5701 27.4602 10.2965Z" fill="#001535"/>
</svg>
