<svg width="40" height="40" viewBox="0 0 40 40" fill="none" xmlns="http://www.w3.org/2000/svg">
<circle cx="20" cy="20" r="20" fill="#E5EAF5"/>
<path d="M17.8911 22.0376L18.9019 15.3359H21.0332L19.1362 26H16.9756L15.7305 19.7158L14.5 26H12.332L10.4277 15.3359H12.5737L13.5771 22.0303L14.8296 15.3359H16.6387L17.8911 22.0376Z" fill="#001535"/>
<path d="M29.4268 22.4478C29.373 23.6636 29.0312 24.584 28.4014 25.209C27.7715 25.834 26.8828 26.1465 25.7354 26.1465C24.5293 26.1465 23.604 25.751 22.9595 24.96C22.3198 24.1641 22 23.0312 22 21.5615V19.7671C22 18.3022 22.332 17.1743 22.9961 16.3833C23.6602 15.5874 24.583 15.1895 25.7646 15.1895C26.9268 15.1895 27.8081 15.5142 28.4087 16.1636C29.0142 16.813 29.3584 17.7456 29.4414 18.9614H27.2808C27.2612 18.2095 27.144 17.6919 26.9292 17.4087C26.7192 17.1206 26.3311 16.9766 25.7646 16.9766C25.1885 16.9766 24.7808 17.1792 24.5415 17.5845C24.3022 17.9849 24.1753 18.6465 24.1606 19.5693V21.5835C24.1606 22.6431 24.2778 23.3706 24.5122 23.7661C24.7515 24.1616 25.1592 24.3594 25.7354 24.3594C26.3018 24.3594 26.6924 24.2227 26.9072 23.9492C27.1221 23.6709 27.2441 23.1704 27.2734 22.4478H29.4268Z" fill="#001535"/>
</svg>
