<svg width="40" height="40" viewBox="0 0 40 40" fill="none" xmlns="http://www.w3.org/2000/svg">
<circle cx="20" cy="20" r="20" fill="#E5EAF5"/>
<path d="M16.4429 15.8795C17.4775 15.8795 18.3162 15.011 18.3162 13.9397C18.3162 12.8685 17.4775 12 16.4429 12C15.4083 12 14.5697 12.8685 14.5697 13.9397C14.5697 15.011 15.4083 15.8795 16.4429 15.8795Z" fill="#001535"/>
<path d="M23.5571 15.8795C24.5917 15.8795 25.4303 15.011 25.4303 13.9397C25.4303 12.8685 24.5917 12 23.5571 12C22.5225 12 21.6838 12.8685 21.6838 13.9397C21.6838 15.011 22.5225 15.8795 23.5571 15.8795Z" fill="#001535"/>
<path d="M13.5594 20.4128H12.1702C11.1599 20.4128 10.318 21.1974 10.1917 22.2218L10.0023 23.9C9.98123 24.1179 10.1075 24.3141 10.318 24.3795C10.6127 24.4449 10.9073 24.4885 11.2231 24.5321L11.4335 28.4551C11.4546 28.7603 11.7072 29 12.0018 29H13.7277C14.0224 29 14.275 28.7603 14.296 28.4551L14.5065 24.5321C14.8222 24.4885 15.1169 24.4449 15.4116 24.3795C15.6221 24.3359 15.7483 24.1179 15.7273 23.9L15.5379 22.2218C15.4326 21.1756 14.5697 20.4128 13.5594 20.4128Z" fill="#001535"/>
<path d="M12.8648 19.759C13.8994 19.759 14.738 18.8905 14.738 17.8192C14.738 16.7479 13.8994 15.8795 12.8648 15.8795C11.8302 15.8795 10.9915 16.7479 10.9915 17.8192C10.9915 18.8905 11.8302 19.759 12.8648 19.759Z" fill="#001535"/>
<path d="M20.6946 20.4128H19.3054C18.2951 20.4128 17.4532 21.1974 17.3269 22.2218L17.1375 23.9C17.1164 24.1179 17.2427 24.3141 17.4532 24.3795C17.7479 24.4449 18.0426 24.4885 18.3583 24.5321L18.5687 28.4551C18.5898 28.7603 18.8424 29 19.137 29H20.863C21.1576 29 21.4102 28.7603 21.4313 28.4551L21.6417 24.5321C21.9574 24.4885 22.2521 24.4449 22.5468 24.3795C22.7573 24.3359 22.8836 24.1179 22.8625 23.9L22.6731 22.2218C22.5468 21.1756 21.7049 20.4128 20.6946 20.4128Z" fill="#001535"/>
<path d="M20 19.759C21.0346 19.759 21.8733 18.8905 21.8733 17.8192C21.8733 16.7479 21.0346 15.8795 20 15.8795C18.9654 15.8795 18.1267 16.7479 18.1267 17.8192C18.1267 18.8905 18.9654 19.759 20 19.759Z" fill="#001535"/>
<path d="M29.8083 22.2218C29.682 21.1756 28.8401 20.4128 27.8298 20.4128H26.4406C25.4303 20.4128 24.5884 21.1974 24.4621 22.2218L24.2727 23.9C24.2517 24.1179 24.378 24.3141 24.5884 24.3795C24.8831 24.4449 25.1778 24.4885 25.4935 24.5321L25.704 28.4551C25.725 28.7603 25.9776 29 26.2723 29H27.9982C28.2928 29 28.5454 28.7603 28.5665 28.4551L28.7769 24.5321C29.0927 24.4885 29.3873 24.4449 29.682 24.3795C29.8925 24.3359 30.0188 24.1179 29.9977 23.9L29.8083 22.2218Z" fill="#001535"/>
<path d="M27.1352 19.759C28.1698 19.759 29.0085 18.8905 29.0085 17.8192C29.0085 16.7479 28.1698 15.8795 27.1352 15.8795C26.1006 15.8795 25.262 16.7479 25.262 17.8192C25.262 18.8905 26.1006 19.759 27.1352 19.759Z" fill="#001535"/>
</svg>
