<svg width="96" height="24" viewBox="0 0 96 24" fill="none" xmlns="http://www.w3.org/2000/svg">
<mask id="mask0" mask-type="alpha" maskUnits="userSpaceOnUse" x="0" y="0" width="96" height="24">
<path d="M1 24H88C88.3 24 88.6 23.8 88.8 23.6L95.8 13.6C96.1 13.1 96 12.5 95.6 12.2C95.4 12.1 95.2 12 95 12H87.4L79.7 4.3C79.5 4.1 79.3 4 79 4H72.4L70.4 2H72V0H61V2H63.4L64.4 4H20.5L17.8 0.4C17.6 0.1 17.3 0 17 0H11C10.4 0 10 0.4 10 1V4H6C5.5 4 5.1 4.3 5 4.8L3.2 12H1C0.4 12 0 12.4 0 13V23C0 23.6 0.4 24 1 24ZM67.6 2L69.6 4H66.6L65.6 2H67.6ZM12 2H16.5L18 4H12V2ZM6.8 6H78.6L84.6 12H5.3L6.8 6ZM2 14H93.1L90.3 18H2V14ZM2 20H88.9L87.5 22H2V20Z" fill="white"/>
<path d="M10 8H8V10H10V8Z" fill="white"/>
<path d="M14 8H12V10H14V8Z" fill="white"/>
<path d="M18 8H16V10H18V8Z" fill="white"/>
<path d="M22 8H20V10H22V8Z" fill="white"/>
<path d="M26 8H24V10H26V8Z" fill="white"/>
<path d="M30 8H28V10H30V8Z" fill="white"/>
<path d="M34 8H32V10H34V8Z" fill="white"/>
<path d="M38 8H36V10H38V8Z" fill="white"/>
<path d="M42 8H40V10H42V8Z" fill="white"/>
<path d="M46 8H44V10H46V8Z" fill="white"/>
<path d="M50 8H48V10H50V8Z" fill="white"/>
<path d="M54 8H52V10H54V8Z" fill="white"/>
<path d="M58 8H56V10H58V8Z" fill="white"/>
<path d="M62 8H60V10H62V8Z" fill="white"/>
<path d="M66 8H64V10H66V8Z" fill="white"/>
<path d="M70 8H68V10H70V8Z" fill="white"/>
<path d="M74 8H72V10H74V8Z" fill="white"/>
<path d="M78 8H76V10H78V8Z" fill="white"/>
</mask>
<g mask="url(#mask0)">
<path d="M-44 -19.5H146V40.5H-44V-19.5Z" fill="white"/>
</g>
</svg>
