<svg width="40" height="40" viewBox="0 0 40 40" fill="none" xmlns="http://www.w3.org/2000/svg">
<circle cx="20" cy="20" r="20" fill="#E5EAF5"/>
<path d="M29.9495 12.4291C29.8993 12.3023 29.8139 12.1938 29.7043 12.1174C29.5946 12.041 29.4655 12.0001 29.3335 12H15.7876C15.6117 12.001 15.4432 12.0736 15.3183 12.2021L10.1959 17.5094C10.1024 17.6062 10.0387 17.7297 10.0129 17.8641C9.98705 17.9985 10.0003 18.1379 10.0508 18.2645C10.1014 18.3911 10.187 18.4993 10.2968 18.5753C10.4067 18.6514 10.5358 18.6918 10.6678 18.6916H11.8144V26.3079C11.8144 26.4914 11.8847 26.6675 12.0097 26.7973C12.1347 26.9271 12.3043 27 12.4811 27C12.6579 27 12.8274 26.9271 12.9525 26.7973C13.0775 26.6675 13.1477 26.4914 13.1477 26.3079V18.6916H16.1156V21.8505C16.1156 22.0341 16.1858 22.2101 16.3108 22.3399C16.4359 22.4697 16.6054 22.5426 16.7822 22.5426C16.959 22.5426 17.1286 22.4697 17.2536 22.3399C17.3786 22.2101 17.4489 22.0341 17.4489 21.8505V18.6916H22.5525V26.3079C22.5525 26.4914 22.6227 26.6675 22.7477 26.7973C22.8727 26.9271 23.0423 27 23.2191 27C23.3959 27 23.5655 26.9271 23.6905 26.7973C23.8155 26.6675 23.8857 26.4914 23.8857 26.3079V18.6916H24.2137C24.3009 18.6917 24.3873 18.6739 24.4678 18.6392C24.5484 18.6045 24.6215 18.5536 24.683 18.4895L26.8536 16.2414V21.8505C26.8536 22.0341 26.9238 22.2101 27.0488 22.3399C27.1739 22.4697 27.3434 22.5426 27.5202 22.5426C27.697 22.5426 27.8666 22.4697 27.9916 22.3399C28.1166 22.2101 28.1869 22.0341 28.1869 21.8505V14.8599L29.8055 13.1822C29.8984 13.0854 29.9616 12.9623 29.9872 12.8283C30.0129 12.6943 29.9997 12.5554 29.9495 12.4291Z" fill="#001535"/>
</svg>
