<svg width="40" height="40" viewBox="0 0 40 40" fill="none" xmlns="http://www.w3.org/2000/svg">
<circle cx="20" cy="20" r="20" fill="#E5EAF5"/>
<path d="M10 16.1358L12.0798 18.2155C14.1913 16.104 17.004 14.9412 20 14.9412C22.996 14.9412 25.8089 16.104 27.9202 18.2155L30 16.1358C27.2431 13.3788 23.6216 12 20 12C16.3784 12 12.7569 13.3788 10 16.1358Z" fill="#001535"/>
<path d="M25.8406 20.2955C24.2849 18.7395 22.2105 17.8824 19.9999 17.8824C17.7894 17.8824 15.715 18.7395 14.1592 20.2955L16.2392 22.3751C17.2395 21.3746 18.575 20.8235 19.9999 20.8235C21.4249 20.8235 22.7604 21.3746 23.7606 22.3751L25.8406 20.2955Z" fill="#001535"/>
<path d="M20 28.4706C21.2995 28.4706 22.3529 27.4171 22.3529 26.1176C22.3529 24.8182 21.2995 23.7647 20 23.7647C18.7005 23.7647 17.6471 24.8182 17.6471 26.1176C17.6471 27.4171 18.7005 28.4706 20 28.4706Z" fill="#001535"/>
</svg>
