<svg width="40" height="40" viewBox="0 0 40 40" fill="none" xmlns="http://www.w3.org/2000/svg">
<circle cx="20" cy="20" r="20" fill="#E5EAF5"/>
<path d="M17.2083 10.5208V19.375C17.2083 19.6513 17.0986 19.9162 16.9032 20.1116C16.7079 20.3069 16.4429 20.4167 16.1667 20.4167H13.0417C12.7654 20.4167 12.5004 20.3069 12.3051 20.1116C12.1097 19.9162 12 19.6513 12 19.375V10.5208C12 10.3827 12.0549 10.2502 12.1525 10.1525C12.2502 10.0549 12.3827 10 12.5208 10C12.659 10 12.7914 10.0549 12.8891 10.1525C12.9868 10.2502 13.0417 10.3827 13.0417 10.5208V15.2083H14.0833V10.5208C14.0833 10.3827 14.1382 10.2502 14.2359 10.1525C14.3336 10.0549 14.466 10 14.6042 10C14.7423 10 14.8748 10.0549 14.9725 10.1525C15.0701 10.2502 15.125 10.3827 15.125 10.5208V15.2083H16.1667V10.5208C16.1667 10.3827 16.2215 10.2502 16.3192 10.1525C16.4169 10.0549 16.5494 10 16.6875 10C16.8256 10 16.9581 10.0549 17.0558 10.1525C17.1535 10.2502 17.2083 10.3827 17.2083 10.5208ZM13.5625 28.9583C13.5625 29.2346 13.6722 29.4996 13.8676 29.6949C14.0629 29.8903 14.3279 30 14.6042 30C14.8804 30 15.1454 29.8903 15.3407 29.6949C15.5361 29.4996 15.6458 29.2346 15.6458 28.9583V21.4583H13.5625V28.9583ZM22.9375 28.9583C22.9375 29.2346 23.0472 29.4996 23.2426 29.6949C23.4379 29.8903 23.7029 30 23.9792 30C24.2554 30 24.5204 29.8903 24.7157 29.6949C24.9111 29.4996 25.0208 29.2346 25.0208 28.9583V21.4583H22.9375V28.9583ZM23.9792 10C21.9635 10 20.3333 12.3333 20.3333 15.2083C20.3333 17.6094 21.474 19.6927 23.0208 20.4167H24.9375C26.5 19.6927 27.625 17.6094 27.625 15.2083C27.625 12.3333 25.9948 10 23.9792 10Z" fill="#001535"/>
</svg>
