<svg width="121" height="41" viewBox="0 0 121 41" fill="none" xmlns="http://www.w3.org/2000/svg">
<path d="M7.17037 6.96321C9.11235 8.75965 11.3531 10.7058 15.6852 10.7058C20.0173 10.7058 22.258 8.75965 24.2 6.96321C25.9926 5.31648 27.4864 3.96915 30.6235 3.96915C33.7605 3.96915 35.2543 5.31648 37.0469 6.96321C38.9889 8.75965 41.2296 10.7058 45.5617 10.7058C49.8938 10.7058 52.1346 8.75965 54.0765 6.96321C55.8691 5.31648 57.363 3.96915 60.5 3.96915C63.637 3.96915 65.1309 5.31648 66.9235 6.96321C68.8654 8.75965 71.1062 10.7058 75.4383 10.7058C79.7704 10.7058 82.0111 8.75965 83.9531 6.96321C85.7457 5.31648 87.2395 3.96915 90.3765 3.96915C93.5136 3.96915 95.0074 5.31648 96.8 6.96321C98.742 8.75965 100.983 10.7058 105.315 10.7058C109.647 10.7058 111.888 8.75965 113.83 6.96321C115.622 5.31648 117.116 3.96915 120.253 3.96915H121V0.975098H120.253C115.921 0.975098 113.68 2.92123 111.738 4.71767C109.946 6.3644 108.452 7.71173 105.315 7.71173C102.178 7.71173 100.684 6.3644 98.8913 4.71767C96.9494 2.92123 94.7086 0.975098 90.3765 0.975098C86.0444 0.975098 83.8037 2.92123 81.8617 4.71767C80.0691 6.3644 78.5753 7.71173 75.4383 7.71173C72.3012 7.71173 70.8074 6.3644 69.0148 4.71767C67.0728 2.92123 64.8321 0.975098 60.5 0.975098C56.1679 0.975098 53.9272 2.92123 51.9852 4.71767C50.1926 6.3644 48.6988 7.71173 45.5617 7.71173C42.4247 7.71173 40.9309 6.3644 39.1383 4.71767C37.1963 2.92123 34.9556 0.975098 30.6235 0.975098C26.2914 0.975098 24.0506 2.92123 22.1086 4.71767C20.316 6.3644 18.8222 7.71173 15.6852 7.71173C12.5481 7.71173 11.0543 6.3644 9.26173 4.71767C7.31975 2.92123 5.07901 0.975098 0.746914 0.975098H0V3.96915H0.746914C3.88395 3.96915 5.37778 5.31648 7.17037 6.96321Z" fill="#E5EAF5"/>
<path d="M111.738 19.3773C109.946 21.0241 108.452 22.3714 105.315 22.3714C102.178 22.3714 100.684 21.0241 98.8913 19.3773C96.9494 17.5809 94.7086 15.6348 90.3765 15.6348C86.0444 15.6348 83.8037 17.5809 81.8617 19.3773C80.0691 21.0241 78.5753 22.3714 75.4383 22.3714C72.3012 22.3714 70.8074 21.0241 69.0148 19.3773C67.0728 17.5809 64.8321 15.6348 60.5 15.6348C56.1679 15.6348 53.9272 17.5809 51.9852 19.3773C50.1926 21.0241 48.6988 22.3714 45.5617 22.3714C42.4247 22.3714 40.9309 21.0241 39.1383 19.3773C37.1963 17.5809 34.9556 15.6348 30.6235 15.6348C26.2914 15.6348 24.0506 17.5809 22.1086 19.3773C20.316 21.0241 18.8222 22.3714 15.6852 22.3714C12.5481 22.3714 11.0543 21.0241 9.26173 19.3773C7.31975 17.5809 5.07901 15.6348 0.746914 15.6348H0V18.6288H0.746914C3.88395 18.6288 5.37778 19.9761 7.17037 21.6229C9.11235 23.4193 11.3531 25.3655 15.6852 25.3655C20.0173 25.3655 22.258 23.4193 24.2 21.6229C25.9926 19.9761 27.4864 18.6288 30.6235 18.6288C33.7605 18.6288 35.2543 19.9761 37.0469 21.6229C38.9889 23.4193 41.2296 25.3655 45.5617 25.3655C49.8938 25.3655 52.1346 23.4193 54.0765 21.6229C55.8691 19.9761 57.363 18.6288 60.5 18.6288C63.637 18.6288 65.1309 19.9761 66.9235 21.6229C68.8654 23.4193 71.1062 25.3655 75.4383 25.3655C79.7704 25.3655 82.0111 23.4193 83.9531 21.6229C85.7457 19.9761 87.2395 18.6288 90.3765 18.6288C93.5136 18.6288 95.0074 19.9761 96.8 21.6229C98.742 23.4193 100.983 25.3655 105.315 25.3655C109.647 25.3655 111.888 23.4193 113.83 21.6229C115.622 19.9761 117.116 18.6288 120.253 18.6288H121V15.6348H120.253C115.921 15.6348 113.68 17.5809 111.738 19.3773Z" fill="#E5EAF5"/>
<path d="M111.738 34.037C109.946 35.6837 108.452 37.0311 105.315 37.0311C102.178 37.0311 100.684 35.6837 98.8913 34.037C96.9494 32.2406 94.7086 30.2944 90.3765 30.2944C86.0444 30.2944 83.8037 32.2406 81.8617 34.037C80.0691 35.6837 78.5753 37.0311 75.4383 37.0311C72.3012 37.0311 70.8074 35.6837 69.0148 34.037C67.0728 32.2406 64.8321 30.2944 60.5 30.2944C56.1679 30.2944 53.9272 32.2406 51.9852 34.037C50.1926 35.6837 48.6988 37.0311 45.5617 37.0311C42.4247 37.0311 40.9309 35.6837 39.1383 34.037C37.1963 32.2406 34.9556 30.2944 30.6235 30.2944C26.2914 30.2944 24.0506 32.2406 22.1086 34.037C20.316 35.6837 18.8222 37.0311 15.6852 37.0311C12.5481 37.0311 11.0543 35.6837 9.26173 34.037C7.31975 32.2406 5.07901 30.2944 0.746914 30.2944H0V33.2885H0.746914C3.88395 33.2885 5.37778 34.6358 7.17037 36.2825C9.11235 38.079 11.3531 40.0251 15.6852 40.0251C20.0173 40.0251 22.258 38.079 24.2 36.2825C25.9926 34.6358 27.4864 33.2885 30.6235 33.2885C33.7605 33.2885 35.2543 34.6358 37.0469 36.2825C38.9889 38.079 41.2296 40.0251 45.5617 40.0251C49.8938 40.0251 52.1346 38.079 54.0765 36.2825C55.8691 34.6358 57.363 33.2885 60.5 33.2885C63.637 33.2885 65.1309 34.6358 66.9235 36.2825C68.8654 38.079 71.1062 40.0251 75.4383 40.0251C79.7704 40.0251 82.0111 38.079 83.9531 36.2825C85.7457 34.6358 87.2395 33.2885 90.3765 33.2885C93.5136 33.2885 95.0074 34.6358 96.8 36.2825C98.742 38.079 100.983 40.0251 105.315 40.0251C109.647 40.0251 111.888 38.079 113.83 36.2825C115.622 34.6358 117.116 33.2885 120.253 33.2885H121V30.2944H120.253C115.921 30.2944 113.68 32.2406 111.738 34.037Z" fill="#E5EAF5"/>
</svg>
