<svg width="28" height="30" viewBox="0 0 28 30" fill="none" xmlns="http://www.w3.org/2000/svg">
<path d="M26.6649 13.7002H23.9227C23.3454 11.733 21.5052 10.2927 19.3402 10.2927C17.1753 10.2927 15.335 11.7682 14.7216 13.7002H1.33505C0.613402 13.7002 0 14.2623 0 15C0 15.7026 0.577319 16.2998 1.33505 16.2998H14.7216C15.299 18.267 17.1392 19.7073 19.3041 19.7073C21.4691 19.7073 23.3093 18.267 23.8866 16.2998H26.6289C27.3505 16.2998 27.9639 15.7377 27.9639 15C28 14.2974 27.4227 13.7002 26.6649 13.7002ZM19.3402 17.1077C18.1856 17.1077 17.1753 16.1944 17.1753 15C17.1753 13.8056 18.1134 12.8923 19.3402 12.8923C20.567 12.8923 21.5052 13.8056 21.5052 15C21.5052 16.1944 20.4948 17.1077 19.3402 17.1077Z" fill="#001535"/>
<path d="M1.33505 6.00703H4.18557C4.76289 7.97424 6.60309 9.41452 8.76804 9.41452C10.933 9.41452 12.7732 7.97424 13.3505 6.00703H26.6649C27.3866 6.00703 28 5.44497 28 4.70726C28 3.96956 27.4227 3.40749 26.6649 3.40749H13.3505C12.7732 1.44028 10.933 0 8.76804 0C6.60309 0 4.76289 1.44028 4.18557 3.40749H1.33505C0.613402 3.40749 0 3.96956 0 4.70726C0 5.44497 0.577319 6.00703 1.33505 6.00703ZM8.76804 2.59953C9.92268 2.59953 10.933 3.51288 10.933 4.70726C10.933 5.90164 9.99484 6.81499 8.76804 6.81499C7.54124 6.81499 6.60309 5.83138 6.60309 4.70726C6.60309 3.58314 7.6134 2.59953 8.76804 2.59953Z" fill="#001535"/>
<path d="M26.6649 23.993H13.3505C12.7732 22.0258 10.933 20.5855 8.76804 20.5855C6.60309 20.5855 4.76289 22.0258 4.18557 23.993H1.33505C0.613402 23.993 0 24.555 0 25.2927C0 26.0304 0.577319 26.5925 1.33505 26.5925H4.18557C4.76289 28.5597 6.60309 30 8.76804 30C10.933 30 12.7732 28.5597 13.3505 26.5925H26.6649C27.3866 26.5925 28 26.0304 28 25.2927C28 24.555 27.4227 23.993 26.6649 23.993ZM8.76804 27.4005C7.6134 27.4005 6.60309 26.4871 6.60309 25.2927C6.60309 24.0984 7.54124 23.185 8.76804 23.185C9.99484 23.185 10.933 24.0984 10.933 25.2927C10.933 26.4871 9.92268 27.4005 8.76804 27.4005Z" fill="#001535"/>
</svg>
