<svg width="30" height="23" viewBox="0 0 30 23" fill="none" xmlns="http://www.w3.org/2000/svg">
<path d="M14.7393 3.08664C14.8195 3.05095 14.9087 3.03311 15.0022 3.03311C15.0958 3.03311 15.1849 3.05095 15.2651 3.08664C15.2651 3.08664 15.2651 3.08664 15.2696 3.08664L24.8091 7.25716V0H5.19085V7.26162L14.7393 3.08664C14.7349 3.08664 14.7349 3.08664 14.7393 3.08664Z" fill="#001535"/>
<path d="M15.6706 4.72362V15.5045C15.6706 15.8748 15.372 16.1736 15.0022 16.1736C14.6324 16.1736 14.3339 15.8748 14.3339 15.5045V4.72362L0 10.9906L3.96554 22.057H26.0345L30 10.9906L15.6706 4.72362Z" fill="#001535"/>
</svg>
