<svg width="26" height="26" viewBox="0 0 26 26" fill="none" xmlns="http://www.w3.org/2000/svg">
<path d="M26 23.4005L26 2.60049C26 1.17049 24.83 0.00048823 23.4 0.000488168L2.6 0.000487258C1.17 0.000487196 -5.11423e-08 1.17049 -1.1365e-07 2.60049L-1.02285e-06 23.4005C-1.08535e-06 24.8305 1.17 26.0005 2.6 26.0005L23.4 26.0005C24.83 26.0005 26 24.8305 26 23.4005ZM2.6 13.0005C2.6 7.28049 7.28 2.60049 13 2.60049C18.72 2.60049 23.4 7.28049 23.4 13.0005C23.4 18.7205 18.72 23.4005 13 23.4005C7.28 23.4005 2.6 18.7205 2.6 13.0005Z" fill="#001535"/>
<path d="M20.8 13.0005C20.8 8.71049 17.29 5.20049 13 5.20049C8.71 5.20049 5.2 8.71049 5.2 13.0005C5.2 17.2905 8.71 20.8005 13 20.8005C17.29 20.8005 20.8 17.2905 20.8 13.0005ZM7.8 13.0005C7.8 12.2205 8.32 11.7005 9.1 11.7005C9.88 11.7005 10.4 12.2205 10.4 13.0005C10.4 13.7805 9.88 14.3005 9.1 14.3005C8.32 14.3005 7.8 13.7805 7.8 13.0005ZM15.6 13.0005C15.6 12.2205 16.12 11.7005 16.9 11.7005C17.68 11.7005 18.2 12.2205 18.2 13.0005C18.2 13.7805 17.68 14.3005 16.9 14.3005C16.12 14.3005 15.6 13.7805 15.6 13.0005Z" fill="#001535"/>
</svg>
