<svg width="30" height="28" viewBox="0 0 30 28" fill="none" xmlns="http://www.w3.org/2000/svg">
<path d="M27.3323 10.6606H19.4888C19.4888 10.6606 19.4888 10.6606 19.8262 9.15097C20.1635 7.64132 20.3322 4.83769 19.9527 2.89671C19.5732 0.955734 17.8021 0.524406 17.1274 0.0930782C16.4526 -0.33825 15.4406 0.869469 15.4406 0.869469C15.4406 0.869469 15.3984 1.3008 15.5249 4.36323C15.6514 7.42566 9.28391 13.5936 9.28391 13.5936L9.11523 13.723C9.11523 13.723 8.90438 24.7219 9.11523 25.4552C9.36824 26.2316 11.3502 26.7492 11.3502 26.7492H25.0973C25.0973 26.7492 26.4889 26.1884 27.2058 25.1964C27.9648 24.2043 27.5009 22.9535 27.5009 22.9535C27.5009 22.9535 28.3022 22.4359 28.6817 21.6164C29.0612 20.7968 28.6817 19.1147 28.6817 19.1147C28.6817 19.1147 29.4407 18.5108 29.6516 17.7344C29.8624 16.958 29.3142 15.6209 29.3142 15.6209C29.3142 15.6209 29.7781 15.0602 29.9889 13.378C30.1998 11.6958 27.3323 10.6606 27.3323 10.6606Z" fill="white"/>
<path d="M5.23557 12.6879H1.43375C0.632536 12.6879 0 13.3348 0 14.1975V26.4904C0 27.3099 0.632536 28 1.43375 28H5.23557C6.03678 28 6.66932 27.3099 6.66932 26.4904V14.1544C6.66932 13.3348 6.03678 12.6879 5.23557 12.6879ZM4.30785 25.0238C3.67531 25.0238 3.16928 24.5062 3.16928 23.8593C3.16928 23.2123 3.67531 22.6947 4.30785 22.6947C4.94038 22.6947 5.44641 23.2123 5.44641 23.8593C5.44641 24.5062 4.94038 25.0238 4.30785 25.0238Z" fill="white"/>
</svg>
