<svg width="30" height="22" viewBox="0 0 30 22" fill="none" xmlns="http://www.w3.org/2000/svg">
<path d="M29.9242 0.627183C29.8489 0.441813 29.7209 0.283239 29.5564 0.171577C29.3919 0.0599153 29.1983 0.000197735 29.0002 0H8.6814C8.41758 0.00146366 8.16483 0.107513 7.97743 0.295383L0.293776 8.05222C0.153569 8.1937 0.0580443 8.37411 0.0193125 8.57057C-0.0194194 8.76704 0.000385903 8.97072 0.0762176 9.15578C0.152049 9.34085 0.280492 9.49897 0.445263 9.6101C0.610034 9.72123 0.803712 9.78037 1.00174 9.78001H2.72167V20.9115C2.72167 21.1798 2.82702 21.4371 3.01455 21.6268C3.20208 21.8165 3.45642 21.9231 3.72162 21.9231C3.98683 21.9231 4.24117 21.8165 4.4287 21.6268C4.61623 21.4371 4.72158 21.1798 4.72158 20.9115V9.78001H9.17338V14.3969C9.17338 14.6652 9.27873 14.9225 9.46626 15.1122C9.65379 15.3019 9.90813 15.4085 10.1733 15.4085C10.4385 15.4085 10.6929 15.3019 10.8804 15.1122C11.0679 14.9225 11.1733 14.6652 11.1733 14.3969V9.78001H18.8287V20.9115C18.8287 21.1798 18.934 21.4371 19.1216 21.6268C19.3091 21.8165 19.5634 21.9231 19.8286 21.9231C20.0938 21.9231 20.3482 21.8165 20.5357 21.6268C20.7232 21.4371 20.8286 21.1798 20.8286 20.9115V9.78001H21.3206C21.4514 9.78016 21.5809 9.75413 21.7017 9.70344C21.8225 9.65274 21.9322 9.57838 22.0245 9.48462L25.2804 6.199V14.3969C25.2804 14.6652 25.3857 14.9225 25.5733 15.1122C25.7608 15.3019 26.0151 15.4085 26.2803 15.4085C26.5455 15.4085 26.7999 15.3019 26.9874 15.1122C27.1749 14.9225 27.2803 14.6652 27.2803 14.3969V4.17987L29.7082 1.72779C29.8476 1.58638 29.9424 1.40641 29.9809 1.21056C30.0193 1.0147 29.9996 0.81172 29.9242 0.627183Z" fill="#001535"/>
</svg>
