<svg width="20" height="20" viewBox="0 0 20 20" fill="none" xmlns="http://www.w3.org/2000/svg">
<path opacity="0.5" fill-rule="evenodd" clip-rule="evenodd" d="M10 0C4.48615 0 0 4.48615 0 10C0 15.5142 4.48615 20 10 20C15.5142 20 20 15.5142 20 10C20 4.48615 15.5142 0 10 0ZM8.90088 13H11.9448V11.7114H8.90088V10.8081H10.9067C11.9393 10.7954 12.7454 10.5352 13.3252 10.0273C13.9049 9.5153 14.1948 8.81071 14.1948 7.91357C14.1948 7.03337 13.8901 6.32878 13.2808 5.7998C12.6714 5.2666 11.8568 5 10.8369 5H7.30127V9.51953H6V10.8081H7.30127V11.7114H6V13H7.30127V15.2422H8.90088V13ZM8.90088 9.51953H10.8115C11.387 9.51953 11.8271 9.38623 12.1318 9.11963C12.4365 8.85303 12.5889 8.45524 12.5889 7.92627C12.5889 7.45231 12.4386 7.0651 12.1382 6.76465C11.842 6.46419 11.4315 6.30762 10.9067 6.29492H8.90088V9.51953Z" fill="white"/>
</svg>
