<svg width="60" height="60" viewBox="0 0 60 60" fill="none" xmlns="http://www.w3.org/2000/svg">
<circle cx="30" cy="30" r="30" fill="#FFE485"/>
<path d="M29.7393 22.0866C29.8195 22.051 29.9087 22.0331 30.0022 22.0331C30.0958 22.0331 30.1849 22.051 30.2651 22.0866C30.2651 22.0866 30.2651 22.0866 30.2696 22.0866L39.8091 26.2572V19H20.1909V26.2616L29.7393 22.0866C29.7349 22.0866 29.7349 22.0866 29.7393 22.0866Z" fill="#001535"/>
<path d="M30.6706 23.7236V34.5045C30.6706 34.8748 30.372 35.1736 30.0022 35.1736C29.6324 35.1736 29.3339 34.8748 29.3339 34.5045V23.7236L15 29.9906L18.9655 41.057H41.0345L45 29.9906L30.6706 23.7236Z" fill="#001535"/>
</svg>
