<svg width="28" height="18" viewBox="0 0 28 18" fill="none" xmlns="http://www.w3.org/2000/svg">
<path d="M3.22851 10.148C3.99161 10.148 4.75472 10.4598 5.28302 10.9984C5.40042 11.1118 5.60587 11.2535 5.84067 11.2535C6.10482 11.2535 6.28092 11.1118 6.39832 10.9984C6.45702 10.9417 6.51572 10.885 6.57442 10.8567C7.48428 7.85197 10.3606 5.64094 13.7652 5.64094C17.1698 5.64094 20.0168 7.85197 20.9266 10.8567C20.9853 10.9134 21.044 10.9701 21.1027 10.9984C21.2201 11.1118 21.4256 11.2535 21.6604 11.2535C21.9245 11.2535 22.1006 11.1118 22.218 10.9984C22.7757 10.4598 23.5094 10.1197 24.2725 10.1197C25.0356 10.1197 25.7987 10.4315 26.327 10.9984C26.4444 11.1118 26.6205 11.2535 26.8553 11.2535V0.651969C26.8553 0.283465 26.5325 0 26.1803 0H1.3501C0.968553 0 0.675052 0.311811 0.675052 0.651969V11.2535C0.909853 11.2535 1.08595 11.1118 1.20335 10.9984C1.73166 10.4598 2.43606 10.148 3.22851 10.148Z" fill="white"/>
<path d="M0.616352 14.2866C1.58491 14.2866 2.52411 13.9181 3.25786 13.2661C3.99161 13.9181 4.93082 14.2866 5.89937 14.2866C6.86792 14.2866 7.80713 13.9181 8.54088 13.2945C9.27463 13.9465 10.2138 14.2866 11.1824 14.2866C12.1509 14.2866 13.0901 13.9181 13.8239 13.2945C14.5577 13.9465 15.4969 14.2866 16.4654 14.2866C17.434 14.2866 18.3732 13.9181 19.1069 13.2945C19.8407 13.9465 20.7799 14.2866 21.7484 14.2866C22.717 14.2866 23.6562 13.9181 24.3899 13.2945C25.1237 13.9465 26.0629 14.2866 27.0314 14.2866C27.4717 14.2866 27.8239 13.9465 27.8239 13.5213C27.8239 13.0961 27.4717 12.7559 27.0314 12.7559C26.4151 12.7559 25.7987 12.5008 25.3585 12.0472C25.0943 11.7921 24.7715 11.6504 24.4193 11.6504C24.0671 11.6504 23.7442 11.7921 23.4801 12.0472C23.0105 12.5008 22.4235 12.7559 21.8071 12.7559C21.1908 12.7559 20.5744 12.5008 20.1342 12.0472C19.87 11.7921 19.5472 11.6504 19.195 11.6504C18.8428 11.6504 18.5199 11.7921 18.2558 12.0472C17.7862 12.5008 17.1992 12.7559 16.5828 12.7559C15.9665 12.7559 15.3501 12.5008 14.9099 12.0472C14.6457 11.7921 14.3229 11.6504 13.9706 11.6504C13.6184 11.6504 13.2956 11.7921 13.0314 12.0472C12.5618 12.5008 11.9748 12.7559 11.3585 12.7559C10.7421 12.7559 10.1258 12.5008 9.68553 12.0472C9.42138 11.7921 9.09853 11.6504 8.74633 11.6504C8.39413 11.6504 8.07128 11.7921 7.80713 12.0472C7.33753 12.5008 6.75052 12.7559 6.13417 12.7559C5.51782 12.7559 4.90147 12.5008 4.46122 12.0472C4.19706 11.7921 3.87421 11.6504 3.52201 11.6504C3.16981 11.6504 2.81761 11.7921 2.58281 12.0472C2.11321 12.5008 1.52621 12.7559 0.909853 12.7559C0.469602 12.7559 0.1174 13.0961 0.1174 13.5213C-0.176101 13.9465 0.176101 14.2866 0.616352 14.2866Z" fill="white"/>
<path d="M26.914 16.4693C26.2977 16.4693 25.6813 16.2142 25.2411 15.7606C24.9769 15.5055 24.6541 15.3638 24.3019 15.3638C23.9497 15.3638 23.6268 15.5055 23.3627 15.7606C22.8931 16.2142 22.3061 16.4693 21.6897 16.4693C21.0734 16.4693 20.457 16.2142 20.0168 15.7606C19.7526 15.5055 19.4298 15.3638 19.0776 15.3638C18.7254 15.3638 18.4025 15.5055 18.1384 15.7606C17.6688 16.2142 17.0818 16.4693 16.4654 16.4693C15.8491 16.4693 15.2327 16.2142 14.7925 15.7606C14.5283 15.5055 14.2055 15.3638 13.8532 15.3638C13.501 15.3638 13.1782 15.5055 12.914 15.7606C12.4444 16.2142 11.8574 16.4693 11.2411 16.4693C10.6247 16.4693 10.0084 16.2142 9.56814 15.7606C9.30398 15.5055 8.98113 15.3638 8.62893 15.3638C8.27673 15.3638 7.95388 15.5055 7.68973 15.7606C7.22013 16.2142 6.63312 16.4693 6.01677 16.4693C5.40042 16.4693 4.78407 16.2142 4.34382 15.7606C4.07966 15.5055 3.75681 15.3638 3.40461 15.3638C3.05241 15.3638 2.70021 15.5055 2.46541 15.7606C1.99581 16.2142 1.40881 16.4693 0.792453 16.4693C0.352201 16.4693 0 16.8094 0 17.2346C0 17.6598 0.352201 18 0.792453 18C1.76101 18 2.70021 17.6315 3.43396 16.9795C4.16772 17.6315 5.10692 18 6.07547 18C7.04402 18 7.98323 17.6315 8.71698 17.0079C9.45073 17.6598 10.3899 18 11.3585 18C12.327 18 13.2662 17.6315 14 17.0079C14.7338 17.6598 15.673 18 16.6415 18C17.6101 18 18.5493 17.6315 19.283 17.0079C20.0168 17.6598 20.956 18 21.9245 18C22.8931 18 23.8323 17.6315 24.566 17.0079C25.2998 17.6598 26.239 18 27.2075 18C27.6478 18 28 17.6598 28 17.2346C27.7065 16.8094 27.3543 16.4693 26.914 16.4693Z" fill="white"/>
</svg>
