<svg width="20" height="20" viewBox="0 0 20 20" fill="none" xmlns="http://www.w3.org/2000/svg">
<path opacity="0.5" d="M10 0C4.48615 0 0 4.48615 0 10C0 15.5142 4.48615 20 10 20C15.5142 20 20 15.5142 20 10C20 4.48615 15.5142 0 10 0ZM13.6208 13.6208C13.4704 13.7712 13.2738 13.8462 13.0769 13.8462C12.88 13.8462 12.6835 13.7712 12.5331 13.6208L9.45615 10.5438C9.31192 10.3996 9.23077 10.2038 9.23077 10V4.61538C9.23077 4.19077 9.57539 3.84615 10 3.84615C10.4246 3.84615 10.7692 4.19077 10.7692 4.61538V9.68115L13.6208 12.5331C13.9212 12.8335 13.9212 13.3204 13.6208 13.6208Z" fill="white"/>
</svg>
