<svg width="20" height="20" viewBox="0 0 20 20" fill="none" xmlns="http://www.w3.org/2000/svg">
<path d="M16.6486 14.6119C15.4856 15.1592 14.2579 15.4538 12.9872 15.4538C8.39969 15.4538 4.65214 11.7916 4.65214 7.3086C4.65214 6.06682 4.93213 4.86714 5.51364 3.7306C5.62133 3.52013 5.57826 3.28861 5.40596 3.14128C5.23365 2.99395 4.99674 2.95185 4.8029 3.05709C1.85224 4.65667 0 7.68745 0 10.9708C0 15.959 4.15677 20 9.23966 20C12.6211 20 15.7225 18.211 17.3378 15.3065C17.4455 15.1171 17.424 14.8645 17.2517 14.7172C17.1009 14.5488 16.864 14.5067 16.6486 14.6119Z" fill="white"/>
<path d="M9.39043 9.62378C9.49812 9.70797 9.54119 9.83425 9.49812 9.96054L9.15351 11.3496C9.0889 11.6443 9.41196 11.8969 9.69195 11.7285L10.9411 10.9918C11.0488 10.9287 11.1996 10.9287 11.3073 10.9918L12.5565 11.7285C12.8365 11.8969 13.1595 11.6443 13.0949 11.3496L12.7503 9.96054C12.7288 9.83425 12.7718 9.70797 12.858 9.62378L13.9564 8.69771C14.1933 8.48724 14.0641 8.10839 13.7626 8.08735L12.3196 7.98211C12.1903 7.96106 12.0611 7.89792 12.018 7.77164L11.458 6.46672C11.3288 6.17206 10.9196 6.17206 10.8119 6.46672L10.2519 7.77164C10.2089 7.89792 10.0796 7.98211 9.95041 7.98211L8.48584 8.08735C8.16278 8.10839 8.03355 8.48724 8.292 8.69771L9.39043 9.62378Z" fill="white"/>
<path d="M11.0488 2.76243C11.135 2.82557 11.1565 2.93081 11.135 3.03604L10.855 4.15154C10.7904 4.4041 11.0704 4.59353 11.2857 4.46725L12.298 3.85688C12.3842 3.79374 12.5134 3.79374 12.5995 3.85688L13.6118 4.46725C13.8272 4.59353 14.1072 4.4041 14.0426 4.15154L13.7626 3.03604C13.741 2.93081 13.7841 2.82557 13.8487 2.76243L14.7533 2.00474C14.9471 1.83636 14.8395 1.52065 14.581 1.52065L13.4395 1.41542C13.3318 1.41542 13.2457 1.33123 13.2026 1.24704L12.7503 0.173639C12.6426 -0.0578795 12.3196 -0.0578795 12.2119 0.173639L11.7596 1.24704C11.7165 1.35228 11.6303 1.41542 11.5227 1.41542L10.3381 1.49961C10.0796 1.52065 9.97194 1.83636 10.1658 1.98369L11.0488 2.76243Z" fill="white"/>
<path d="M19.9008 6.50881C20.0947 6.34044 19.987 6.02473 19.7285 6.02473L18.5439 5.94054C18.4362 5.94054 18.3501 5.85635 18.307 5.77216L17.8547 4.69876C17.747 4.46725 17.424 4.46725 17.3163 4.69876L16.8855 5.75112C16.8425 5.85635 16.7563 5.91949 16.6486 5.91949L15.4641 6.00368C15.2056 6.02473 15.0979 6.34044 15.2917 6.48777L16.1963 7.24546C16.2825 7.3086 16.304 7.41384 16.2825 7.51907L16.0025 8.63457C15.9379 8.88713 16.2179 9.07656 16.4332 8.95028L17.4455 8.33991C17.5317 8.27677 17.6609 8.27677 17.747 8.33991L18.7593 8.95028C18.9747 9.07656 19.2547 8.88713 19.1901 8.63457L18.9101 7.51907C18.8885 7.41384 18.9316 7.3086 18.9962 7.24546L19.9008 6.50881Z" fill="white"/>
</svg>
