<svg width="26" height="20" viewBox="0 0 26 20" fill="none" xmlns="http://www.w3.org/2000/svg">
<path d="M23.5738 4.35714V7.21429H22.0328V4.35714H19.7705V7.21429H18.459V0H15.7049V2.82143H14.4262V0H11.6721V2.82143H10.4918V0H7.70492V7.21429H6.72131V4.39286H3.93443V7.25H2.78689V4.35714H0V10L1.34426 11.4643V20H3.96721V15.7857C3.96721 14.9643 4.59016 14.3214 5.31148 14.3214C5.67213 14.3214 6.03279 14.5 6.26229 14.75C6.4918 15.0357 6.65574 15.3929 6.65574 15.7857V19.9643H19.377V15.7857C19.377 14.9643 20 14.3214 20.7213 14.3214C21.082 14.3214 21.4426 14.5 21.6721 14.75C21.9016 15.0357 22.0656 15.3929 22.0656 15.7857V19.9643H24.6885V11.6429L26 10.2143V4.35714H23.5738ZM14.4262 15.4643H11.7377V11.2857C11.7377 10.4643 12.3607 9.82143 13.082 9.82143C13.4426 9.82143 13.8033 10 14.0328 10.25C14.2623 10.5357 14.4262 10.8929 14.4262 11.2857V15.4643Z" fill="white"/>
</svg>
