<svg width="26" height="26" viewBox="0 0 26 26" fill="none" xmlns="http://www.w3.org/2000/svg">
<path d="M13 0.000488281C5.832 0.000488281 0 5.83249 0 13.0005C0 20.169 5.832 26.0005 13 26.0005C20.1685 26.0005 26 20.169 26 13.0005C26 5.83249 20.1685 0.000488281 13 0.000488281ZM17.707 17.7075C17.5115 17.903 17.256 18.0005 17 18.0005C16.744 18.0005 16.4885 17.903 16.293 17.7075L12.293 13.7075C12.1055 13.52 12 13.2655 12 13.0005V6.00049C12 5.44849 12.448 5.00049 13 5.00049C13.552 5.00049 14 5.44849 14 6.00049V12.586L17.707 16.2935C18.0975 16.684 18.0975 17.317 17.707 17.7075Z" fill="#001535"/>
</svg>
