<svg width="60" height="60" viewBox="0 0 60 60" fill="none" xmlns="http://www.w3.org/2000/svg">
<circle cx="30" cy="30" r="30" fill="#FFE485"/>
<path d="M43 23.7065V22.6532C43 21.2162 41.8355 20.0474 40.4042 20.0474H40.2482V18.7514C40.2482 17.7854 39.4659 17 38.504 17H38.374C37.4124 17 36.6298 17.7854 36.6298 18.7511V20.0471H31.8093V18.7511C31.8093 17.7854 31.0267 17 30.0648 17H29.9352C28.9733 17 28.1907 17.7854 28.1907 18.7511V20.0471H23.3702V18.7511C23.3702 17.7854 22.5879 17 21.626 17H21.4963C20.5344 17 19.7518 17.7854 19.7518 18.7511V20.0471H19.5958C18.1645 20.0471 17 21.2162 17 22.6529V23.7062L43 23.7065Z" fill="#001535"/>
<path d="M17 24.935V40.3942C17 41.8309 18.1645 43 19.5958 43H40.4042C41.8355 43 43 41.8309 43 40.3942V24.935H17ZM20.9755 30.7865V27.5447H25.9723V30.7865H20.9755ZM20.9755 35.5643V32.3222H25.9723V35.564L20.9755 35.5643ZM20.9755 40.3418V37.0997H25.9723V40.3415L20.9755 40.3418ZM27.5019 30.7865V27.5447H32.4984V30.7865H27.5019ZM27.5019 35.5643V32.3222H32.4984V35.564L27.5019 35.5643ZM27.5019 40.3418V37.0997H32.4984V40.3415L27.5019 40.3418ZM34.028 30.7865V27.5447H39.0245V30.7865H34.028ZM34.028 35.5643V32.3222H39.0245V35.564L34.028 35.5643Z" fill="#001535"/>
</svg>
