<svg width="24" height="20" viewBox="0 0 24 20" fill="none" xmlns="http://www.w3.org/2000/svg">
<path d="M23.6086 16.481L13.4557 16.4304V13.7975H18.3242C20.2569 13.7975 21.1131 12.2532 21.1131 10.7089C21.1131 10.481 20.9419 10.2785 20.7217 10.2785L13.4801 10.2278V7.89873H15.0703C16.0245 7.89873 17.3456 6.83544 17.3456 4.81013C17.3456 4.58228 17.1743 4.40506 16.9541 4.37975L7.33945 4.22785C7.11927 4.22785 6.94801 4.40506 6.92355 4.63291C6.92355 4.65823 6.92355 4.68354 6.92355 4.70886C6.92355 4.73418 6.92355 4.75949 6.92355 4.78481C6.92355 6.78481 8.24465 7.87342 9.19878 7.87342H10.789V10.1772L3.5474 10.1266C3.32722 10.1266 3.1315 10.3038 3.1315 10.5316C3.1315 10.557 3.1315 10.5823 3.1315 10.6076C3.1315 10.6329 3.1315 10.6582 3.1315 10.6835C3.1315 12.2278 3.98777 13.7722 5.92049 13.7722H10.789V16.3544L0.415902 16.3291C0.195719 16.3291 0 16.5063 0 16.7595C0 16.7848 0 16.8101 0 16.8354C0 16.8608 0 16.8861 0 16.9114C0 18.7848 1.41896 20 3.6208 20H20.3792C22.581 20 24 18.7848 24 16.9114C24 16.6582 23.8287 16.481 23.6086 16.481Z" fill="white"/>
<path d="M5.43119 3.8481C5.65138 3.8481 5.8471 3.67089 5.8471 3.41772C5.8471 2 6.97248 0.835443 8.34251 0.835443C9.8104 0.835443 10.8379 1.79747 10.8379 3.13924C10.8379 3.36709 11.0092 3.56962 11.2538 3.56962C11.474 3.56962 11.6697 3.39241 11.6697 3.13924C11.6453 1.31646 10.2508 0 8.34251 0C6.50765 0 5.01529 1.5443 5.01529 3.44304C5.01529 3.67089 5.21101 3.8481 5.43119 3.8481Z" fill="white"/>
<path d="M1.76147 9.59494C1.98165 9.59494 2.17737 9.41772 2.17737 9.16456C2.17737 8.37975 2.78899 7.77215 3.52294 7.77215C4.25688 7.77215 4.8685 8.40506 4.8685 9.16456C4.8685 9.39241 5.03976 9.59494 5.2844 9.59494C5.52905 9.59494 5.70031 9.41772 5.70031 9.16456C5.70031 7.92405 4.72171 6.91139 3.52294 6.91139C2.32416 6.91139 1.34557 7.92405 1.34557 9.16456C1.37003 9.41772 1.54128 9.59494 1.76147 9.59494Z" fill="white"/>
<path d="M5.43119 6.50633C5.65138 6.50633 5.8471 6.32911 5.8471 6.07595V4.96203C5.8471 4.73418 5.67584 4.53165 5.43119 4.53165C5.18654 4.53165 5.01529 4.70886 5.01529 4.96203V6.07595C5.01529 6.32911 5.21101 6.50633 5.43119 6.50633Z" fill="white"/>
<path d="M1.63914 15.4937C1.85933 15.4937 2.05505 15.3165 2.05505 15.0633V10.8608C2.05505 10.6329 1.88379 10.4304 1.63914 10.4304C1.3945 10.4304 1.22324 10.6329 1.22324 10.8608V15.0633C1.22324 15.2911 1.41896 15.4937 1.63914 15.4937Z" fill="white"/>
<path d="M13.0153 3.8481C13.2355 3.8481 13.4312 3.67089 13.4312 3.41772C13.4312 2 14.5566 0.835443 15.9266 0.835443C17.2966 0.835443 18.422 2 18.422 3.41772C18.422 3.64557 18.5933 3.8481 18.8379 3.8481C19.0581 3.8481 19.2538 3.67089 19.2538 3.41772C19.2294 1.5443 17.7615 0 15.9266 0C14.0917 0 12.5994 1.5443 12.5994 3.44304C12.5994 3.67089 12.7951 3.8481 13.0153 3.8481Z" fill="white"/>
<path d="M18.5688 9.18987C18.5688 9.41772 18.7401 9.62025 18.9847 9.62025C19.2294 9.62025 19.4006 9.44304 19.4006 9.18987C19.4006 8.40506 20.0122 7.79747 20.7462 7.79747C21.4801 7.79747 22.0917 8.43038 22.0917 9.18987C22.0917 9.41772 22.263 9.62025 22.5076 9.62025C22.7523 9.62025 22.9235 9.44304 22.9235 9.18987C22.9235 7.94937 21.945 6.93671 20.7462 6.93671C19.5474 6.93671 18.5688 7.94937 18.5688 9.18987Z" fill="white"/>
<path d="M19.2294 6.10127V4.98734C19.2294 4.75949 19.0581 4.55696 18.8135 4.55696C18.5933 4.55696 18.3976 4.73418 18.3976 4.98734V6.10127C18.3976 6.32911 18.5688 6.53165 18.8135 6.53165C19.0581 6.50633 19.2294 6.32911 19.2294 6.10127Z" fill="white"/>
<path d="M22.2141 10.8608V15.0633C22.2141 15.2911 22.3853 15.4937 22.63 15.4937C22.8502 15.4937 23.0459 15.3165 23.0459 15.0633V10.8608C23.0459 10.6329 22.8746 10.4304 22.63 10.4304C22.4098 10.4304 22.2141 10.6329 22.2141 10.8608Z" fill="white"/>
</svg>
