<svg width="26" height="20" viewBox="0 0 26 20" fill="none" xmlns="http://www.w3.org/2000/svg">
<path d="M23.508 0.44046H2.48668C1.11712 0.44046 0 1.55758 0 2.92714V14.5012C0 15.8707 1.11712 16.9879 2.48668 16.9879H23.5133C24.8829 16.9879 26 15.8707 26 14.5012V2.92714C25.9946 1.55758 24.8775 0.44046 23.508 0.44046ZM24.4908 14.4958C24.4908 15.0383 24.0504 15.4787 23.508 15.4787H2.48668C1.94423 15.4787 1.50382 15.0383 1.50382 14.4958V2.92714C1.50382 2.38469 1.94423 1.94428 2.48668 1.94428H23.5133C24.0558 1.94428 24.4962 2.38469 24.4962 2.92714V14.4958H24.4908Z" fill="#001535"/>
<path d="M22.6647 3.12586H3.32989C2.97542 3.12586 2.6854 3.41588 2.6854 3.77035V13.6526C2.6854 14.0071 2.97542 14.2971 3.32989 14.2971H22.6647C23.0192 14.2971 23.3092 14.0071 23.3092 13.6526V3.77035C23.3092 3.41588 23.0192 3.12586 22.6647 3.12586ZM19.12 18.0567H6.87461C6.46106 18.0567 6.1227 18.395 6.1227 18.8086C6.1227 19.2221 6.46106 19.5605 6.87461 19.5605H19.12C19.5336 19.5605 19.8719 19.2221 19.8719 18.8086C19.8719 18.395 19.5336 18.0567 19.12 18.0567Z" fill="#001535"/>
</svg>
