<svg width="30" height="30" viewBox="0 0 30 30" fill="none" xmlns="http://www.w3.org/2000/svg">
<path fill-rule="evenodd" clip-rule="evenodd" d="M15 30C12.0333 30 9.13319 29.1203 6.66645 27.472C4.19972 25.8238 2.27713 23.4811 1.14181 20.7403C0.00649929 17.9994 -0.290551 14.9834 0.288227 12.0736C0.867006 9.16393 2.29562 6.49119 4.3934 4.3934C6.49119 2.29562 9.16393 0.867006 12.0736 0.288227C14.9834 -0.290551 17.9994 0.00649929 20.7403 1.14181C23.4811 2.27713 25.8238 4.19972 27.472 6.66645C29.1203 9.13319 30 12.0333 30 15C30 18.9782 28.4196 22.7936 25.6066 25.6066C22.7936 28.4196 18.9782 30 15 30ZM19.376 15.38C18.939 14.8876 18.3528 14.5518 17.707 14.424V14.359C18.1829 14.1509 18.5808 13.7978 18.844 13.35C19.1231 12.8763 19.2657 12.3347 19.256 11.785C19.265 11.3211 19.1621 10.8618 18.956 10.446C18.7541 10.0547 18.4409 9.73183 18.056 9.518C17.686 9.30285 17.279 9.15903 16.856 9.094C16.2336 9.01542 15.6063 8.982 14.979 8.994H11.007V21.008H15.507C16.1578 21.0238 16.8075 20.9477 17.437 20.782C17.949 20.6278 18.4236 20.3694 18.831 20.023C19.1959 19.7177 19.4874 19.3342 19.684 18.901C19.9043 18.4065 20.0122 17.8692 20 17.328C20.0389 16.6237 19.8168 15.9297 19.376 15.379V15.38ZM16.355 18.572C16.0851 18.7006 15.7926 18.7747 15.494 18.79C15.212 18.8 14.7033 18.8053 13.968 18.806H13.817V15.8H14.338C14.842 15.8 15.242 15.804 15.538 15.812C15.7784 15.809 16.0174 15.8486 16.244 15.929C16.5006 16.0168 16.7228 16.1834 16.879 16.405C17.0337 16.6682 17.1071 16.9712 17.09 17.276C17.0947 17.5461 17.034 17.8134 16.913 18.055C16.7905 18.285 16.5938 18.4668 16.355 18.571V18.572ZM15.789 13.553C15.6024 13.6489 15.3983 13.706 15.189 13.721C14.995 13.733 14.656 13.738 14.173 13.738H13.818V11.195H14.018C14.522 11.195 14.901 11.199 15.155 11.207C15.3826 11.2094 15.6075 11.2577 15.816 11.349C16.0106 11.4381 16.1654 11.5959 16.251 11.792C16.3402 11.9796 16.3876 12.1843 16.39 12.392C16.3948 12.6296 16.3512 12.8657 16.262 13.086C16.1657 13.2933 15.9977 13.4588 15.789 13.552V13.553Z" fill="white"/>
</svg>
