<svg width="30" height="25" viewBox="0 0 30 25" fill="none" xmlns="http://www.w3.org/2000/svg">
<path d="M0 6.20365L3.11965 9.32329C6.28694 6.156 10.506 4.41176 15 4.41176C19.494 4.41176 23.7134 6.156 26.8804 9.32329L30 6.20365C25.8646 2.06824 20.4325 0 15 0C9.56753 0 4.13541 2.06824 0 6.20365Z" fill="#001535"/>
<path d="M23.761 12.4433C21.4273 10.1093 18.3158 8.82353 14.9999 8.82353C11.684 8.82353 8.5725 10.1093 6.23886 12.4433L9.35886 15.5626C10.8592 14.0619 12.8625 13.2353 14.9999 13.2353C17.1373 13.2353 19.1406 14.0619 20.641 15.5626L23.761 12.4433Z" fill="#001535"/>
<path d="M15 24.7059C16.9492 24.7059 18.5294 23.1257 18.5294 21.1765C18.5294 19.2272 16.9492 17.6471 15 17.6471C13.0508 17.6471 11.4706 19.2272 11.4706 21.1765C11.4706 23.1257 13.0508 24.7059 15 24.7059Z" fill="#001535"/>
</svg>
