<svg width="50" height="50" viewBox="0 0 50 50" fill="none" xmlns="http://www.w3.org/2000/svg">
<path d="M49.7069 0.292894C49.3164 -0.0976298 48.6832 -0.0976298 48.2927 0.292895L0.295009 48.2907C-0.0955151 48.6813 -0.0955142 49.3144 0.29501 49.7049C0.685534 50.0955 1.3187 50.0955 1.70922 49.7049L49.7069 1.70711C50.0974 1.31658 50.0974 0.683419 49.7069 0.292894Z" fill="white"/>
<path d="M0.294846 0.292893C0.685371 -0.0976311 1.31854 -0.0976311 1.70906 0.292893L49.7067 48.2907C50.0972 48.6813 50.0972 49.3144 49.7067 49.7049C49.3162 50.0955 48.683 50.0955 48.2925 49.7049L0.294846 1.70711C-0.095678 1.31658 -0.095678 0.683418 0.294846 0.292893Z" fill="white"/>
</svg>
