<svg width="52" height="52" viewBox="0 0 52 52" fill="none" xmlns="http://www.w3.org/2000/svg">
<path d="M1.12981 1.12993C1.52033 0.739405 2.1535 0.739405 2.54402 1.12993L50.8699 49.4558C51.2605 49.8464 51.2605 50.4795 50.8699 50.87C50.4794 51.2606 49.8462 51.2606 49.4557 50.87L1.12981 2.54414C0.739282 2.15362 0.739283 1.52045 1.12981 1.12993Z" fill="#001535"/>
<path d="M50.8702 1.12993C50.4797 0.739405 49.8465 0.739405 49.456 1.12993L1.13007 49.4558C0.739547 49.8464 0.739548 50.4795 1.13007 50.87C1.5206 51.2606 2.15376 51.2606 2.54429 50.87L50.8702 2.54414C51.2607 2.15362 51.2607 1.52045 50.8702 1.12993Z" fill="#001535"/>
</svg>
